<?xml version="1.0" encoding="UTF-8" standalone="no"?>
<svg
   xmlns:dc="http://purl.org/dc/elements/1.1/"
   xmlns:cc="http://creativecommons.org/ns#"
   xmlns:rdf="http://www.w3.org/1999/02/22-rdf-syntax-ns#"
   xmlns:svg="http://www.w3.org/2000/svg"
   xmlns="http://www.w3.org/2000/svg"
   xmlns:sodipodi="http://sodipodi.sourceforge.net/DTD/sodipodi-0.dtd"
   xmlns:inkscape="http://www.inkscape.org/namespaces/inkscape"
   inkscape:version="1.0 (4035a4f, 2020-05-01)"
   sodipodi:docname="architectural-overview.svg"
   id="svg515"
   version="1.1"
   viewBox="0 0 566.924 297.704"
   height="105.023mm"
   width="199.998mm">
  <metadata
     id="metadata519">
    <rdf:RDF>
      <cc:Work
         rdf:about="">
        <dc:format>image/svg+xml</dc:format>
        <dc:type
           rdf:resource="http://purl.org/dc/dcmitype/StillImage" />
        <dc:title></dc:title>
        <dc:subject>
          <rdf:Bag>
            <rdf:li>virtualization</rdf:li>
            <rdf:li>architecture</rdf:li>
            <rdf:li>do316</rdf:li>
          </rdf:Bag>
        </dc:subject>
      </cc:Work>
    </rdf:RDF>
  </metadata>
  <sodipodi:namedview
     inkscape:current-layer="svg515"
     inkscape:window-maximized="0"
     inkscape:window-y="25"
     inkscape:window-x="0"
     inkscape:cy="198.46867"
     inkscape:cx="377.94898"
     inkscape:zoom="1.4512541"
     showgrid="false"
     id="namedview517"
     inkscape:window-height="480"
     inkscape:window-width="709"
     inkscape:pageshadow="2"
     inkscape:pageopacity="0"
     guidetolerance="10"
     gridtolerance="10"
     objecttolerance="10"
     borderopacity="1"
     bordercolor="#666666"
     pagecolor="#ffffff" />
  <defs
     id="defs12">
    <style
       id="style10">
      .cls-1 {
        fill: #d9e8f7;
      }

      .cls-2 {
        fill: #fff;
      }

      .cls-3 {
        fill: #06c;
      }

      .cls-4 {
        fill: #161616;
      }

      .cls-5 {
        fill: #a2a2a2;
      }

      .cls-6 {
        fill: none;
        stroke: #161616;
        stroke-miterlimit: 10;
      }

      .cls-7 {
        fill: #e8e8e8;
      }
    </style>
  </defs>
  <g
     data-name="Layer 1"
     id="Layer_1">
    <rect
       id="rect14"
       height="297.704"
       width="396.677"
       x="170.247"
       class="cls-1" />
    <path
       id="path16"
       transform="translate(-14.167 -14.315)"
       d="M198.587,99.387H311.973V283.672H198.587Z"
       class="cls-2" />
    <g
       id="g50">
      <g
         id="g22">
        <rect
           id="rect18"
           height="27.347"
           width="84.04"
           y="113.952"
           x="199.093"
           class="cls-1" />
        <path
           id="path20"
           transform="translate(-14.167 -14.315)"
           d="M296.8,128.767v26.346H213.761V128.767H296.8m1-1H212.761v28.346H297.8V127.767Z"
           class="cls-3" />
      </g>
      <g
         id="g48">
        <path
           id="path24"
           transform="translate(-14.167 -14.315)"
           d="M227.364,139.7h1.229l1.4,3.639,1.389-3.639h1.18l-2.06,5.008h-1.1Z"
           class="cls-4" />
        <path
           id="path26"
           transform="translate(-14.167 -14.315)"
           d="M233.233,137.992a.7.7,0,1,1,.7.689A.693.693,0,0,1,233.233,137.992Zm.13,1.708h1.13v5.008h-1.13Z"
           class="cls-4" />
        <path
           id="path28"
           transform="translate(-14.167 -14.315)"
           d="M235.893,139.7h1.13v1.081a1.5,1.5,0,0,1,1.379-1.17,1.318,1.318,0,0,1,.489.1v.989a1.794,1.794,0,0,0-.619-.12,1.363,1.363,0,0,0-1.249.829v3.3h-1.13Z"
           class="cls-4" />
        <path
           id="path30"
           transform="translate(-14.167 -14.315)"
           d="M240.443,143.408V140.6h-1v-.9h1v-1.378l1.129-.241V139.7h1.389v.9h-1.389v2.558c0,.491.19.68.7.68a2.118,2.118,0,0,0,.68-.119v.949a3.554,3.554,0,0,1-.97.14C240.972,144.808,240.443,144.328,240.443,143.408Z"
           class="cls-4" />
        <path
           id="path32"
           transform="translate(-14.167 -14.315)"
           d="M243.823,141.39h3.488v.959h-3.488Z"
           class="cls-4" />
        <path
           id="path34"
           transform="translate(-14.167 -14.315)"
           d="M248.582,137.542l1.13-.2v3.179a1.825,1.825,0,0,1,1.579-.9,1.691,1.691,0,0,1,1.75,1.789v3.3H251.9V141.73a1.078,1.078,0,0,0-1.1-1.2,1.247,1.247,0,0,0-1.089.609v3.568h-1.13Z"
           class="cls-4" />
        <path
           id="path36"
           transform="translate(-14.167 -14.315)"
           d="M254.143,143.269c0-.9.739-1.469,1.919-1.469a2.952,2.952,0,0,1,1.349.319v-.559c0-.66-.38-1-1.15-1a3.462,3.462,0,0,0-1.459.39l-.4-.82a4.948,4.948,0,0,1,2.078-.51c1.31,0,2.049.661,2.049,1.82v3.268h-1.119v-.519a2.026,2.026,0,0,1-1.49.609A1.6,1.6,0,0,1,254.143,143.269Zm2.089.729a1.744,1.744,0,0,0,1.179-.42v-.809a2.578,2.578,0,0,0-1.15-.239c-.649,0-1.059.269-1.059.719S255.6,144,256.232,144Z"
           class="cls-4" />
        <path
           id="path38"
           transform="translate(-14.167 -14.315)"
           d="M259.9,139.7h1.129v.821a1.825,1.825,0,0,1,1.579-.9,1.691,1.691,0,0,1,1.749,1.789v3.3h-1.14V141.73a1.077,1.077,0,0,0-1.1-1.2,1.248,1.248,0,0,0-1.09.609v3.568H259.9Z"
           class="cls-4" />
        <path
           id="path40"
           transform="translate(-14.167 -14.315)"
           d="M265.493,142.209a2.426,2.426,0,0,1,2.339-2.549,1.92,1.92,0,0,1,1.459.651v-2.769l1.128-.2v7.366H269.3v-.66a1.952,1.952,0,0,1-1.549.71A2.4,2.4,0,0,1,265.493,142.209Zm3.8,1.05V141.15a1.555,1.555,0,0,0-1.19-.539,1.6,1.6,0,0,0,0,3.2A1.477,1.477,0,0,0,269.291,143.259Z"
           class="cls-4" />
        <path
           id="path42"
           transform="translate(-14.167 -14.315)"
           d="M271.823,137.542l1.129-.2v7.366h-1.129Z"
           class="cls-4" />
        <path
           id="path44"
           transform="translate(-14.167 -14.315)"
           d="M274.113,142.209a2.473,2.473,0,0,1,2.438-2.589,2.407,2.407,0,0,1,2.368,2.589v.27h-3.7a1.533,1.533,0,0,0,1.5,1.4,1.666,1.666,0,0,0,1.19-.47l.739.67a2.894,2.894,0,0,1-1.979.73A2.541,2.541,0,0,1,274.113,142.209Zm3.737-.429a1.362,1.362,0,0,0-1.309-1.24,1.346,1.346,0,0,0-1.309,1.24Z"
           class="cls-4" />
        <path
           id="path46"
           transform="translate(-14.167 -14.315)"
           d="M280.073,139.7H281.2v1.081a1.5,1.5,0,0,1,1.379-1.17,1.319,1.319,0,0,1,.49.1v.989a1.8,1.8,0,0,0-.62-.12,1.365,1.365,0,0,0-1.249.829v3.3h-1.129Z"
           class="cls-4" />
      </g>
    </g>
    <g
       id="g74">
      <g
         id="g56">
        <rect
           id="rect52"
           height="28.346"
           width="368.33"
           y="14.173"
           x="184.42"
           class="cls-2" />
        <path
           id="path54"
           transform="translate(-14.167 -14.315)"
           d="M560.918,28.488h-3v1h3v-1Zm-6,0h-3v1h3v-1Zm-6,0h-3v1h3v-1Zm-6,0h-3v1h3v-1Zm-6,0h-3v1h3v-1Zm-6,0h-3v1h3v-1Zm-6,0h-3v1h3v-1Zm-6,0h-3v1h3v-1Zm-6,0h-3v1h3v-1Zm-6,0h-3v1h3v-1Zm-6,0h-3v1h3v-1Zm-6,0h-3v1h3v-1Zm-6,0h-3v1h3v-1Zm-6,0h-3v1h3v-1Zm-6,0h-3v1h3v-1Zm-6,0h-3v1h3v-1Zm-6,0h-3v1h3v-1Zm-6,0h-3v1h3v-1Zm-6,0h-3v1h3v-1Zm-6,0h-3v1h3v-1Zm-6,0h-3v1h3v-1Zm-6,0h-3v1h3v-1Zm-6,0h-3v1h3v-1Zm-6,0h-3v1h3v-1Zm-6,0h-3v1h3v-1Zm-6,0h-3v1h3v-1Zm-6,0h-3v1h3v-1Zm-6,0h-3v1h3v-1Zm-6,0h-3v1h3v-1Zm-6,0h-3v1h3v-1Zm-6,0h-3v1h3v-1Zm-6,0h-3v1h3v-1Zm-6,0h-3v1h3v-1Zm-6,0h-3v1h3v-1Zm-6,0h-3v1h3v-1Zm-6,0h-3v1h3v-1Zm-6,0h-3v1h3v-1Zm-6,0h-3v1h3v-1Zm-6,0h-3v1h3v-1Zm-6,0h-3v1h3v-1Zm-6,0h-3v1h3v-1Zm-6,0h-3v1h3v-1Zm-6,0h-3v1h3v-1Zm-6,0h-3v1h3v-1Zm-6,0h-3v1h3v-1Zm-6,0h-3v1h3v-1Zm-6,0h-3v1h3v-1Zm-6,0h-3v1h3v-1Zm-6,0h-3v1h3v-1Zm-6,0h-3v1h3v-1Zm-6,0h-3v1h3v-1Zm-6,0h-3v1h3v-1Zm-6,0h-3v1h3v-1Zm-6,0h-3v1h3v-1Zm-6,0h-3v1h3v-1Zm-6,0h-3v1h3v-1Zm-6,0h-3v1h3v-1Zm-6,0h-3v1h3v-1Zm-6,0h-3v1h3v-1Zm-6,0h-3v1h3v-1Zm-6,0h-2.331v1h2.331v-1Zm-1.331,3.67h-1v3h1v-3Zm0,6h-1v3h1v-3Zm0,6h-1v3h1v-3Zm0,6h-1v3h1v-3Zm1.324,5.677h-2.324v.323h0v0h0v.677h2.324v-1Zm6,0h-3v1h3v-1Zm6,0h-3v1h3v-1Zm6,0h-3v1h3v-1Zm6,0h-3v1h3v-1Zm6,0h-3v1h3v-1Zm6,0h-3v1h3v-1Zm6,0h-3v1h3v-1Zm6,0h-3v1h3v-1Zm6,0h-3v1h3v-1Zm6,0h-3v1h3v-1Zm6,0h-3v1h3v-1Zm6,0h-3v1h3v-1Zm6,0h-3v1h3v-1Zm6,0h-3v1h3v-1Zm6,0h-3v1h3v-1Zm6,0h-3v1h3v-1Zm6,0h-3v1h3v-1Zm6,0h-3v1h3v-1Zm6,0h-3v1h3v-1Zm6,0h-3v1h3v-1Zm6,0h-3v1h3v-1Zm6,0h-3v1h3v-1Zm6,0h-3v1h3v-1Zm6,0h-3v1h3v-1Zm6,0h-3v1h3v-1Zm6,0h-3v1h3v-1Zm6,0h-3v1h3v-1Zm6,0h-3v1h3v-1Zm6,0h-3v1h3v-1Zm6,0h-3v1h3v-1Zm6,0h-3v1h3v-1Zm6,0h-3v1h3v-1Zm6,0h-3v1h3v-1Zm6,0h-3v1h3v-1Zm6,0h-3v1h3v-1Zm6,0h-3v1h3v-1Zm6,0h-3v1h3v-1Zm6,0h-3v1h3v-1Zm6,0h-3v1h3v-1Zm6,0h-3v1h3v-1Zm6,0h-3v1h3v-1Zm6,0h-3v1h3v-1Zm6,0h-3v1h3v-1Zm6,0h-3v1h3v-1Zm6,0h-3v1h3v-1Zm6,0h-3v1h3v-1Zm6,0h-3v1h3v-1Zm6,0h-3v1h3v-1Zm6,0h-3v1h3v-1Zm6,0h-3v1h3v-1Zm6,0h-3v1h3v-1Zm6,0h-3v1h3v-1Zm6,0h-3v1h3v-1Zm6,0h-3v1h3v-1Zm6,0h-3v1h3v-1Zm6,0h-3v1h3v-1Zm6,0h-3v1h3v-1Zm6,0h-3v1h3v-1Zm6,0h-3v1h3v-1Zm6,0h-3v1h3v-1Zm6,0h-3v1h3v-1Zm.007-4.993h-1v3h1v-3Zm0-6h-1v3h1v-3Zm0-6h-1v3h1v-3Zm0-6h-1v3h1v-3Zm0-4.354h-3v1h2v.354h1V28.488Z"
           class="cls-5" />
      </g>
      <g
         id="g72">
        <path
           id="path58"
           transform="translate(-14.167 -14.315)"
           d="M365.722,38.243l1.13-.189v4.5l2.078-2.129h1.3l-2.309,2.32,2.429,2.688h-1.439l-2.059-2.309V45.43h-1.13Z"
           class="cls-4" />
        <path
           id="path60"
           transform="translate(-14.167 -14.315)"
           d="M371.092,43.721v-3.3h1.139v2.969a1.082,1.082,0,0,0,1.1,1.209,1.245,1.245,0,0,0,1.089-.6V40.422h1.129V45.43H374.42v-.81a1.807,1.807,0,0,1-1.588.89A1.694,1.694,0,0,1,371.092,43.721Z"
           class="cls-4" />
        <path
           id="path62"
           transform="translate(-14.167 -14.315)"
           d="M376.952,38.293l1.13-.189v2.988a1.95,1.95,0,0,1,1.539-.71,2.564,2.564,0,0,1-.071,5.1,1.9,1.9,0,0,1-1.489-.69v.64h-1.109Zm3.818,4.638a1.514,1.514,0,0,0-1.489-1.6,1.482,1.482,0,0,0-1.2.56v2.089a1.544,1.544,0,0,0,1.2.559A1.511,1.511,0,0,0,380.77,42.931Z"
           class="cls-4" />
        <path
           id="path64"
           transform="translate(-14.167 -14.315)"
           d="M382.832,42.931a2.473,2.473,0,0,1,2.439-2.589,2.407,2.407,0,0,1,2.369,2.589V43.2h-3.7a1.533,1.533,0,0,0,1.5,1.4,1.666,1.666,0,0,0,1.189-.47l.74.67a2.9,2.9,0,0,1-1.979.73A2.542,2.542,0,0,1,382.832,42.931Zm3.738-.43a1.362,1.362,0,0,0-1.309-1.239,1.345,1.345,0,0,0-1.309,1.239Z"
           class="cls-4" />
        <path
           id="path66"
           transform="translate(-14.167 -14.315)"
           d="M388.792,38.264l1.129-.2V45.43h-1.129Z"
           class="cls-4" />
        <path
           id="path68"
           transform="translate(-14.167 -14.315)"
           d="M391.082,42.931a2.473,2.473,0,0,1,2.439-2.589,2.407,2.407,0,0,1,2.369,2.589V43.2h-3.7a1.533,1.533,0,0,0,1.5,1.4,1.666,1.666,0,0,0,1.189-.47l.74.67a2.9,2.9,0,0,1-1.979.73A2.542,2.542,0,0,1,391.082,42.931Zm3.738-.43a1.362,1.362,0,0,0-1.309-1.239A1.345,1.345,0,0,0,392.2,42.5Z"
           class="cls-4" />
        <path
           id="path70"
           transform="translate(-14.167 -14.315)"
           d="M397.662,44.13V41.322h-1v-.9h1V39.043l1.129-.24v1.619h1.389v.9h-1.389V43.88c0,.49.19.68.7.68a2.113,2.113,0,0,0,.679-.119v.949a3.553,3.553,0,0,1-.969.14C398.191,45.53,397.662,45.05,397.662,44.13Z"
           class="cls-4" />
      </g>
    </g>
    <g
       id="g104">
      <path
         id="path76"
         transform="translate(-14.167 -14.315)"
         d="M213.369,113.9a5.223,5.223,0,0,1,2.5-4.678l.859.989a4.478,4.478,0,0,0,0,7.376l-.859.989A5.218,5.218,0,0,1,213.369,113.9Z"
         class="cls-4" />
      <path
         id="path78"
         transform="translate(-14.167 -14.315)"
         d="M217.838,109.333h2.848a3.5,3.5,0,1,1,0,7h-2.848Zm2.848,5.527a2.053,2.053,0,0,0,0-4.058h-1.129v4.058Z"
         class="cls-4" />
      <path
         id="path80"
         transform="translate(-14.167 -14.315)"
         d="M225.048,114.85c0-.949.74-1.5,2.009-1.5a3.354,3.354,0,0,1,1.2.24v-.42c0-.5-.33-.75-1.019-.75a3.84,3.84,0,0,0-1.449.361l-.56-1.13a5.707,5.707,0,0,1,2.369-.56c1.429,0,2.259.71,2.259,1.939v3.3h-1.6v-.45a2.052,2.052,0,0,1-1.428.53A1.6,1.6,0,0,1,225.048,114.85Zm2.279.49a1.759,1.759,0,0,0,.929-.261v-.659a3.863,3.863,0,0,0-.889-.11c-.53,0-.829.181-.829.51S226.828,115.34,227.327,115.34Z"
         class="cls-4" />
      <path
         id="path82"
         transform="translate(-14.167 -14.315)"
         d="M230.848,113.761a2.585,2.585,0,0,1,2.6-2.669,2.532,2.532,0,0,1,2.539,2.729v.349h-3.549a1.238,1.238,0,0,0,1.21.97,1.275,1.275,0,0,0,1.019-.43l1.07.89a3.009,3.009,0,0,1-2.169.829A2.666,2.666,0,0,1,230.848,113.761Zm3.638-.51a1.081,1.081,0,0,0-1.049-.9,1.015,1.015,0,0,0-1,.9Z"
         class="cls-4" />
      <path
         id="path84"
         transform="translate(-14.167 -14.315)"
         d="M237,111.172h1.618v.82a1.77,1.77,0,0,1,1.529-.9,1.527,1.527,0,0,1,1.449.959,1.951,1.951,0,0,1,1.69-.959A1.653,1.653,0,0,1,244.9,112.9v3.428h-1.619v-3.108a.771.771,0,0,0-.77-.859.9.9,0,0,0-.75.389v3.578h-1.619v-3.108a.771.771,0,0,0-.77-.859.928.928,0,0,0-.759.4v3.568H237Z"
         class="cls-4" />
      <path
         id="path86"
         transform="translate(-14.167 -14.315)"
         d="M245.9,113.761a2.689,2.689,0,1,1,2.688,2.668A2.623,2.623,0,0,1,245.9,113.761Zm3.8,0a1.126,1.126,0,1,0-1.11,1.318A1.18,1.18,0,0,0,249.7,113.761Z"
         class="cls-4" />
      <path
         id="path88"
         transform="translate(-14.167 -14.315)"
         d="M252.308,111.172h1.619v.839a1.9,1.9,0,0,1,1.629-.919,1.667,1.667,0,0,1,1.709,1.759v3.478h-1.619v-3.008a.859.859,0,0,0-.859-.959,1.042,1.042,0,0,0-.86.429v3.538h-1.619Z"
         class="cls-4" />
      <path
         id="path90"
         transform="translate(-14.167 -14.315)"
         d="M258.048,115.379l.879-1.268a3.844,3.844,0,0,0,2.27.929c.739,0,1.188-.3,1.188-.74,0-.409-.239-.609-.919-.729l-1.489-.26a1.844,1.844,0,0,1-1.719-1.879c0-1.359,1.039-2.209,2.779-2.209a4.75,4.75,0,0,1,2.868.92l-.869,1.249a3.34,3.34,0,0,0-2.089-.77c-.68,0-1.07.28-1.07.66,0,.36.23.54.789.639l1.4.24c1.309.22,2,.91,2,1.979,0,1.37-1.159,2.3-2.988,2.3A4.954,4.954,0,0,1,258.048,115.379Z"
         class="cls-4" />
      <path
         id="path92"
         transform="translate(-14.167 -14.315)"
         d="M264.808,113.761a2.585,2.585,0,0,1,2.6-2.669,2.532,2.532,0,0,1,2.538,2.729v.349H266.4a1.236,1.236,0,0,0,1.209.97,1.273,1.273,0,0,0,1.019-.43l1.07.89a3.006,3.006,0,0,1-2.169.829A2.666,2.666,0,0,1,264.808,113.761Zm3.638-.51a1.082,1.082,0,0,0-1.05-.9,1.014,1.014,0,0,0-1,.9Z"
         class="cls-4" />
      <path
         id="path94"
         transform="translate(-14.167 -14.315)"
         d="M271.637,114.77v-2.349h-1v-1.249h1v-1.43l1.619-.329v1.759h1.379v1.249h-1.379v2.029c0,.459.18.62.68.62a2.165,2.165,0,0,0,.659-.11v1.309a4.5,4.5,0,0,1-1.109.16C272.267,116.429,271.637,115.869,271.637,114.77Z"
         class="cls-4" />
      <path
         id="path96"
         transform="translate(-14.167 -14.315)"
         d="M278.6,113.9a5.219,5.219,0,0,1-2.5,4.676l-.859-.989a4.478,4.478,0,0,0,0-7.376l.859-.989A5.223,5.223,0,0,1,278.6,113.9Z"
         class="cls-4" />
      <path
         id="path98"
         transform="translate(-14.167 -14.315)"
         d="M282.138,109.333h3.418a2.286,2.286,0,1,1,0,4.558h-1.7v2.438h-1.719Zm3.108,3.188c.7,0,1.04-.379,1.04-.889s-.34-.88-1.03-.88h-1.4v1.769Z"
         class="cls-4" />
      <path
         id="path100"
         transform="translate(-14.167 -14.315)"
         d="M288.858,113.761a2.689,2.689,0,1,1,2.688,2.668A2.623,2.623,0,0,1,288.858,113.761Zm3.8,0a1.126,1.126,0,1,0-1.11,1.318A1.18,1.18,0,0,0,292.656,113.761Z"
         class="cls-4" />
      <path
         id="path102"
         transform="translate(-14.167 -14.315)"
         d="M295.038,113.741a2.486,2.486,0,0,1,2.4-2.6,1.806,1.806,0,0,1,1.38.62v-2.549l1.619-.25v7.366h-1.6v-.67a1.943,1.943,0,0,1-1.518.7A2.457,2.457,0,0,1,295.038,113.741Zm3.778.869v-1.739a1.317,1.317,0,0,0-.96-.4,1.275,1.275,0,0,0,0,2.549A1.254,1.254,0,0,0,298.816,114.61Z"
         class="cls-4" />
    </g>
    <g
       id="g110">
      <line
         id="line106"
         y2="42.52"
         x2="368.585"
         y1="79.69"
         x1="368.585"
         class="cls-6" />
      <polygon
         id="polygon108"
         points="372.325 78.596 368.585 85.072 364.845 78.596 372.325 78.596"
         class="cls-4" />
    </g>
    <g
       id="g218">
      <path
         id="path112"
         transform="translate(-14.167 -14.315)"
         d="M326.146,99.387H439.532V283.672H326.146Z"
         class="cls-2" />
      <g
         id="g148">
        <g
           id="g118">
          <rect
             id="rect114"
             height="27.347"
             width="84.039"
             y="113.952"
             x="326.653"
             class="cls-1" />
          <path
             id="path116"
             transform="translate(-14.167 -14.315)"
             d="M424.359,128.767v26.346H341.32V128.767h83.039m1-1H340.32v28.346h85.039V127.767Z"
             class="cls-3" />
        </g>
        <g
           id="g146">
          <path
             id="path120"
             transform="translate(-14.167 -14.315)"
             d="M352.448,139.7h1.229l1.4,3.639,1.389-3.639h1.18l-2.06,5.008h-1.1Z"
             class="cls-4" />
          <path
             id="path122"
             transform="translate(-14.167 -14.315)"
             d="M358.317,137.992a.7.7,0,1,1,.7.689A.693.693,0,0,1,358.317,137.992Zm.13,1.708h1.13v5.008h-1.13Z"
             class="cls-4" />
          <path
             id="path124"
             transform="translate(-14.167 -14.315)"
             d="M360.977,139.7h1.13v1.081a1.5,1.5,0,0,1,1.379-1.17,1.318,1.318,0,0,1,.489.1v.989a1.794,1.794,0,0,0-.619-.12,1.364,1.364,0,0,0-1.249.829v3.3h-1.13Z"
             class="cls-4" />
          <path
             id="path126"
             transform="translate(-14.167 -14.315)"
             d="M365.527,143.408V140.6h-1v-.9h1v-1.378l1.129-.241V139.7h1.389v.9h-1.389v2.558c0,.491.19.68.7.68a2.118,2.118,0,0,0,.68-.119v.949a3.554,3.554,0,0,1-.97.14C366.056,144.808,365.527,144.328,365.527,143.408Z"
             class="cls-4" />
          <path
             id="path128"
             transform="translate(-14.167 -14.315)"
             d="M368.907,141.39H372.4v.959h-3.488Z"
             class="cls-4" />
          <path
             id="path130"
             transform="translate(-14.167 -14.315)"
             d="M373.666,137.542l1.13-.2v7.366h-1.13Z"
             class="cls-4" />
          <path
             id="path132"
             transform="translate(-14.167 -14.315)"
             d="M375.927,143.269c0-.9.739-1.469,1.919-1.469a2.952,2.952,0,0,1,1.349.319v-.559c0-.66-.38-1-1.15-1a3.462,3.462,0,0,0-1.459.39l-.4-.82a4.948,4.948,0,0,1,2.078-.51c1.31,0,2.049.661,2.049,1.82v3.268H379.2v-.519a2.024,2.024,0,0,1-1.489.609A1.6,1.6,0,0,1,375.927,143.269Zm2.089.729a1.744,1.744,0,0,0,1.179-.42v-.809a2.578,2.578,0,0,0-1.15-.239c-.649,0-1.059.269-1.059.719S377.386,144,378.016,144Z"
             class="cls-4" />
          <path
             id="path134"
             transform="translate(-14.167 -14.315)"
             d="M381.647,143v-3.3h1.139v2.969a1.082,1.082,0,0,0,1.1,1.209,1.249,1.249,0,0,0,1.09-.6V139.7H386.1v5.008h-1.129V143.9a1.807,1.807,0,0,1-1.589.889A1.693,1.693,0,0,1,381.647,143Z"
             class="cls-4" />
          <path
             id="path136"
             transform="translate(-14.167 -14.315)"
             d="M387.506,139.7h1.13v.821a1.825,1.825,0,0,1,1.579-.9,1.69,1.69,0,0,1,1.749,1.789v3.3h-1.139V141.73a1.078,1.078,0,0,0-1.1-1.2,1.247,1.247,0,0,0-1.089.609v3.568h-1.13Z"
             class="cls-4" />
          <path
             id="path138"
             transform="translate(-14.167 -14.315)"
             d="M393.1,142.209a2.527,2.527,0,0,1,2.529-2.589,2.71,2.71,0,0,1,2,.85l-.7.73a1.651,1.651,0,0,0-1.258-.589,1.608,1.608,0,0,0,0,3.2,1.675,1.675,0,0,0,1.258-.58l.7.72a2.706,2.706,0,0,1-2,.849A2.521,2.521,0,0,1,393.1,142.209Z"
             class="cls-4" />
          <path
             id="path140"
             transform="translate(-14.167 -14.315)"
             d="M398.556,137.542l1.13-.2v3.179a1.825,1.825,0,0,1,1.579-.9,1.691,1.691,0,0,1,1.749,1.789v3.3h-1.14V141.73a1.077,1.077,0,0,0-1.1-1.2,1.247,1.247,0,0,0-1.089.609v3.568h-1.13Z"
             class="cls-4" />
          <path
             id="path142"
             transform="translate(-14.167 -14.315)"
             d="M404.146,142.209a2.474,2.474,0,0,1,2.438-2.589,2.407,2.407,0,0,1,2.37,2.589v.27h-3.7a1.534,1.534,0,0,0,1.5,1.4,1.662,1.662,0,0,0,1.19-.47l.74.67a2.9,2.9,0,0,1-1.979.73A2.542,2.542,0,0,1,404.146,142.209Zm3.738-.429a1.362,1.362,0,0,0-1.309-1.24,1.345,1.345,0,0,0-1.309,1.24Z"
             class="cls-4" />
          <path
             id="path144"
             transform="translate(-14.167 -14.315)"
             d="M410.106,139.7h1.13v1.081a1.5,1.5,0,0,1,1.379-1.17,1.318,1.318,0,0,1,.489.1v.989a1.794,1.794,0,0,0-.619-.12,1.364,1.364,0,0,0-1.249.829v3.3h-1.13Z"
             class="cls-4" />
        </g>
      </g>
      <g
         id="g174">
        <g
           id="g154">
          <rect
             id="rect150"
             height="27.346"
             width="84.039"
             y="170.645"
             x="326.653"
             class="cls-1" />
          <path
             id="path152"
             transform="translate(-14.167 -14.315)"
             d="M424.359,185.46v26.346h-83.04V185.46h83.04m1-1h-85.04v28.346h85.04V184.46Z"
             class="cls-3" />
        </g>
        <g
           id="g172">
          <path
             id="path156"
             transform="translate(-14.167 -14.315)"
             d="M366.907,194.236l1.129-.2V201.4h-1.129Z"
             class="cls-4" />
          <path
             id="path158"
             transform="translate(-14.167 -14.315)"
             d="M369.287,194.685a.7.7,0,0,1,.7-.7.708.708,0,0,1,.7.7.7.7,0,0,1-.7.689A.692.692,0,0,1,369.287,194.685Zm.129,1.709h1.129V201.4h-1.129Z"
             class="cls-4" />
          <path
             id="path160"
             transform="translate(-14.167 -14.315)"
             d="M371.947,194.265l1.129-.19v2.989a1.947,1.947,0,0,1,1.539-.71,2.562,2.562,0,0,1-.07,5.1,1.9,1.9,0,0,1-1.489-.689v.641h-1.109Zm3.817,4.638a1.514,1.514,0,0,0-1.489-1.6,1.484,1.484,0,0,0-1.2.559v2.089a1.542,1.542,0,0,0,1.2.559A1.51,1.51,0,0,0,375.764,198.9Z"
             class="cls-4" />
          <path
             id="path162"
             transform="translate(-14.167 -14.315)"
             d="M377.466,196.394h1.23l1.4,3.639,1.39-3.639h1.179l-2.059,5.008h-1.1Z"
             class="cls-4" />
          <path
             id="path164"
             transform="translate(-14.167 -14.315)"
             d="M383.336,194.685a.7.7,0,1,1,.7.689A.693.693,0,0,1,383.336,194.685Zm.13,1.709H384.6V201.4h-1.129Z"
             class="cls-4" />
          <path
             id="path166"
             transform="translate(-14.167 -14.315)"
             d="M386,196.394h1.128v1.08a1.505,1.505,0,0,1,1.379-1.17,1.32,1.32,0,0,1,.491.1v.99a1.806,1.806,0,0,0-.621-.121,1.365,1.365,0,0,0-1.249.83v3.3H386Z"
             class="cls-4" />
          <path
             id="path168"
             transform="translate(-14.167 -14.315)"
             d="M390.545,200.1v-2.809h-1v-.9h1v-1.379l1.13-.24v1.619h1.389v.9h-1.389v2.559c0,.489.19.68.7.68a2.124,2.124,0,0,0,.68-.121v.95a3.593,3.593,0,0,1-.97.14C391.076,201.5,390.545,201.021,390.545,200.1Z"
             class="cls-4" />
          <path
             id="path170"
             transform="translate(-14.167 -14.315)"
             d="M393.836,198.9a2.426,2.426,0,0,1,2.339-2.549,1.915,1.915,0,0,1,1.459.649v-2.767l1.129-.2V201.4h-1.119v-.66a1.954,1.954,0,0,1-1.549.708A2.394,2.394,0,0,1,393.836,198.9Zm3.8,1.049v-2.109a1.551,1.551,0,0,0-1.189-.539,1.6,1.6,0,0,0,0,3.2A1.47,1.47,0,0,0,397.634,199.952Z"
             class="cls-4" />
        </g>
      </g>
      <g
         id="g188">
        <g
           id="g180">
          <rect
             id="rect176"
             height="27.347"
             width="84.04"
             y="227.337"
             x="326.652"
             class="cls-1" />
          <path
             id="path178"
             transform="translate(-14.167 -14.315)"
             d="M424.358,242.153V268.5H341.319V242.153h83.039m1-1H340.319V269.5h85.039V241.153Z"
             class="cls-3" />
        </g>
        <g
           id="g186">
          <path
             id="path182"
             transform="translate(-14.167 -14.315)"
             d="M374.967,251.1h1.289l2.149,5.777,2.169-5.777h1.239l-2.738,7h-1.39Z"
             class="cls-4" />
          <path
             id="path184"
             transform="translate(-14.167 -14.315)"
             d="M382.716,251.1h1.559l2.05,4.248,2.038-4.248h1.559v7h-1.13v-5.477l-2.478,4.978-2.488-5.008v5.507h-1.11Z"
             class="cls-4" />
        </g>
      </g>
      <g
         id="g196">
        <line
           id="line190"
           y2="147.18"
           x2="368.671"
           y1="164.762"
           x1="368.671"
           class="cls-6" />
        <polygon
           id="polygon192"
           points="372.411 163.668 368.671 170.145 364.932 163.668 372.411 163.668"
           class="cls-4" />
        <polygon
           id="polygon194"
           points="372.411 148.275 368.671 141.798 364.932 148.275 372.411 148.275"
           class="cls-4" />
      </g>
      <g
         id="g204">
        <line
           id="line198"
           y2="203.873"
           x2="368.672"
           y1="221.455"
           x1="368.672"
           class="cls-6" />
        <polygon
           id="polygon200"
           points="372.412 220.361 368.672 226.838 364.932 220.361 372.412 220.361"
           class="cls-4" />
        <polygon
           id="polygon202"
           points="372.412 204.968 368.672 198.491 364.932 204.968 372.412 204.968"
           class="cls-4" />
      </g>
      <g
         id="g216">
        <path
           id="path206"
           transform="translate(-14.167 -14.315)"
           d="M340.337,109.333h1.86l1.848,5.207,1.879-5.207h1.789l-2.728,7h-1.959Z"
           class="cls-4" />
        <path
           id="path208"
           transform="translate(-14.167 -14.315)"
           d="M348.517,109.333h2.159l1.689,3.358,1.679-3.358H356.2v7h-1.62v-4.748l-2.238,4.248-2.249-4.288v4.788h-1.579Z"
           class="cls-4" />
        <path
           id="path210"
           transform="translate(-14.167 -14.315)"
           d="M359.917,109.333h3.418a2.286,2.286,0,1,1,0,4.558h-1.7v2.438h-1.719Zm3.108,3.188c.7,0,1.04-.379,1.04-.889s-.34-.88-1.029-.88h-1.4v1.769Z"
           class="cls-4" />
        <path
           id="path212"
           transform="translate(-14.167 -14.315)"
           d="M366.637,113.761a2.689,2.689,0,1,1,2.689,2.668A2.624,2.624,0,0,1,366.637,113.761Zm3.8,0a1.126,1.126,0,1,0-1.109,1.318A1.18,1.18,0,0,0,370.435,113.761Z"
           class="cls-4" />
        <path
           id="path214"
           transform="translate(-14.167 -14.315)"
           d="M372.817,113.741a2.486,2.486,0,0,1,2.4-2.6,1.8,1.8,0,0,1,1.38.62v-2.549l1.619-.25v7.366h-1.6v-.67a1.945,1.945,0,0,1-1.519.7A2.457,2.457,0,0,1,372.817,113.741Zm3.778.869v-1.739a1.317,1.317,0,0,0-.96-.4,1.275,1.275,0,0,0,0,2.549A1.254,1.254,0,0,0,376.6,114.61Z"
           class="cls-4" />
      </g>
    </g>
    <g
       id="g336">
      <path
         id="path220"
         transform="translate(-14.167 -14.315)"
         d="M453.532,99.387H566.918V283.672H453.532Z"
         class="cls-2" />
      <g
         id="g250">
        <g
           id="g226">
          <rect
             id="rect222"
             height="27.347"
             width="84.04"
             y="113.952"
             x="454.037"
             class="cls-7" />
          <path
             id="path224"
             transform="translate(-14.167 -14.315)"
             d="M551.744,128.767v26.346H468.705V128.767h83.039m1-1H467.705v28.346h85.039V127.767Z"
             class="cls-5" />
        </g>
        <g
           id="g248">
          <path
             id="path228"
             transform="translate(-14.167 -14.315)"
             d="M485.528,142.209a2.526,2.526,0,0,1,2.528-2.589,2.712,2.712,0,0,1,2,.85l-.7.73a1.656,1.656,0,0,0-1.26-.589,1.608,1.608,0,0,0,0,3.2,1.681,1.681,0,0,0,1.26-.58l.7.72a2.707,2.707,0,0,1-2,.849A2.52,2.52,0,0,1,485.528,142.209Z"
             class="cls-4" />
          <path
             id="path230"
             transform="translate(-14.167 -14.315)"
             d="M490.757,142.209a2.515,2.515,0,1,1,2.519,2.589A2.5,2.5,0,0,1,490.757,142.209Zm3.918,0a1.42,1.42,0,1,0-1.4,1.629A1.486,1.486,0,0,0,494.675,142.209Z"
             class="cls-4" />
          <path
             id="path232"
             transform="translate(-14.167 -14.315)"
             d="M496.957,139.7h1.129v.821a1.827,1.827,0,0,1,1.58-.9,1.691,1.691,0,0,1,1.749,1.789v3.3h-1.14V141.73a1.078,1.078,0,0,0-1.1-1.2,1.249,1.249,0,0,0-1.09.609v3.568h-1.129Z"
             class="cls-4" />
          <path
             id="path234"
             transform="translate(-14.167 -14.315)"
             d="M503.4,143.408V140.6h-1v-.9h1v-1.378l1.129-.241V139.7h1.39v.9h-1.39v2.558c0,.491.19.68.7.68a2.118,2.118,0,0,0,.68-.119v.949a3.554,3.554,0,0,1-.97.14C503.926,144.808,503.4,144.328,503.4,143.408Z"
             class="cls-4" />
          <path
             id="path236"
             transform="translate(-14.167 -14.315)"
             d="M506.658,143.269c0-.9.739-1.469,1.919-1.469a2.948,2.948,0,0,1,1.348.319v-.559c0-.66-.38-1-1.149-1a3.462,3.462,0,0,0-1.459.39l-.4-.82a4.953,4.953,0,0,1,2.079-.51c1.309,0,2.048.661,2.048,1.82v3.268h-1.119v-.519a2.022,2.022,0,0,1-1.489.609A1.594,1.594,0,0,1,506.658,143.269Zm2.089.729a1.741,1.741,0,0,0,1.178-.42v-.809a2.571,2.571,0,0,0-1.149-.239c-.65,0-1.06.269-1.06.719S508.117,144,508.747,144Z"
             class="cls-4" />
          <path
             id="path238"
             transform="translate(-14.167 -14.315)"
             d="M512.277,137.992a.7.7,0,0,1,.7-.7.709.709,0,0,1,.7.7.7.7,0,0,1-.7.689A.693.693,0,0,1,512.277,137.992Zm.13,1.708h1.129v5.008h-1.129Z"
             class="cls-4" />
          <path
             id="path240"
             transform="translate(-14.167 -14.315)"
             d="M514.937,139.7h1.129v.821a1.826,1.826,0,0,1,1.579-.9,1.691,1.691,0,0,1,1.749,1.789v3.3h-1.14V141.73a1.077,1.077,0,0,0-1.1-1.2,1.249,1.249,0,0,0-1.09.609v3.568h-1.129Z"
             class="cls-4" />
          <path
             id="path242"
             transform="translate(-14.167 -14.315)"
             d="M520.527,142.209a2.473,2.473,0,0,1,2.438-2.589,2.407,2.407,0,0,1,2.368,2.589v.27h-3.7a1.533,1.533,0,0,0,1.5,1.4,1.666,1.666,0,0,0,1.19-.47l.739.67a2.894,2.894,0,0,1-1.979.73A2.541,2.541,0,0,1,520.527,142.209Zm3.737-.429a1.362,1.362,0,0,0-1.308-1.24,1.346,1.346,0,0,0-1.31,1.24Z"
             class="cls-4" />
          <path
             id="path244"
             transform="translate(-14.167 -14.315)"
             d="M526.487,139.7h1.129v1.081a1.5,1.5,0,0,1,1.379-1.17,1.319,1.319,0,0,1,.49.1v.989a1.8,1.8,0,0,0-.62-.12,1.365,1.365,0,0,0-1.249.829v3.3h-1.129Z"
             class="cls-4" />
          <path
             id="path246"
             transform="translate(-14.167 -14.315)"
             d="M533.576,138.862l-1.24.529v-.97l1.64-.709h.69v7h-1.09Z"
             class="cls-4" />
        </g>
      </g>
      <g
         id="g280">
        <g
           id="g256">
          <rect
             id="rect252"
             height="27.346"
             width="84.039"
             y="170.645"
             x="454.037"
             class="cls-7" />
          <path
             id="path254"
             transform="translate(-14.167 -14.315)"
             d="M551.744,185.46v26.346H468.705V185.46h83.039m1-1H467.705v28.346h85.039V184.46Z"
             class="cls-5" />
        </g>
        <g
           id="g278">
          <path
             id="path258"
             transform="translate(-14.167 -14.315)"
             d="M484.387,198.9a2.527,2.527,0,0,1,2.529-2.589,2.7,2.7,0,0,1,2,.849l-.7.73a1.652,1.652,0,0,0-1.259-.59,1.608,1.608,0,0,0,0,3.2,1.678,1.678,0,0,0,1.259-.579l.7.719a2.7,2.7,0,0,1-2,.85A2.52,2.52,0,0,1,484.387,198.9Z"
             class="cls-4" />
          <path
             id="path260"
             transform="translate(-14.167 -14.315)"
             d="M489.618,198.9a2.515,2.515,0,1,1,2.518,2.588A2.494,2.494,0,0,1,489.618,198.9Zm3.918,0a1.42,1.42,0,1,0-1.4,1.629A1.486,1.486,0,0,0,493.536,198.9Z"
             class="cls-4" />
          <path
             id="path262"
             transform="translate(-14.167 -14.315)"
             d="M495.817,196.394h1.13v.819a1.822,1.822,0,0,1,1.579-.9,1.69,1.69,0,0,1,1.749,1.789v3.3h-1.14v-2.979a1.078,1.078,0,0,0-1.1-1.2,1.246,1.246,0,0,0-1.089.61V201.4h-1.13Z"
             class="cls-4" />
          <path
             id="path264"
             transform="translate(-14.167 -14.315)"
             d="M502.256,200.1v-2.809h-1v-.9h1v-1.38l1.13-.239v1.619h1.389v.9h-1.389v2.559c0,.489.19.68.7.68a2.124,2.124,0,0,0,.68-.121v.95a3.593,3.593,0,0,1-.97.14C502.787,201.5,502.256,201.021,502.256,200.1Z"
             class="cls-4" />
          <path
             id="path266"
             transform="translate(-14.167 -14.315)"
             d="M505.517,199.962c0-.9.739-1.47,1.919-1.47a2.936,2.936,0,0,1,1.35.321v-.561c0-.659-.38-1-1.15-1a3.459,3.459,0,0,0-1.459.39l-.4-.819a4.953,4.953,0,0,1,2.079-.51c1.31,0,2.049.659,2.049,1.819V201.4h-1.119v-.52a2.024,2.024,0,0,1-1.49.61A1.6,1.6,0,0,1,505.517,199.962Zm2.089.73a1.744,1.744,0,0,0,1.18-.42v-.81a2.581,2.581,0,0,0-1.15-.24c-.649,0-1.059.27-1.059.72S506.976,200.692,507.606,200.692Z"
             class="cls-4" />
          <path
             id="path268"
             transform="translate(-14.167 -14.315)"
             d="M511.136,194.685a.7.7,0,1,1,.7.689A.693.693,0,0,1,511.136,194.685Zm.13,1.709h1.13V201.4h-1.13Z"
             class="cls-4" />
          <path
             id="path270"
             transform="translate(-14.167 -14.315)"
             d="M513.8,196.394h1.13v.819a1.823,1.823,0,0,1,1.579-.9,1.689,1.689,0,0,1,1.749,1.789v3.3h-1.139v-2.979a1.079,1.079,0,0,0-1.1-1.2,1.246,1.246,0,0,0-1.089.61V201.4H513.8Z"
             class="cls-4" />
          <path
             id="path272"
             transform="translate(-14.167 -14.315)"
             d="M519.386,198.9a2.473,2.473,0,0,1,2.439-2.589,2.407,2.407,0,0,1,2.369,2.589v.269h-3.7a1.533,1.533,0,0,0,1.5,1.4,1.666,1.666,0,0,0,1.189-.47l.74.669a2.9,2.9,0,0,1-1.979.73A2.542,2.542,0,0,1,519.386,198.9Zm3.738-.43a1.36,1.36,0,0,0-1.309-1.239,1.344,1.344,0,0,0-1.309,1.239Z"
             class="cls-4" />
          <path
             id="path274"
             transform="translate(-14.167 -14.315)"
             d="M525.346,196.394h1.13v1.079a1.5,1.5,0,0,1,1.379-1.169,1.318,1.318,0,0,1,.489.1v.989a1.813,1.813,0,0,0-.619-.12,1.362,1.362,0,0,0-1.249.83v3.3h-1.13Z"
             class="cls-4" />
          <path
             id="path276"
             transform="translate(-14.167 -14.315)"
             d="M531.336,200.612l2.869-3a1.854,1.854,0,0,0,.679-1.339,1.136,1.136,0,0,0-1.268-1.02,2.512,2.512,0,0,0-1.82.85l-.62-.75a3.562,3.562,0,0,1,2.459-1.059c1.369,0,2.309.78,2.309,1.919a2.653,2.653,0,0,1-.989,1.959l-2.229,2.3,3.348-.01v.94h-4.738Z"
             class="cls-4" />
        </g>
      </g>
      <g
         id="g310">
        <g
           id="g286">
          <rect
             id="rect282"
             height="27.347"
             width="84.039"
             y="227.337"
             x="454.037"
             class="cls-7" />
          <path
             id="path284"
             transform="translate(-14.167 -14.315)"
             d="M551.744,242.153V268.5H468.7V242.153h83.04m1-1H467.7V269.5h85.04V241.153Z"
             class="cls-5" />
        </g>
        <g
           id="g308">
          <path
             id="path288"
             transform="translate(-14.167 -14.315)"
             d="M484.382,255.6a2.526,2.526,0,0,1,2.529-2.588,2.708,2.708,0,0,1,2,.85l-.7.728a1.661,1.661,0,0,0-1.259-.589,1.608,1.608,0,0,0,0,3.2,1.682,1.682,0,0,0,1.259-.58l.7.719a2.708,2.708,0,0,1-2,.85A2.521,2.521,0,0,1,484.382,255.6Z"
             class="cls-4" />
          <path
             id="path290"
             transform="translate(-14.167 -14.315)"
             d="M489.612,255.6a2.515,2.515,0,1,1,2.518,2.589A2.495,2.495,0,0,1,489.612,255.6Zm3.918,0a1.42,1.42,0,1,0-1.4,1.629A1.486,1.486,0,0,0,493.53,255.6Z"
             class="cls-4" />
          <path
             id="path292"
             transform="translate(-14.167 -14.315)"
             d="M495.812,253.087h1.129v.82a1.825,1.825,0,0,1,1.579-.9,1.69,1.69,0,0,1,1.749,1.789v3.3h-1.14v-2.978a1.078,1.078,0,0,0-1.1-1.2,1.247,1.247,0,0,0-1.09.611v3.567h-1.129Z"
             class="cls-4" />
          <path
             id="path294"
             transform="translate(-14.167 -14.315)"
             d="M502.251,256.794v-2.808h-1v-.9h1v-1.38l1.129-.239v1.619h1.39v.9h-1.39v2.558c0,.49.191.68.7.68a2.117,2.117,0,0,0,.679-.119v.949a3.554,3.554,0,0,1-.969.141C502.781,258.2,502.251,257.714,502.251,256.794Z"
             class="cls-4" />
          <path
             id="path296"
             transform="translate(-14.167 -14.315)"
             d="M505.512,256.656c0-.9.739-1.47,1.919-1.47a2.939,2.939,0,0,1,1.349.319v-.559c0-.66-.38-1-1.15-1a3.459,3.459,0,0,0-1.459.389l-.4-.819a4.948,4.948,0,0,1,2.078-.51c1.31,0,2.049.659,2.049,1.818v3.269H508.78v-.519a2.027,2.027,0,0,1-1.489.609A1.6,1.6,0,0,1,505.512,256.656Zm2.089.728a1.739,1.739,0,0,0,1.179-.42v-.808a2.579,2.579,0,0,0-1.15-.241c-.649,0-1.059.27-1.059.72S506.971,257.384,507.6,257.384Z"
             class="cls-4" />
          <path
             id="path298"
             transform="translate(-14.167 -14.315)"
             d="M511.131,251.378a.7.7,0,0,1,.7-.7.709.709,0,0,1,.7.7.7.7,0,0,1-.7.69A.694.694,0,0,1,511.131,251.378Zm.13,1.709h1.129v5.007h-1.129Z"
             class="cls-4" />
          <path
             id="path300"
             transform="translate(-14.167 -14.315)"
             d="M513.791,253.087h1.129v.82a1.825,1.825,0,0,1,1.579-.9,1.69,1.69,0,0,1,1.75,1.789v3.3h-1.14v-2.978a1.079,1.079,0,0,0-1.1-1.2,1.247,1.247,0,0,0-1.09.611v3.567h-1.129Z"
             class="cls-4" />
          <path
             id="path302"
             transform="translate(-14.167 -14.315)"
             d="M519.381,255.6a2.472,2.472,0,0,1,2.439-2.588,2.407,2.407,0,0,1,2.369,2.588v.27h-3.7a1.532,1.532,0,0,0,1.5,1.4,1.664,1.664,0,0,0,1.189-.471l.739.67a2.892,2.892,0,0,1-1.978.731A2.542,2.542,0,0,1,519.381,255.6Zm3.738-.43a1.362,1.362,0,0,0-1.309-1.238,1.344,1.344,0,0,0-1.31,1.238Z"
             class="cls-4" />
          <path
             id="path304"
             transform="translate(-14.167 -14.315)"
             d="M525.341,253.087h1.129v1.079A1.5,1.5,0,0,1,527.849,253a1.335,1.335,0,0,1,.49.1v.989a1.818,1.818,0,0,0-.62-.12,1.366,1.366,0,0,0-1.249.83v3.3h-1.129Z"
             class="cls-4" />
          <path
             id="path306"
             transform="translate(-14.167 -14.315)"
             d="M532.051,253.087h1.11l-.161.749a2.1,2.1,0,0,1,1.61-.809,1.4,1.4,0,0,1,1.4,1.9l-.679,3.169h-1.11l.63-2.9c.17-.76-.18-1.28-.869-1.28a1.476,1.476,0,0,0-1.109.55l-.79,3.628h-1.12Z"
             class="cls-4" />
        </g>
      </g>
      <g
         id="g334">
        <path
           id="path312"
           transform="translate(-14.167 -14.315)"
           d="M468.153,112.831a3.618,3.618,0,1,1,3.618,3.608A3.577,3.577,0,0,1,468.153,112.831Zm5.467,0a1.862,1.862,0,1,0-1.849,2.078A1.931,1.931,0,0,0,473.62,112.831Z"
           class="cls-4" />
        <path
           id="path314"
           transform="translate(-14.167 -14.315)"
           d="M477.152,114.77v-2.349h-1v-1.249h1v-1.43l1.619-.329v1.759h1.38v1.249h-1.38v2.029c0,.459.181.62.68.62a2.17,2.17,0,0,0,.66-.11v1.309a4.5,4.5,0,0,1-1.11.16C477.782,116.429,477.152,115.869,477.152,114.77Z"
           class="cls-4" />
        <path
           id="path316"
           transform="translate(-14.167 -14.315)"
           d="M481.052,109.213l1.619-.25v3.048a1.9,1.9,0,0,1,1.629-.919,1.667,1.667,0,0,1,1.709,1.759v3.478H484.39v-3.008a.859.859,0,0,0-.859-.959,1.042,1.042,0,0,0-.86.429v3.538h-1.619Z"
           class="cls-4" />
        <path
           id="path318"
           transform="translate(-14.167 -14.315)"
           d="M487,113.761a2.585,2.585,0,0,1,2.6-2.669,2.532,2.532,0,0,1,2.539,2.729v.349h-3.549a1.239,1.239,0,0,0,1.21.97,1.278,1.278,0,0,0,1.02-.43l1.069.89a3.009,3.009,0,0,1-2.169.829A2.667,2.667,0,0,1,487,113.761Zm3.638-.51a1.081,1.081,0,0,0-1.049-.9,1.016,1.016,0,0,0-1,.9Z"
           class="cls-4" />
        <path
           id="path320"
           transform="translate(-14.167 -14.315)"
           d="M493.153,111.172h1.618v1.169c.33-.859.79-1.269,1.4-1.269a1.1,1.1,0,0,1,.54.13v1.389a1.785,1.785,0,0,0-.759-.16,1.427,1.427,0,0,0-1.18.64v3.258h-1.618Z"
           class="cls-4" />
        <path
           id="path322"
           transform="translate(-14.167 -14.315)"
           d="M499.873,109.333h3.418a2.286,2.286,0,1,1,0,4.558h-1.7v2.438h-1.718Zm3.107,3.188c.7,0,1.04-.379,1.04-.889s-.34-.88-1.029-.88h-1.4v1.769Z"
           class="cls-4" />
        <path
           id="path324"
           transform="translate(-14.167 -14.315)"
           d="M506.592,113.761a2.689,2.689,0,1,1,2.689,2.668A2.624,2.624,0,0,1,506.592,113.761Zm3.8,0a1.126,1.126,0,1,0-1.109,1.318A1.18,1.18,0,0,0,510.39,113.761Z"
           class="cls-4" />
        <path
           id="path326"
           transform="translate(-14.167 -14.315)"
           d="M512.772,113.741a2.487,2.487,0,0,1,2.4-2.6,1.8,1.8,0,0,1,1.38.62v-2.549l1.619-.25v7.366h-1.6v-.67a1.945,1.945,0,0,1-1.519.7A2.457,2.457,0,0,1,512.772,113.741Zm3.778.869v-1.739a1.317,1.317,0,0,0-.96-.4,1.275,1.275,0,0,0,0,2.549A1.254,1.254,0,0,0,516.55,114.61Z"
           class="cls-4" />
        <path
           id="path328"
           transform="translate(-14.167 -14.315)"
           d="M519.413,113.9a5.221,5.221,0,0,1,2.5-4.678l.859.989a4.478,4.478,0,0,0,0,7.376l-.859.989A5.216,5.216,0,0,1,519.413,113.9Z"
           class="cls-4" />
        <path
           id="path330"
           transform="translate(-14.167 -14.315)"
           d="M523.312,115.8l.71-1.079a3.336,3.336,0,0,0,1.659.52c.459,0,.739-.161.739-.42,0-.2-.149-.31-.479-.37l-.989-.18c-1-.19-1.52-.7-1.52-1.5,0-1.049.81-1.679,2.159-1.679a4.148,4.148,0,0,1,2.1.59l-.74,1.029a2.914,2.914,0,0,0-1.479-.439c-.389,0-.62.13-.62.349s.13.3.53.37l.969.18c1.02.19,1.55.709,1.55,1.489a1.984,1.984,0,0,1-2.219,1.769A4.216,4.216,0,0,1,523.312,115.8Z"
           class="cls-4" />
        <path
           id="path332"
           transform="translate(-14.167 -14.315)"
           d="M531.9,113.9a5.218,5.218,0,0,1-2.5,4.676l-.861-.989a4.476,4.476,0,0,0,0-7.376l.861-.989A5.223,5.223,0,0,1,531.9,113.9Z"
           class="cls-4" />
      </g>
    </g>
    <g
       id="g348">
      <path
         id="path338"
         transform="translate(-14.167 -14.315)"
         d="M199.366,293.533h1.619l3.108,4.238-.03-4.238h1.619v7h-1.518l-3.209-4.378.03,4.378h-1.619Z"
         class="cls-4" />
      <path
         id="path340"
         transform="translate(-14.167 -14.315)"
         d="M206.866,297.961a2.689,2.689,0,1,1,2.688,2.669A2.623,2.623,0,0,1,206.866,297.961Zm3.8,0a1.126,1.126,0,1,0-1.11,1.32A1.18,1.18,0,0,0,210.664,297.961Z"
         class="cls-4" />
      <path
         id="path342"
         transform="translate(-14.167 -14.315)"
         d="M213.046,297.941a2.486,2.486,0,0,1,2.4-2.6,1.8,1.8,0,0,1,1.379.619v-2.549l1.619-.25v7.367h-1.6v-.669a1.949,1.949,0,0,1-1.519.7A2.458,2.458,0,0,1,213.046,297.941Zm3.778.869v-1.738a1.314,1.314,0,0,0-.959-.4,1.275,1.275,0,0,0,0,2.549A1.254,1.254,0,0,0,216.824,298.81Z"
         class="cls-4" />
      <path
         id="path344"
         transform="translate(-14.167 -14.315)"
         d="M219.476,297.961a2.585,2.585,0,0,1,2.6-2.669,2.532,2.532,0,0,1,2.538,2.729v.349h-3.548a1.236,1.236,0,0,0,1.209.97,1.27,1.27,0,0,0,1.019-.43l1.07.89a3,3,0,0,1-2.169.83A2.667,2.667,0,0,1,219.476,297.961Zm3.638-.51a1.082,1.082,0,0,0-1.05-.9,1.014,1.014,0,0,0-1,.9Z"
         class="cls-4" />
      <path
         id="path346"
         transform="translate(-14.167 -14.315)"
         d="M225.206,300l.71-1.078a3.346,3.346,0,0,0,1.659.52c.46,0,.739-.16.739-.42,0-.2-.149-.311-.48-.37l-.989-.181c-1-.189-1.519-.7-1.519-1.5,0-1.05.809-1.68,2.159-1.68a4.142,4.142,0,0,1,2.1.59l-.74,1.029a2.921,2.921,0,0,0-1.478-.439c-.39,0-.62.13-.62.35s.129.3.53.369l.969.18c1.019.191,1.549.71,1.549,1.49a1.984,1.984,0,0,1-2.218,1.769A4.212,4.212,0,0,1,225.206,300Z"
         class="cls-4" />
    </g>
    <g
       id="g354">
      <polyline
         id="polyline350"
         points="368.585 42.52 368.585 63.796 241.041 63.796 241.041 79.69"
         class="cls-6" />
      <polygon
         id="polygon352"
         points="237.302 78.596 241.041 85.072 244.781 78.596 237.302 78.596"
         class="cls-4" />
    </g>
    <g
       id="g360">
      <polyline
         id="polyline356"
         points="368.585 42.52 368.585 63.796 496.177 63.796 496.177 79.69"
         class="cls-6" />
      <polygon
         id="polygon358"
         points="492.438 78.596 496.177 85.072 499.917 78.596 492.438 78.596"
         class="cls-4" />
    </g>
    <g
       id="g368">
      <line
         id="line362"
         y2="127.625"
         x2="289.015"
         y1="127.625"
         x1="320.768"
         class="cls-6" />
      <polygon
         id="polygon364"
         points="319.674 123.885 326.151 127.625 319.674 131.365 319.674 123.885"
         class="cls-4" />
      <polygon
         id="polygon366"
         points="290.109 123.885 283.633 127.625 290.109 131.365 290.109 123.885"
         class="cls-4" />
    </g>
  </g>
  <g
     data-name="Layer 5"
     id="Layer_5">
    <rect
       id="rect371"
       height="226.805"
       width="141.732"
       y="70.899"
       class="cls-1" />
    <g
       id="g403">
      <path
         id="path373"
         transform="translate(-14.167 -14.315)"
         d="M28.791,297.032a3.673,3.673,0,0,1,6.526-2.249l-1.159,1.1a2.041,2.041,0,0,0-1.68-.93,2.087,2.087,0,0,0,0,4.159,2.041,2.041,0,0,0,1.68-.93l1.159,1.1a3.674,3.674,0,0,1-6.526-2.249Z"
         class="cls-4" />
      <path
         id="path375"
         transform="translate(-14.167 -14.315)"
         d="M36.17,293.413l1.619-.25v7.367H36.17Z"
         class="cls-4" />
      <path
         id="path377"
         transform="translate(-14.167 -14.315)"
         d="M39.01,298.851v-3.479h1.619v3.008a.859.859,0,0,0,.86.96,1.042,1.042,0,0,0,.859-.43v-3.538h1.619v5.158H42.348v-.839a1.905,1.905,0,0,1-1.629.919A1.667,1.667,0,0,1,39.01,298.851Z"
         class="cls-4" />
      <path
         id="path379"
         transform="translate(-14.167 -14.315)"
         d="M44.81,300l.71-1.078a3.346,3.346,0,0,0,1.659.52c.459,0,.739-.16.739-.42,0-.2-.149-.311-.479-.37l-.989-.181c-1-.189-1.52-.7-1.52-1.5,0-1.05.81-1.68,2.159-1.68a4.148,4.148,0,0,1,2.1.59l-.74,1.029a2.924,2.924,0,0,0-1.479-.439c-.389,0-.62.13-.62.35s.13.3.53.369l.969.18c1.02.191,1.55.71,1.55,1.49a1.984,1.984,0,0,1-2.219,1.769A4.216,4.216,0,0,1,44.81,300Z"
         class="cls-4" />
      <path
         id="path381"
         transform="translate(-14.167 -14.315)"
         d="M51.019,298.97v-2.348h-1v-1.25h1v-1.429l1.619-.329v1.758h1.38v1.25h-1.38v2.029c0,.46.181.62.68.62a2.178,2.178,0,0,0,.66-.111v1.31a4.5,4.5,0,0,1-1.109.16C51.649,300.63,51.019,300.07,51.019,298.97Z"
         class="cls-4" />
      <path
         id="path383"
         transform="translate(-14.167 -14.315)"
         d="M54.69,297.961a2.585,2.585,0,0,1,2.6-2.669,2.532,2.532,0,0,1,2.539,2.729v.349H56.279a1.238,1.238,0,0,0,1.21.97,1.273,1.273,0,0,0,1.019-.43l1.07.89a3.006,3.006,0,0,1-2.169.83A2.667,2.667,0,0,1,54.69,297.961Zm3.638-.51a1.082,1.082,0,0,0-1.049-.9,1.015,1.015,0,0,0-1,.9Z"
         class="cls-4" />
      <path
         id="path385"
         transform="translate(-14.167 -14.315)"
         d="M60.84,295.372h1.618v1.17c.331-.859.791-1.269,1.4-1.269a1.1,1.1,0,0,1,.54.13v1.389a1.775,1.775,0,0,0-.76-.16,1.43,1.43,0,0,0-1.18.639v3.259H60.84Z"
         class="cls-4" />
      <path
         id="path387"
         transform="translate(-14.167 -14.315)"
         d="M66.99,300l.71-1.078a3.346,3.346,0,0,0,1.659.52c.459,0,.739-.16.739-.42,0-.2-.149-.311-.479-.37l-.99-.181c-1-.189-1.519-.7-1.519-1.5,0-1.05.809-1.68,2.159-1.68a4.148,4.148,0,0,1,2.1.59l-.741,1.029a2.921,2.921,0,0,0-1.478-.439c-.39,0-.62.13-.62.35s.13.3.53.369l.969.18c1.019.191,1.55.71,1.55,1.49a1.985,1.985,0,0,1-2.219,1.769A4.212,4.212,0,0,1,66.99,300Z"
         class="cls-4" />
      <path
         id="path389"
         transform="translate(-14.167 -14.315)"
         d="M72.29,297.961a2.585,2.585,0,0,1,2.6-2.669,2.532,2.532,0,0,1,2.539,2.729v.349H73.878a1.24,1.24,0,0,0,1.21.97,1.275,1.275,0,0,0,1.02-.43l1.069.89a3.006,3.006,0,0,1-2.169.83A2.667,2.667,0,0,1,72.29,297.961Zm3.637-.51a1.081,1.081,0,0,0-1.049-.9,1.016,1.016,0,0,0-1,.9Z"
         class="cls-4" />
      <path
         id="path391"
         transform="translate(-14.167 -14.315)"
         d="M78.44,295.372h1.618v1.17c.33-.859.79-1.269,1.4-1.269a1.1,1.1,0,0,1,.541.13v1.389a1.778,1.778,0,0,0-.76-.16,1.428,1.428,0,0,0-1.18.639v3.259H78.44Z"
         class="cls-4" />
      <path
         id="path393"
         transform="translate(-14.167 -14.315)"
         d="M82.3,295.372h1.76l1.169,3.239,1.18-3.239h1.669l-2.11,5.158H84.388Z"
         class="cls-4" />
      <path
         id="path395"
         transform="translate(-14.167 -14.315)"
         d="M88.679,293.673a.91.91,0,1,1,.909.91A.912.912,0,0,1,88.679,293.673Zm.1,1.7H90.4v5.158H88.78Z"
         class="cls-4" />
      <path
         id="path397"
         transform="translate(-14.167 -14.315)"
         d="M91.429,297.961a2.625,2.625,0,0,1,2.669-2.669,2.791,2.791,0,0,1,2.149.95l-.99.99a1.348,1.348,0,0,0-1.1-.561,1.3,1.3,0,0,0,0,2.579,1.351,1.351,0,0,0,1.1-.559l.99.989a2.791,2.791,0,0,1-2.149.95A2.625,2.625,0,0,1,91.429,297.961Z"
         class="cls-4" />
      <path
         id="path399"
         transform="translate(-14.167 -14.315)"
         d="M96.819,297.961a2.585,2.585,0,0,1,2.6-2.669,2.532,2.532,0,0,1,2.54,2.729v.349H98.408a1.238,1.238,0,0,0,1.21.97,1.273,1.273,0,0,0,1.019-.43l1.07.89a3.006,3.006,0,0,1-2.169.83A2.667,2.667,0,0,1,96.819,297.961Zm3.638-.51a1.082,1.082,0,0,0-1.049-.9,1.015,1.015,0,0,0-1,.9Z"
         class="cls-4" />
      <path
         id="path401"
         transform="translate(-14.167 -14.315)"
         d="M102.549,300l.709-1.078a3.352,3.352,0,0,0,1.659.52c.46,0,.741-.16.741-.42,0-.2-.151-.311-.481-.37l-.989-.181c-1-.189-1.52-.7-1.52-1.5,0-1.05.81-1.68,2.16-1.68a4.142,4.142,0,0,1,2.1.59l-.739,1.029a2.925,2.925,0,0,0-1.48-.439c-.389,0-.619.13-.619.35s.13.3.53.369l.969.18c1.02.191,1.549.71,1.549,1.49a1.984,1.984,0,0,1-2.219,1.769A4.213,4.213,0,0,1,102.549,300Z"
         class="cls-4" />
    </g>
    <path
       id="path405"
       transform="translate(-14.167 -14.315)"
       d="M28.34,99.387H141.726V283.672H28.34Z"
       class="cls-2" />
    <g
       id="g433">
      <g
         id="g411">
        <rect
           id="rect407"
           height="28.346"
           width="85.039"
           y="113.452"
           x="28.346"
           class="cls-2" />
        <path
           id="path409"
           transform="translate(-14.167 -14.315)"
           d="M127.553,127.767h-3v1h3v-1Zm-6,0h-3v1h3v-1Zm-6,0h-3v1h3v-1Zm-6,0h-3v1h3v-1Zm-6,0h-3v1h3v-1Zm-6,0h-3v1h3v-1Zm-6,0h-3v1h3v-1Zm-6,0h-3v1h3v-1Zm-6,0h-3v1h3v-1Zm-6,0h-3v1h3v-1Zm-6,0h-3v1h3v-1Zm-6,0h-3v1h3v-1Zm-6,0h-3v1h3v-1Zm-6,0h-3v1h3v-1Zm-6,0H42.514v1h0v.961h1v-.961h.039v-1Zm-.039,4.961h-1v3h1v-3Zm0,6h-1v3h1v-3Zm0,6h-1v3h1v-3Zm0,6h-1v3h1v-3Zm2.614,4.385h-3v1h3v-1Zm6,0h-3v1h3v-1Zm6,0h-3v1h3v-1Zm6,0h-3v1h3v-1Zm6,0h-3v1h3v-1Zm6,0h-3v1h3v-1Zm6,0h-3v1h3v-1Zm6,0h-3v1h3v-1Zm6,0h-3v1h3v-1Zm6,0h-3v1h3v-1Zm6,0h-3v1h3v-1Zm6,0h-3v1h3v-1Zm6,0h-3v1h3v-1Zm6,0h-3v1h3v-1Zm3.425-1.574h-1v2.574h1v-2.574Zm0-6h-1v3h1v-3Zm0-6h-1v3h1v-3Zm0-6h-1v3h1v-3Zm0-6h-1v3h1v-3Z"
           class="cls-5" />
      </g>
      <g
         id="g431">
        <path
           id="path413"
           transform="translate(-14.167 -14.315)"
           d="M63.682,137.712h1.389l2.709,7H66.49l-.719-1.959H62.9l-.72,1.959H60.933Zm1.759,4.1-1.1-2.959-1.089,2.959Z"
           class="cls-4" />
        <path
           id="path415"
           transform="translate(-14.167 -14.315)"
           d="M68.682,137.712h3.129a2.17,2.17,0,1,1,0,4.327H69.882v2.669h-1.2Zm2.939,3.348a1.177,1.177,0,1,0,.01-2.339H69.882v2.339Z"
           class="cls-4" />
        <path
           id="path417"
           transform="translate(-14.167 -14.315)"
           d="M75.422,137.712h1.2v7h-1.2Z"
           class="cls-4" />
        <path
           id="path419"
           transform="translate(-14.167 -14.315)"
           d="M79.913,144.128l.53-.749a2.912,2.912,0,0,0,1.608.57c.6,0,1.01-.281,1.01-.68,0-.31-.21-.47-.7-.569l-.88-.151c-.98-.18-1.449-.63-1.449-1.379,0-.939.769-1.55,1.938-1.55a3.608,3.608,0,0,1,1.97.6l-.53.749a2.71,2.71,0,0,0-1.509-.479c-.52,0-.86.219-.86.579,0,.32.18.46.7.549l.889.17c1,.181,1.48.64,1.48,1.39a1.84,1.84,0,0,1-2.05,1.629A3.348,3.348,0,0,1,79.913,144.128Z"
           class="cls-4" />
        <path
           id="path421"
           transform="translate(-14.167 -14.315)"
           d="M84.922,142.209a2.474,2.474,0,0,1,2.439-2.589,2.407,2.407,0,0,1,2.369,2.589v.27h-3.7a1.533,1.533,0,0,0,1.5,1.4,1.662,1.662,0,0,0,1.189-.47l.74.67a2.9,2.9,0,0,1-1.979.73A2.542,2.542,0,0,1,84.922,142.209Zm3.739-.429a1.363,1.363,0,0,0-1.31-1.24,1.345,1.345,0,0,0-1.309,1.24Z"
           class="cls-4" />
        <path
           id="path423"
           transform="translate(-14.167 -14.315)"
           d="M90.882,139.7h1.13v1.081a1.5,1.5,0,0,1,1.379-1.17,1.314,1.314,0,0,1,.489.1v.989a1.789,1.789,0,0,0-.619-.12,1.363,1.363,0,0,0-1.249.829v3.3h-1.13Z"
           class="cls-4" />
        <path
           id="path425"
           transform="translate(-14.167 -14.315)"
           d="M94.222,139.7h1.23l1.4,3.639,1.39-3.639h1.178l-2.058,5.008h-1.1Z"
           class="cls-4" />
        <path
           id="path427"
           transform="translate(-14.167 -14.315)"
           d="M100,142.209a2.474,2.474,0,0,1,2.439-2.589,2.407,2.407,0,0,1,2.368,2.589v.27h-3.7a1.533,1.533,0,0,0,1.5,1.4,1.662,1.662,0,0,0,1.189-.47l.74.67a2.9,2.9,0,0,1-1.979.73A2.542,2.542,0,0,1,100,142.209Zm3.738-.429a1.362,1.362,0,0,0-1.309-1.24,1.345,1.345,0,0,0-1.309,1.24Z"
           class="cls-4" />
        <path
           id="path429"
           transform="translate(-14.167 -14.315)"
           d="M105.962,139.7h1.129v1.081a1.505,1.505,0,0,1,1.379-1.17,1.311,1.311,0,0,1,.49.1v.989a1.8,1.8,0,0,0-.62-.12,1.365,1.365,0,0,0-1.249.829v3.3h-1.129Z"
           class="cls-4" />
      </g>
    </g>
    <g
       id="g473">
      <g
         id="g439">
        <rect
           id="rect435"
           height="27.346"
           width="84.039"
           y="170.645"
           x="28.846"
           class="cls-1" />
        <path
           id="path437"
           transform="translate(-14.167 -14.315)"
           d="M126.553,185.46v26.346H43.513V185.46h83.04m1-1H42.513v28.346h85.04V184.46Z"
           class="cls-3" />
      </g>
      <g
         id="g471">
        <path
           id="path441"
           transform="translate(-14.167 -14.315)"
           d="M51.948,196.394h1.229l1.4,3.639,1.389-3.639h1.179L55.086,201.4h-1.1Z"
           class="cls-4" />
        <path
           id="path443"
           transform="translate(-14.167 -14.315)"
           d="M57.818,194.685a.7.7,0,0,1,.7-.7.708.708,0,0,1,.7.7.7.7,0,0,1-.7.689A.692.692,0,0,1,57.818,194.685Zm.13,1.709h1.129V201.4H57.948Z"
           class="cls-4" />
        <path
           id="path445"
           transform="translate(-14.167 -14.315)"
           d="M60.478,196.394h1.129v1.08a1.5,1.5,0,0,1,1.379-1.17,1.319,1.319,0,0,1,.49.1v.99a1.8,1.8,0,0,0-.62-.121,1.364,1.364,0,0,0-1.249.83v3.3H60.478Z"
           class="cls-4" />
        <path
           id="path447"
           transform="translate(-14.167 -14.315)"
           d="M65.027,200.1v-2.809h-1v-.9h1v-1.379l1.13-.24v1.619h1.388v.9H66.157v2.559c0,.489.189.68.7.68a2.124,2.124,0,0,0,.68-.121v.95a3.593,3.593,0,0,1-.97.14C65.557,201.5,65.027,201.021,65.027,200.1Z"
           class="cls-4" />
        <path
           id="path449"
           transform="translate(-14.167 -14.315)"
           d="M68.408,198.083H71.9v.959H68.408Z"
           class="cls-4" />
        <path
           id="path451"
           transform="translate(-14.167 -14.315)"
           d="M72.937,198.9a2.527,2.527,0,0,1,2.529-2.589,2.705,2.705,0,0,1,2,.849l-.7.73a1.651,1.651,0,0,0-1.259-.589,1.607,1.607,0,0,0,0,3.2,1.675,1.675,0,0,0,1.259-.579l.7.72a2.706,2.706,0,0,1-2,.85A2.521,2.521,0,0,1,72.937,198.9Z"
           class="cls-4" />
        <path
           id="path453"
           transform="translate(-14.167 -14.315)"
           d="M78.167,198.9a2.515,2.515,0,1,1,2.519,2.589A2.495,2.495,0,0,1,78.167,198.9Zm3.918,0a1.42,1.42,0,1,0-1.4,1.629A1.486,1.486,0,0,0,82.085,198.9Z"
           class="cls-4" />
        <path
           id="path455"
           transform="translate(-14.167 -14.315)"
           d="M84.368,196.394H85.5v.82a1.823,1.823,0,0,1,1.579-.9,1.69,1.69,0,0,1,1.749,1.789v3.3h-1.14v-2.979a1.078,1.078,0,0,0-1.1-1.2,1.244,1.244,0,0,0-1.089.609V201.4H84.368Z"
           class="cls-4" />
        <path
           id="path457"
           transform="translate(-14.167 -14.315)"
           d="M90.807,200.1v-2.809h-1v-.9h1v-1.379l1.129-.24v1.619h1.39v.9h-1.39v2.559c0,.489.19.68.7.68a2.128,2.128,0,0,0,.68-.121v.95a3.593,3.593,0,0,1-.97.14C91.336,201.5,90.807,201.021,90.807,200.1Z"
           class="cls-4" />
        <path
           id="path459"
           transform="translate(-14.167 -14.315)"
           d="M94.327,196.394h1.13v1.08a1.5,1.5,0,0,1,1.378-1.17,1.319,1.319,0,0,1,.49.1v.99a1.794,1.794,0,0,0-.619-.121,1.363,1.363,0,0,0-1.249.83v3.3h-1.13Z"
           class="cls-4" />
        <path
           id="path461"
           transform="translate(-14.167 -14.315)"
           d="M98.027,198.9a2.515,2.515,0,1,1,2.518,2.589A2.494,2.494,0,0,1,98.027,198.9Zm3.918,0a1.42,1.42,0,1,0-1.4,1.629A1.486,1.486,0,0,0,101.945,198.9Z"
           class="cls-4" />
        <path
           id="path463"
           transform="translate(-14.167 -14.315)"
           d="M104.227,194.236l1.129-.2V201.4h-1.129Z"
           class="cls-4" />
        <path
           id="path465"
           transform="translate(-14.167 -14.315)"
           d="M106.747,194.236l1.129-.2V201.4h-1.129Z"
           class="cls-4" />
        <path
           id="path467"
           transform="translate(-14.167 -14.315)"
           d="M109.037,198.9a2.472,2.472,0,0,1,2.438-2.589,2.407,2.407,0,0,1,2.369,2.589v.269h-3.7a1.533,1.533,0,0,0,1.5,1.4,1.664,1.664,0,0,0,1.189-.47l.741.669a2.9,2.9,0,0,1-1.98.73A2.541,2.541,0,0,1,109.037,198.9Zm3.738-.43a1.362,1.362,0,0,0-1.31-1.239,1.344,1.344,0,0,0-1.308,1.239Z"
           class="cls-4" />
        <path
           id="path469"
           transform="translate(-14.167 -14.315)"
           d="M115,196.394h1.129v1.08a1.5,1.5,0,0,1,1.379-1.17,1.319,1.319,0,0,1,.49.1v.99a1.8,1.8,0,0,0-.62-.121,1.364,1.364,0,0,0-1.249.83v3.3H115Z"
           class="cls-4" />
      </g>
    </g>
  </g>
  <g
     data-name="Layer 4"
     id="Layer_4">
    <g
       id="g482">
      <polyline
         id="polyline476"
         points="118.768 121.011 155.868 121.011 155.868 28.346 179.037 28.346"
         class="cls-6" />
      <polygon
         id="polygon478"
         points="119.862 124.751 113.386 121.011 119.862 117.271 119.862 124.751"
         class="cls-4" />
      <polygon
         id="polygon480"
         points="177.943 32.086 184.419 28.346 177.943 24.607 177.943 32.086"
         class="cls-4" />
    </g>
    <g
       id="g490">
      <line
         id="line484"
         y2="134.239"
         x2="118.768"
         y1="134.239"
         x1="193.212"
         class="cls-6" />
      <polygon
         id="polygon486"
         points="192.117 130.5 198.594 134.239 192.117 137.979 192.117 130.5"
         class="cls-4" />
      <polygon
         id="polygon488"
         points="119.863 130.5 113.386 134.239 119.863 137.979 119.863 130.5"
         class="cls-4" />
    </g>
  </g>
  <g
     data-name="Layer 3"
     id="Layer_3">
    <g
       id="g499">
      <line
         id="line493"
         y2="147.18"
         x2="70.865"
         y1="164.762"
         x1="70.865"
         class="cls-6" />
      <polygon
         id="polygon495"
         points="74.605 163.668 70.865 170.145 67.125 163.668 74.605 163.668"
         class="cls-4" />
      <polygon
         id="polygon497"
         points="74.605 148.275 70.865 141.798 67.125 148.275 74.605 148.275"
         class="cls-4" />
    </g>
    <g
       id="g505">
      <line
         id="line501"
         y2="53.053"
         x2="70.865"
         y1="108.036"
         x1="70.865"
         class="cls-6" />
      <polygon
         id="polygon503"
         points="74.605 106.942 70.865 113.419 67.125 106.942 74.605 106.942"
         class="cls-4" />
    </g>
  </g>
  <g
     data-name="Layer 2"
     id="Layer_2">
    <g
       id="g512">
      <path
         id="path508"
         transform="translate(-14.167 -14.315)"
         d="M95.873,52.455a4.226,4.226,0,0,0,2.11-3.72,4.431,4.431,0,1,0-8.86,0,4.226,4.226,0,0,0,2.11,3.72,8.4,8.4,0,0,0-6.08,8.05.512.512,0,0,0,.51.51h15.78a.5.5,0,0,0,.5-.51A8.381,8.381,0,0,0,95.873,52.455Zm-5.76-3.78v-.01a3.44,3.44,0,0,1,6.88,0v.01a3.44,3.44,0,0,1-6.88,0Zm-3.92,11.33a7.379,7.379,0,0,1,14.72,0Z" />
      <path
         id="path510"
         transform="translate(-14.167 -14.315)"
         d="M75.052,36.789a5.892,5.892,0,0,1,1.088.106.623.623,0,0,0,.689-.366,7.874,7.874,0,0,1,15.1,3.135c0,.131-.01.259-.019.387l-.008.121a.627.627,0,0,0,.558.662,3.893,3.893,0,0,1,3.247,2.54.625.625,0,0,0,1.178-.42,5.148,5.148,0,0,0-3.706-3.266v-.024a9.124,9.124,0,0,0-17.289-4.073,7.124,7.124,0,1,0-.836,14.2h12.5a.625.625,0,0,0,0-1.25h-12.5a5.875,5.875,0,0,1,0-11.75Z" />
    </g>
  </g>
</svg>
