<?xml version="1.0" encoding="UTF-8" standalone="no"?>
<svg
   xmlns:dc="http://purl.org/dc/elements/1.1/"
   xmlns:cc="http://creativecommons.org/ns#"
   xmlns:rdf="http://www.w3.org/1999/02/22-rdf-syntax-ns#"
   xmlns:svg="http://www.w3.org/2000/svg"
   xmlns="http://www.w3.org/2000/svg"
   xmlns:sodipodi="http://sodipodi.sourceforge.net/DTD/sodipodi-0.dtd"
   xmlns:inkscape="http://www.inkscape.org/namespaces/inkscape"
   inkscape:version="1.0 (4035a4f, 2020-05-01)"
   sodipodi:docname="pod-service-sdn.svg"
   id="svg813"
   version="1.1"
   viewBox="0 0 820.623 392.404"
   height="138.432mm"
   width="289.498mm">
  <metadata
     id="metadata817">
    <rdf:RDF>
      <cc:Work
         rdf:about="">
        <dc:format>image/svg+xml</dc:format>
        <dc:type
           rdf:resource="http://purl.org/dc/dcmitype/StillImage" />
        <dc:title></dc:title>
        <dc:subject>
          <rdf:Bag>
            <rdf:li>sdn</rdf:li>
            <rdf:li>service</rdf:li>
            <rdf:li>router</rdf:li>
            <rdf:li>pod</rdf:li>
          </rdf:Bag>
        </dc:subject>
      </cc:Work>
    </rdf:RDF>
  </metadata>
  <sodipodi:namedview
     inkscape:current-layer="svg813"
     inkscape:window-maximized="0"
     inkscape:window-y="25"
     inkscape:window-x="0"
     inkscape:cy="261.60379"
     inkscape:cx="547.08281"
     inkscape:zoom="1.0025905"
     showgrid="false"
     id="namedview815"
     inkscape:window-height="480"
     inkscape:window-width="709"
     inkscape:pageshadow="2"
     inkscape:pageopacity="0"
     guidetolerance="10"
     gridtolerance="10"
     objecttolerance="10"
     borderopacity="1"
     bordercolor="#666666"
     pagecolor="#ffffff" />
  <defs
     id="defs12">
    <style
       id="style10">
      .cls-1 {
        fill: #d9e8f7;
      }

      .cls-2 {
        fill: #161616;
      }

      .cls-3 {
        fill: #fff;
      }

      .cls-4 {
        fill: #e8e8e8;
        stroke: #a2a2a2;
      }

      .cls-13, .cls-14, .cls-15, .cls-16, .cls-17, .cls-18, .cls-19, .cls-20, .cls-21, .cls-22, .cls-23, .cls-24, .cls-25, .cls-26, .cls-27, .cls-4, .cls-8, .cls-9 {
        stroke-miterlimit: 10;
      }

      .cls-5 {
        fill: #06c;
      }

      .cls-6 {
        fill: #5e40be;
      }

      .cls-7 {
        fill: #35a335;
      }

      .cls-12, .cls-13, .cls-14, .cls-15, .cls-16, .cls-17, .cls-18, .cls-19, .cls-20, .cls-21, .cls-22, .cls-23, .cls-24, .cls-25, .cls-26, .cls-27, .cls-8, .cls-9 {
        fill: none;
      }

      .cls-8 {
        stroke: #5e40be;
      }

      .cls-9 {
        stroke: #35a335;
      }

      .cls-10 {
        fill: #be0000;
      }

      .cls-11 {
        fill: #faaa4f;
      }

      .cls-12 {
        stroke: #fff;
        stroke-linejoin: round;
        stroke-width: 10px;
      }

      .cls-13, .cls-14, .cls-15, .cls-16, .cls-17, .cls-18, .cls-19 {
        stroke: #be0000;
      }

      .cls-14 {
        stroke-dasharray: 2.946 2.946 2.946 2.946;
      }

      .cls-15 {
        stroke-dasharray: 2.946 2.946 2.946 2.946 2.946 2.946;
      }

      .cls-16 {
        stroke-dasharray: 2.829 2.829 2.829 2.829;
      }

      .cls-17 {
        stroke-dasharray: 2.829 2.829 2.829 2.829 2.829 2.829;
      }

      .cls-18 {
        stroke-dasharray: 2.934 2.934 2.934 2.934;
      }

      .cls-19 {
        stroke-dasharray: 2.934 2.934 2.934 2.934 2.934 2.934;
      }

      .cls-20, .cls-21, .cls-22, .cls-23, .cls-24, .cls-25, .cls-26 {
        stroke: #faaa4f;
      }

      .cls-21 {
        stroke-dasharray: 3.074 3.074 3.074 3.074;
      }

      .cls-22 {
        stroke-dasharray: 3.074 3.074 3.074 3.074 3.074 3.074;
      }

      .cls-23 {
        stroke-dasharray: 2.983 2.983 2.983 2.983;
      }

      .cls-24 {
        stroke-dasharray: 2.983 2.983 2.983 2.983 2.983 2.983;
      }

      .cls-25 {
        stroke-dasharray: 2.848 2.848 2.848 2.848;
      }

      .cls-26 {
        stroke-dasharray: 2.848 2.848 2.848 2.848 2.848 2.848;
      }

      .cls-27 {
        stroke: #161616;
      }
    </style>
  </defs>
  <g
     data-name="Layer 1"
     id="Layer_1">
    <rect
       id="rect14"
       height="128.316"
       width="242.007"
       y="0.01"
       x="256.224"
       class="cls-1" />
    <g
       id="g26">
      <path
         id="path16"
         transform="translate(-9.985 -18.547)"
         d="M281.172,29.084h1.619l3.108,4.237-.03-4.237h1.619v7H285.97L282.761,31.7l.03,4.378h-1.619Z"
         class="cls-2" />
      <path
         id="path18"
         transform="translate(-9.985 -18.547)"
         d="M288.672,33.511a2.689,2.689,0,1,1,2.688,2.668A2.623,2.623,0,0,1,288.672,33.511Zm3.8,0a1.126,1.126,0,1,0-1.11,1.319A1.18,1.18,0,0,0,292.47,33.511Z"
         class="cls-2" />
      <path
         id="path20"
         transform="translate(-9.985 -18.547)"
         d="M294.852,33.491a2.487,2.487,0,0,1,2.4-2.6,1.8,1.8,0,0,1,1.379.62V28.964l1.619-.25V36.08h-1.6v-.67a1.945,1.945,0,0,1-1.519.7A2.457,2.457,0,0,1,294.852,33.491Zm3.778.869V32.622a1.314,1.314,0,0,0-.959-.4,1.275,1.275,0,0,0,0,2.549A1.25,1.25,0,0,0,298.63,34.36Z"
         class="cls-2" />
      <path
         id="path22"
         transform="translate(-9.985 -18.547)"
         d="M301.282,33.511a2.585,2.585,0,0,1,2.6-2.669,2.532,2.532,0,0,1,2.538,2.729v.35h-3.548a1.235,1.235,0,0,0,1.209.969,1.279,1.279,0,0,0,1.02-.429l1.069.889a3.006,3.006,0,0,1-2.169.829A2.666,2.666,0,0,1,301.282,33.511ZM304.92,33a1.083,1.083,0,0,0-1.05-.9,1.014,1.014,0,0,0-1,.9Z"
         class="cls-2" />
      <path
         id="path24"
         transform="translate(-9.985 -18.547)"
         d="M309.462,34.98l2.958-2.929a1.289,1.289,0,0,0,.47-.949c0-.45-.44-.789-1.03-.789a2.4,2.4,0,0,0-1.769.86l-.86-1.05a3.84,3.84,0,0,1,2.679-1.15c1.489,0,2.479.81,2.479,2.03a2.47,2.47,0,0,1-.91,1.829l-2.018,1.948,3.028-.01v1.31h-5.027Z"
         class="cls-2" />
    </g>
    <path
       id="path28"
       transform="translate(-9.985 -18.547)"
       d="M280.393,46.894h99.7V132.7h-99.7Z"
       class="cls-3" />
    <g
       id="g38">
      <path
         id="path30"
         transform="translate(-9.985 -18.547)"
         d="M295.831,57.406h3.418a2.286,2.286,0,1,1,0,4.558h-1.7V64.4h-1.719Zm3.107,3.188c.7,0,1.04-.379,1.04-.889s-.339-.88-1.029-.88h-1.4v1.769Z"
         class="cls-2" />
      <path
         id="path32"
         transform="translate(-9.985 -18.547)"
         d="M302.551,61.834a2.689,2.689,0,1,1,2.688,2.669A2.623,2.623,0,0,1,302.551,61.834Zm3.8,0a1.126,1.126,0,1,0-1.11,1.319A1.181,1.181,0,0,0,306.349,61.834Z"
         class="cls-2" />
      <path
         id="path34"
         transform="translate(-9.985 -18.547)"
         d="M308.73,61.814a2.486,2.486,0,0,1,2.4-2.6,1.805,1.805,0,0,1,1.38.619V57.286l1.619-.249V64.4h-1.6v-.669a1.943,1.943,0,0,1-1.518.7A2.457,2.457,0,0,1,308.73,61.814Zm3.779.869V60.944a1.313,1.313,0,0,0-.96-.4,1.275,1.275,0,0,0,0,2.548A1.256,1.256,0,0,0,312.509,62.683Z"
         class="cls-2" />
      <path
         id="path36"
         transform="translate(-9.985 -18.547)"
         d="M317.421,63.3l2.958-2.927a1.294,1.294,0,0,0,.47-.95c0-.45-.44-.79-1.03-.79a2.413,2.413,0,0,0-1.769.86l-.86-1.049a3.839,3.839,0,0,1,2.679-1.149c1.489,0,2.479.809,2.479,2.028a2.465,2.465,0,0,1-.91,1.829L319.42,63.1l3.028-.01V64.4h-5.027Z"
         class="cls-2" />
    </g>
    <g
       id="g62">
      <path
         id="path40"
         transform="translate(-9.985 -18.547)"
         d="M295.051,75.274h70.866V103.62H295.051Z"
         class="cls-4" />
      <g
         id="g60">
        <path
           id="path42"
           transform="translate(-9.985 -18.547)"
           d="M308.622,89.716a2.526,2.526,0,0,1,2.529-2.588,2.7,2.7,0,0,1,2,.849l-.7.73a1.652,1.652,0,0,0-1.259-.59,1.608,1.608,0,0,0,0,3.2,1.678,1.678,0,0,0,1.259-.579l.7.719a2.7,2.7,0,0,1-2,.849A2.52,2.52,0,0,1,308.622,89.716Z"
           class="cls-2" />
        <path
           id="path44"
           transform="translate(-9.985 -18.547)"
           d="M313.852,89.716a2.515,2.515,0,1,1,2.519,2.588A2.494,2.494,0,0,1,313.852,89.716Zm3.918,0a1.42,1.42,0,1,0-1.4,1.629A1.485,1.485,0,0,0,317.77,89.716Z"
           class="cls-2" />
        <path
           id="path46"
           transform="translate(-9.985 -18.547)"
           d="M320.052,87.208h1.13v.819a1.821,1.821,0,0,1,1.579-.9,1.69,1.69,0,0,1,1.749,1.789v3.3h-1.14V89.236a1.079,1.079,0,0,0-1.1-1.2,1.243,1.243,0,0,0-1.088.61v3.568h-1.13Z"
           class="cls-2" />
        <path
           id="path48"
           transform="translate(-9.985 -18.547)"
           d="M326.491,90.916V88.107h-1v-.9h1v-1.38l1.13-.239v1.619h1.389v.9h-1.389v2.559c0,.489.189.679.7.679a2.119,2.119,0,0,0,.68-.12v.949a3.556,3.556,0,0,1-.97.141C327.021,92.315,326.491,91.835,326.491,90.916Z"
           class="cls-2" />
        <path
           id="path50"
           transform="translate(-9.985 -18.547)"
           d="M329.752,90.776c0-.9.739-1.47,1.919-1.47a2.929,2.929,0,0,1,1.349.321v-.561c0-.659-.379-1-1.149-1a3.459,3.459,0,0,0-1.459.39l-.4-.82a4.966,4.966,0,0,1,2.079-.509c1.309,0,2.049.659,2.049,1.819v3.268h-1.12V91.7a2.02,2.02,0,0,1-1.489.609A1.594,1.594,0,0,1,329.752,90.776Zm2.089.73a1.74,1.74,0,0,0,1.179-.42v-.81a2.574,2.574,0,0,0-1.149-.24c-.649,0-1.06.269-1.06.72S331.211,91.506,331.841,91.506Z"
           class="cls-2" />
        <path
           id="path52"
           transform="translate(-9.985 -18.547)"
           d="M335.371,85.5a.7.7,0,1,1,.7.689A.693.693,0,0,1,335.371,85.5Zm.13,1.709h1.13v5.007H335.5Z"
           class="cls-2" />
        <path
           id="path54"
           transform="translate(-9.985 -18.547)"
           d="M338.031,87.208h1.13v.819a1.823,1.823,0,0,1,1.579-.9,1.69,1.69,0,0,1,1.749,1.789v3.3H341.35V89.236a1.079,1.079,0,0,0-1.1-1.2,1.246,1.246,0,0,0-1.089.61v3.568h-1.13Z"
           class="cls-2" />
        <path
           id="path56"
           transform="translate(-9.985 -18.547)"
           d="M343.621,89.716a2.472,2.472,0,0,1,2.439-2.588,2.406,2.406,0,0,1,2.369,2.588v.27h-3.7a1.533,1.533,0,0,0,1.5,1.4,1.666,1.666,0,0,0,1.19-.469l.74.669a2.9,2.9,0,0,1-1.979.73A2.542,2.542,0,0,1,343.621,89.716Zm3.738-.429a1.36,1.36,0,0,0-1.309-1.239,1.344,1.344,0,0,0-1.309,1.239Z"
           class="cls-2" />
        <path
           id="path58"
           transform="translate(-9.985 -18.547)"
           d="M349.581,87.208h1.13v1.079a1.5,1.5,0,0,1,1.379-1.169,1.338,1.338,0,0,1,.489.1v.99a1.794,1.794,0,0,0-.619-.12,1.363,1.363,0,0,0-1.249.83v3.3h-1.13Z"
           class="cls-2" />
      </g>
    </g>
    <path
       id="path64"
       transform="translate(-9.985 -18.547)"
       d="M394.345,46.894h99.7V132.7h-99.7Z"
       class="cls-3" />
    <g
       id="g74">
      <path
         id="path66"
         transform="translate(-9.985 -18.547)"
         d="M409.784,57.406H413.2a2.286,2.286,0,1,1,0,4.558h-1.7V64.4h-1.719Zm3.109,3.188c.7,0,1.039-.379,1.039-.889s-.34-.88-1.03-.88h-1.4v1.769Z"
         class="cls-2" />
      <path
         id="path68"
         transform="translate(-9.985 -18.547)"
         d="M416.505,61.834a2.689,2.689,0,1,1,2.688,2.669A2.623,2.623,0,0,1,416.505,61.834Zm3.8,0a1.126,1.126,0,1,0-1.11,1.319A1.181,1.181,0,0,0,420.3,61.834Z"
         class="cls-2" />
      <path
         id="path70"
         transform="translate(-9.985 -18.547)"
         d="M422.685,61.814a2.485,2.485,0,0,1,2.4-2.6,1.8,1.8,0,0,1,1.379.619V57.286l1.619-.249V64.4h-1.6v-.669a1.944,1.944,0,0,1-1.519.7A2.456,2.456,0,0,1,422.685,61.814Zm3.777.869V60.944a1.312,1.312,0,0,0-.959-.4,1.275,1.275,0,0,0,0,2.548A1.252,1.252,0,0,0,426.462,62.683Z"
         class="cls-2" />
      <path
         id="path72"
         transform="translate(-9.985 -18.547)"
         d="M431.175,63.383l1.039-.959a1.982,1.982,0,0,0,1.7.739c.76,0,1.259-.34,1.259-.86,0-.45-.36-.729-.919-.729h-.9V60.3h.74c.569,0,.909-.29.909-.779s-.47-.859-1.1-.859a1.95,1.95,0,0,0-1.63.8l-1.048-.95a3.671,3.671,0,0,1,2.738-1.218c1.529,0,2.589.829,2.589,2.018a1.7,1.7,0,0,1-1.33,1.6c.92.18,1.509.75,1.509,1.519,0,1.209-1.17,2.079-2.8,2.079A3.65,3.65,0,0,1,431.175,63.383Z"
         class="cls-2" />
    </g>
    <g
       id="g98">
      <path
         id="path76"
         transform="translate(-9.985 -18.547)"
         d="M409,75.274H479.87V103.62H409Z"
         class="cls-4" />
      <g
         id="g96">
        <path
           id="path78"
           transform="translate(-9.985 -18.547)"
           d="M422.576,89.716a2.526,2.526,0,0,1,2.528-2.588,2.706,2.706,0,0,1,2,.849l-.7.73a1.656,1.656,0,0,0-1.26-.59,1.608,1.608,0,0,0,0,3.2,1.682,1.682,0,0,0,1.26-.579l.7.719a2.706,2.706,0,0,1-2,.849A2.52,2.52,0,0,1,422.576,89.716Z"
           class="cls-2" />
        <path
           id="path80"
           transform="translate(-9.985 -18.547)"
           d="M427.806,89.716a2.515,2.515,0,1,1,2.518,2.588A2.494,2.494,0,0,1,427.806,89.716Zm3.918,0a1.42,1.42,0,1,0-1.4,1.629A1.486,1.486,0,0,0,431.724,89.716Z"
           class="cls-2" />
        <path
           id="path82"
           transform="translate(-9.985 -18.547)"
           d="M434.006,87.208h1.129v.819a1.823,1.823,0,0,1,1.579-.9,1.69,1.69,0,0,1,1.749,1.789v3.3h-1.14V89.236a1.078,1.078,0,0,0-1.1-1.2,1.247,1.247,0,0,0-1.09.61v3.568h-1.129Z"
           class="cls-2" />
        <path
           id="path84"
           transform="translate(-9.985 -18.547)"
           d="M440.445,90.916V88.107h-1v-.9h1v-1.38l1.129-.239v1.619h1.39v.9h-1.39v2.559c0,.489.191.679.7.679a2.123,2.123,0,0,0,.68-.12v.949a3.556,3.556,0,0,1-.97.141C440.975,92.315,440.445,91.835,440.445,90.916Z"
           class="cls-2" />
        <path
           id="path86"
           transform="translate(-9.985 -18.547)"
           d="M443.706,90.776c0-.9.739-1.47,1.919-1.47a2.929,2.929,0,0,1,1.349.321v-.561c0-.659-.38-1-1.15-1a3.462,3.462,0,0,0-1.459.39l-.4-.82a4.961,4.961,0,0,1,2.078-.509c1.309,0,2.049.659,2.049,1.819v3.268h-1.119V91.7a2.022,2.022,0,0,1-1.49.609A1.594,1.594,0,0,1,443.706,90.776Zm2.089.73a1.744,1.744,0,0,0,1.179-.42v-.81a2.578,2.578,0,0,0-1.15-.24c-.649,0-1.059.269-1.059.72S445.165,91.506,445.8,91.506Z"
           class="cls-2" />
        <path
           id="path88"
           transform="translate(-9.985 -18.547)"
           d="M449.325,85.5a.7.7,0,0,1,.7-.7.709.709,0,0,1,.7.7.7.7,0,0,1-.7.689A.693.693,0,0,1,449.325,85.5Zm.13,1.709h1.129v5.007h-1.129Z"
           class="cls-2" />
        <path
           id="path90"
           transform="translate(-9.985 -18.547)"
           d="M451.985,87.208h1.129v.819a1.824,1.824,0,0,1,1.579-.9,1.689,1.689,0,0,1,1.749,1.789v3.3H455.3V89.236a1.078,1.078,0,0,0-1.1-1.2,1.248,1.248,0,0,0-1.09.61v3.568h-1.129Z"
           class="cls-2" />
        <path
           id="path92"
           transform="translate(-9.985 -18.547)"
           d="M457.575,89.716a2.472,2.472,0,0,1,2.439-2.588,2.406,2.406,0,0,1,2.368,2.588v.27h-3.7a1.531,1.531,0,0,0,1.5,1.4,1.667,1.667,0,0,0,1.189-.469l.739.669a2.9,2.9,0,0,1-1.978.73A2.542,2.542,0,0,1,457.575,89.716Zm3.737-.429A1.359,1.359,0,0,0,460,88.048a1.345,1.345,0,0,0-1.31,1.239Z"
           class="cls-2" />
        <path
           id="path94"
           transform="translate(-9.985 -18.547)"
           d="M463.535,87.208h1.129v1.079a1.5,1.5,0,0,1,1.379-1.169,1.339,1.339,0,0,1,.49.1v.99a1.8,1.8,0,0,0-.62-.12,1.364,1.364,0,0,0-1.249.83v3.3h-1.129Z"
           class="cls-2" />
      </g>
    </g>
    <rect
       id="rect100"
       height="128.326"
       width="242.007"
       class="cls-1" />
    <g
       id="g112">
      <path
         id="path102"
         transform="translate(-9.985 -18.547)"
         d="M24.948,29.084h1.618l3.109,4.237-.03-4.237h1.62v7h-1.52L26.536,31.7l.03,4.378H24.948Z"
         class="cls-2" />
      <path
         id="path104"
         transform="translate(-9.985 -18.547)"
         d="M32.448,33.511a2.689,2.689,0,1,1,2.688,2.668A2.623,2.623,0,0,1,32.448,33.511Zm3.8,0a1.126,1.126,0,1,0-1.109,1.319A1.179,1.179,0,0,0,36.245,33.511Z"
         class="cls-2" />
      <path
         id="path106"
         transform="translate(-9.985 -18.547)"
         d="M38.628,33.491a2.486,2.486,0,0,1,2.4-2.6,1.8,1.8,0,0,1,1.379.62V28.964l1.619-.25V36.08h-1.6v-.67a1.944,1.944,0,0,1-1.519.7A2.457,2.457,0,0,1,38.628,33.491Zm3.777.869V32.622a1.314,1.314,0,0,0-.959-.4,1.275,1.275,0,0,0,0,2.549A1.249,1.249,0,0,0,42.405,34.36Z"
         class="cls-2" />
      <path
         id="path108"
         transform="translate(-9.985 -18.547)"
         d="M45.058,33.511a2.585,2.585,0,0,1,2.6-2.669,2.531,2.531,0,0,1,2.538,2.729v.35H46.646a1.238,1.238,0,0,0,1.21.969,1.281,1.281,0,0,0,1.02-.429l1.068.889a3.006,3.006,0,0,1-2.168.829A2.666,2.666,0,0,1,45.058,33.511ZM48.7,33a1.082,1.082,0,0,0-1.05-.9,1.015,1.015,0,0,0-1,.9Z"
         class="cls-2" />
      <path
         id="path110"
         transform="translate(-9.985 -18.547)"
         d="M54.427,30.682l-1.379.571v-1.36L55,29.084h.97v7H54.427Z"
         class="cls-2" />
    </g>
    <path
       id="path114"
       transform="translate(-9.985 -18.547)"
       d="M24.169,46.894h99.7V132.7h-99.7Z"
       class="cls-3" />
    <g
       id="g128">
      <path
         id="path116"
         transform="translate(-9.985 -18.547)"
         d="M38.847,57.406h1.858l1.85,5.207,1.879-5.207h1.789l-2.729,7H41.535Z"
         class="cls-2" />
      <path
         id="path118"
         transform="translate(-9.985 -18.547)"
         d="M47.026,57.406h2.159l1.689,3.358,1.679-3.358h2.159v7H53.093V59.655L50.853,63.9l-2.248-4.288V64.4H47.026Z"
         class="cls-2" />
      <path
         id="path120"
         transform="translate(-9.985 -18.547)"
         d="M58.426,57.406h3.418a2.286,2.286,0,1,1,0,4.558h-1.7V64.4H58.426Zm3.108,3.188c.7,0,1.039-.379,1.039-.889s-.34-.88-1.029-.88h-1.4v1.769Z"
         class="cls-2" />
      <path
         id="path122"
         transform="translate(-9.985 -18.547)"
         d="M65.145,61.834A2.689,2.689,0,1,1,67.834,64.5,2.624,2.624,0,0,1,65.145,61.834Zm3.8,0a1.126,1.126,0,1,0-1.109,1.319A1.181,1.181,0,0,0,68.943,61.834Z"
         class="cls-2" />
      <path
         id="path124"
         transform="translate(-9.985 -18.547)"
         d="M71.326,61.814a2.486,2.486,0,0,1,2.4-2.6,1.8,1.8,0,0,1,1.378.619V57.286l1.62-.249V64.4h-1.6v-.669a1.946,1.946,0,0,1-1.52.7A2.457,2.457,0,0,1,71.326,61.814Zm3.777.869V60.944a1.31,1.31,0,0,0-.959-.4,1.275,1.275,0,0,0,0,2.548A1.252,1.252,0,0,0,75.1,62.683Z"
         class="cls-2" />
      <path
         id="path126"
         transform="translate(-9.985 -18.547)"
         d="M81.205,59.006l-1.379.569V58.216l1.948-.81h.97v7H81.205Z"
         class="cls-2" />
    </g>
    <g
       id="g150">
      <path
         id="path130"
         transform="translate(-9.985 -18.547)"
         d="M53.882,115.658l-1.116.476v-.873l1.476-.638h.621v6.3h-.981Z"
         class="cls-2" />
      <path
         id="path132"
         transform="translate(-9.985 -18.547)"
         d="M55.961,117.773c0-1.935,1.054-3.25,2.584-3.25s2.575,1.315,2.575,3.25-1.045,3.241-2.575,3.241S55.961,119.7,55.961,117.773Zm4.178,0c0-1.449-.621-2.377-1.594-2.377s-1.6.928-1.6,2.377.63,2.368,1.6,2.368S60.139,119.214,60.139,117.773Z"
         class="cls-2" />
      <path
         id="path134"
         transform="translate(-9.985 -18.547)"
         d="M62.072,120.357a.631.631,0,1,1,1.26,0,.63.63,0,1,1-1.26,0Z"
         class="cls-2" />
      <path
         id="path136"
         transform="translate(-9.985 -18.547)"
         d="M65.276,115.658l-1.116.476v-.873l1.477-.638h.621v6.3h-.982Z"
         class="cls-2" />
      <path
         id="path138"
         transform="translate(-9.985 -18.547)"
         d="M67.363,120.213l2.584-2.7a1.672,1.672,0,0,0,.613-1.206,1.025,1.025,0,0,0-1.144-.919,2.26,2.26,0,0,0-1.639.766l-.557-.676a3.21,3.21,0,0,1,2.215-.954c1.233,0,2.079.7,2.079,1.729a2.391,2.391,0,0,1-.891,1.764l-2.008,2.071,3.016-.009v.846H67.363Z"
         class="cls-2" />
      <path
         id="path140"
         transform="translate(-9.985 -18.547)"
         d="M72.512,119.187a1.667,1.667,0,0,1,1.35-1.54,1.524,1.524,0,0,1-1.135-1.4,2.17,2.17,0,0,1,4.249,0,1.523,1.523,0,0,1-1.133,1.4,1.668,1.668,0,0,1,1.35,1.54c0,1.071-.972,1.836-2.341,1.836S72.512,120.258,72.512,119.187Zm3.691-.063c0-.621-.567-1.08-1.351-1.08s-1.35.459-1.35,1.08a1.382,1.382,0,0,0,2.7,0Zm-.189-2.818a1.179,1.179,0,1,0-1.162.981A1.056,1.056,0,0,0,76.014,116.306Z"
         class="cls-2" />
      <path
         id="path142"
         transform="translate(-9.985 -18.547)"
         d="M78.154,120.357a.631.631,0,1,1,1.261,0,.631.631,0,1,1-1.261,0Z"
         class="cls-2" />
      <path
         id="path144"
         transform="translate(-9.985 -18.547)"
         d="M82.43,117.656l-2.278-3.033h1.287l1.648,2.25,1.63-2.25h1.251l-2.278,3.06,2.422,3.241h-1.3l-1.773-2.466-1.791,2.466H80.009Z"
         class="cls-2" />
      <path
         id="path146"
         transform="translate(-9.985 -18.547)"
         d="M86.705,120.357a.631.631,0,1,1,1.26,0,.63.63,0,1,1-1.26,0Z"
         class="cls-2" />
      <path
         id="path148"
         transform="translate(-9.985 -18.547)"
         d="M90.98,117.656,88.7,114.623H89.99l1.648,2.25,1.63-2.25h1.25l-2.277,3.06,2.421,3.241h-1.3l-1.773-2.466L89.8,120.924H88.559Z"
         class="cls-2" />
    </g>
    <g
       id="g164">
      <g
         id="g156">
        <rect
           id="rect152"
           height="27.347"
           width="69.866"
           y="57.226"
           x="29.342"
           class="cls-1" />
        <path
           id="path154"
           transform="translate(-9.985 -18.547)"
           d="M108.693,76.274V102.62H39.827V76.274h68.866m1-1H38.827V103.62h70.866V75.274Z"
           class="cls-5" />
      </g>
      <g
         id="g162">
        <path
           id="path158"
           transform="translate(-9.985 -18.547)"
           d="M66.388,85.218h1.289L69.826,91,72,85.218h1.239l-2.739,7H69.106Z"
           class="cls-2" />
        <path
           id="path160"
           transform="translate(-9.985 -18.547)"
           d="M74.137,85.218H75.7l2.049,4.248,2.039-4.248h1.559v7H80.214V86.738l-2.479,4.978-2.489-5.008v5.507H74.137Z"
           class="cls-2" />
      </g>
    </g>
    <path
       id="path166"
       transform="translate(-9.985 -18.547)"
       d="M138.122,46.894h99.7V132.7h-99.7Z"
       class="cls-3" />
    <g
       id="g176">
      <path
         id="path168"
         transform="translate(-9.985 -18.547)"
         d="M153.56,57.406h3.417a2.286,2.286,0,1,1,0,4.558h-1.7V64.4H153.56Zm3.108,3.188c.7,0,1.039-.379,1.039-.889s-.34-.88-1.029-.88h-1.4v1.769Z"
         class="cls-2" />
      <path
         id="path170"
         transform="translate(-9.985 -18.547)"
         d="M160.28,61.834a2.689,2.689,0,1,1,2.689,2.669A2.623,2.623,0,0,1,160.28,61.834Zm3.8,0a1.126,1.126,0,1,0-1.109,1.319A1.181,1.181,0,0,0,164.078,61.834Z"
         class="cls-2" />
      <path
         id="path172"
         transform="translate(-9.985 -18.547)"
         d="M166.46,61.814a2.485,2.485,0,0,1,2.4-2.6,1.8,1.8,0,0,1,1.379.619V57.286l1.619-.249V64.4h-1.6v-.669a1.946,1.946,0,0,1-1.52.7A2.457,2.457,0,0,1,166.46,61.814Zm3.777.869V60.944a1.312,1.312,0,0,0-.959-.4,1.275,1.275,0,0,0,0,2.548A1.252,1.252,0,0,0,170.237,62.683Z"
         class="cls-2" />
      <path
         id="path174"
         transform="translate(-9.985 -18.547)"
         d="M176.339,59.006l-1.379.569V58.216l1.948-.81h.97v7h-1.539Z"
         class="cls-2" />
    </g>
    <g
       id="g200">
      <path
         id="path178"
         transform="translate(-9.985 -18.547)"
         d="M152.78,75.274h70.866V103.62H152.78Z"
         class="cls-4" />
      <g
         id="g198">
        <path
           id="path180"
           transform="translate(-9.985 -18.547)"
           d="M166.351,89.716a2.526,2.526,0,0,1,2.529-2.588,2.707,2.707,0,0,1,2,.849l-.7.73a1.659,1.659,0,0,0-1.26-.59,1.608,1.608,0,0,0,0,3.2,1.685,1.685,0,0,0,1.26-.579l.7.719a2.707,2.707,0,0,1-2,.849A2.52,2.52,0,0,1,166.351,89.716Z"
           class="cls-2" />
        <path
           id="path182"
           transform="translate(-9.985 -18.547)"
           d="M171.581,89.716A2.515,2.515,0,1,1,174.1,92.3,2.494,2.494,0,0,1,171.581,89.716Zm3.918,0a1.42,1.42,0,1,0-1.4,1.629A1.486,1.486,0,0,0,175.5,89.716Z"
           class="cls-2" />
        <path
           id="path184"
           transform="translate(-9.985 -18.547)"
           d="M177.781,87.208h1.129v.819a1.824,1.824,0,0,1,1.579-.9,1.69,1.69,0,0,1,1.749,1.789v3.3H181.1V89.236a1.078,1.078,0,0,0-1.1-1.2,1.248,1.248,0,0,0-1.09.61v3.568h-1.129Z"
           class="cls-2" />
        <path
           id="path186"
           transform="translate(-9.985 -18.547)"
           d="M184.221,90.916V88.107h-1v-.9h1v-1.38l1.129-.239v1.619h1.389v.9H185.35v2.559c0,.489.19.679.7.679a2.118,2.118,0,0,0,.679-.12v.949a3.549,3.549,0,0,1-.969.141C184.75,92.315,184.221,91.835,184.221,90.916Z"
           class="cls-2" />
        <path
           id="path188"
           transform="translate(-9.985 -18.547)"
           d="M187.481,90.776c0-.9.74-1.47,1.919-1.47a2.926,2.926,0,0,1,1.349.321v-.561c0-.659-.38-1-1.149-1a3.462,3.462,0,0,0-1.459.39l-.4-.82a4.961,4.961,0,0,1,2.078-.509c1.31,0,2.049.659,2.049,1.819v3.268h-1.119V91.7a2.02,2.02,0,0,1-1.489.609A1.594,1.594,0,0,1,187.481,90.776Zm2.089.73a1.744,1.744,0,0,0,1.179-.42v-.81a2.574,2.574,0,0,0-1.149-.24c-.65,0-1.06.269-1.06.72S188.94,91.506,189.57,91.506Z"
           class="cls-2" />
        <path
           id="path190"
           transform="translate(-9.985 -18.547)"
           d="M193.1,85.5a.7.7,0,0,1,.7-.7.709.709,0,0,1,.7.7.7.7,0,0,1-.7.689A.692.692,0,0,1,193.1,85.5Zm.129,1.709h1.129v5.007H193.23Z"
           class="cls-2" />
        <path
           id="path192"
           transform="translate(-9.985 -18.547)"
           d="M195.761,87.208h1.129v.819a1.822,1.822,0,0,1,1.579-.9,1.69,1.69,0,0,1,1.749,1.789v3.3h-1.14V89.236a1.078,1.078,0,0,0-1.1-1.2,1.245,1.245,0,0,0-1.089.61v3.568h-1.129Z"
           class="cls-2" />
        <path
           id="path194"
           transform="translate(-9.985 -18.547)"
           d="M201.351,89.716a2.471,2.471,0,0,1,2.438-2.588,2.406,2.406,0,0,1,2.368,2.588v.27h-3.7a1.532,1.532,0,0,0,1.5,1.4,1.665,1.665,0,0,0,1.189-.469l.74.669a2.9,2.9,0,0,1-1.979.73A2.541,2.541,0,0,1,201.351,89.716Zm3.737-.429a1.36,1.36,0,0,0-1.309-1.239,1.345,1.345,0,0,0-1.309,1.239Z"
           class="cls-2" />
        <path
           id="path196"
           transform="translate(-9.985 -18.547)"
           d="M207.31,87.208h1.129v1.079a1.5,1.5,0,0,1,1.379-1.169,1.34,1.34,0,0,1,.491.1v.99a1.805,1.805,0,0,0-.621-.12,1.365,1.365,0,0,0-1.249.83v3.3H207.31Z"
           class="cls-2" />
      </g>
    </g>
    <rect
       id="rect202"
       height="128.316"
       width="242.007"
       y="0.01"
       x="512.419"
       class="cls-1" />
    <g
       id="g214">
      <path
         id="path204"
         transform="translate(-9.985 -18.547)"
         d="M537.368,29.084h1.619l3.109,4.237-.031-4.237h1.62v7h-1.519L538.957,31.7l.03,4.378h-1.619Z"
         class="cls-2" />
      <path
         id="path206"
         transform="translate(-9.985 -18.547)"
         d="M544.868,33.511a2.689,2.689,0,1,1,2.689,2.668A2.624,2.624,0,0,1,544.868,33.511Zm3.8,0a1.126,1.126,0,1,0-1.109,1.319A1.18,1.18,0,0,0,548.666,33.511Z"
         class="cls-2" />
      <path
         id="path208"
         transform="translate(-9.985 -18.547)"
         d="M551.049,33.491a2.486,2.486,0,0,1,2.4-2.6,1.8,1.8,0,0,1,1.379.62V28.964l1.619-.25V36.08h-1.6v-.67a1.948,1.948,0,0,1-1.52.7A2.457,2.457,0,0,1,551.049,33.491Zm3.777.869V32.622a1.314,1.314,0,0,0-.959-.4,1.275,1.275,0,0,0,0,2.549A1.249,1.249,0,0,0,554.826,34.36Z"
         class="cls-2" />
      <path
         id="path210"
         transform="translate(-9.985 -18.547)"
         d="M557.478,33.511a2.586,2.586,0,0,1,2.6-2.669,2.532,2.532,0,0,1,2.538,2.729v.35h-3.548a1.236,1.236,0,0,0,1.209.969,1.279,1.279,0,0,0,1.02-.429l1.069.889a3.006,3.006,0,0,1-2.169.829A2.667,2.667,0,0,1,557.478,33.511ZM561.116,33a1.083,1.083,0,0,0-1.05-.9,1.015,1.015,0,0,0-1,.9Z"
         class="cls-2" />
      <path
         id="path212"
         transform="translate(-9.985 -18.547)"
         d="M567.936,32.441l-2.528-3.357h2.049l1.509,2.118,1.5-2.118h1.97L569.916,32.5l2.678,3.578h-2.049l-1.659-2.36-1.669,2.36h-1.969Z"
         class="cls-2" />
    </g>
    <path
       id="path216"
       transform="translate(-9.985 -18.547)"
       d="M536.588,46.894h99.7V132.7h-99.7Z"
       class="cls-3" />
    <g
       id="g230">
      <path
         id="path218"
         transform="translate(-9.985 -18.547)"
         d="M551.267,57.406h1.859l1.85,5.207,1.878-5.207h1.789l-2.728,7h-1.959Z"
         class="cls-2" />
      <path
         id="path220"
         transform="translate(-9.985 -18.547)"
         d="M559.446,57.406h2.159l1.689,3.358,1.68-3.358h2.158v7h-1.619V59.655L563.274,63.9l-2.248-4.288V64.4h-1.58Z"
         class="cls-2" />
      <path
         id="path222"
         transform="translate(-9.985 -18.547)"
         d="M570.847,57.406h3.418a2.286,2.286,0,1,1,0,4.558h-1.7V64.4h-1.718Zm3.107,3.188c.7,0,1.04-.379,1.04-.889s-.34-.88-1.029-.88h-1.4v1.769Z"
         class="cls-2" />
      <path
         id="path224"
         transform="translate(-9.985 -18.547)"
         d="M577.566,61.834a2.689,2.689,0,1,1,2.689,2.669A2.624,2.624,0,0,1,577.566,61.834Zm3.8,0a1.126,1.126,0,1,0-1.109,1.319A1.181,1.181,0,0,0,581.364,61.834Z"
         class="cls-2" />
      <path
         id="path226"
         transform="translate(-9.985 -18.547)"
         d="M583.747,61.814a2.486,2.486,0,0,1,2.4-2.6,1.8,1.8,0,0,1,1.379.619V57.286l1.619-.249V64.4h-1.6v-.669a1.944,1.944,0,0,1-1.519.7A2.457,2.457,0,0,1,583.747,61.814Zm3.777.869V60.944a1.31,1.31,0,0,0-.959-.4,1.275,1.275,0,0,0,0,2.548A1.254,1.254,0,0,0,587.524,62.683Z"
         class="cls-2" />
      <path
         id="path228"
         transform="translate(-9.985 -18.547)"
         d="M592.436,63.3l2.959-2.927a1.293,1.293,0,0,0,.469-.95c0-.45-.439-.79-1.029-.79a2.419,2.419,0,0,0-1.77.86l-.859-1.049a3.841,3.841,0,0,1,2.68-1.149c1.488,0,2.478.809,2.478,2.028a2.465,2.465,0,0,1-.91,1.829L594.435,63.1l3.029-.01V64.4h-5.028Z"
         class="cls-2" />
    </g>
    <g
       id="g244">
      <g
         id="g236">
        <rect
           id="rect232"
           height="27.347"
           width="69.866"
           y="57.226"
           x="541.761"
           class="cls-1" />
        <path
           id="path234"
           transform="translate(-9.985 -18.547)"
           d="M621.112,76.274V102.62H552.246V76.274h68.866m1-1H551.246V103.62h70.866V75.274Z"
           class="cls-5" />
      </g>
      <g
         id="g242">
        <path
           id="path238"
           transform="translate(-9.985 -18.547)"
           d="M578.809,85.218H580.1L582.247,91l2.168-5.778h1.24l-2.739,7h-1.39Z"
           class="cls-2" />
        <path
           id="path240"
           transform="translate(-9.985 -18.547)"
           d="M586.558,85.218h1.558l2.05,4.248,2.038-4.248h1.56v7h-1.13V86.738l-2.479,4.978-2.488-5.008v5.507h-1.109Z"
           class="cls-2" />
      </g>
    </g>
    <path
       id="path246"
       transform="translate(-9.985 -18.547)"
       d="M650.541,46.894h99.7V132.7h-99.7Z"
       class="cls-3" />
    <g
       id="g260">
      <path
         id="path248"
         transform="translate(-9.985 -18.547)"
         d="M665.22,57.406h1.859l1.849,5.207,1.879-5.207H672.6l-2.729,7h-1.959Z"
         class="cls-2" />
      <path
         id="path250"
         transform="translate(-9.985 -18.547)"
         d="M673.4,57.406h2.16l1.688,3.358,1.68-3.358h2.158v7h-1.619V59.655L677.227,63.9l-2.249-4.288V64.4H673.4Z"
         class="cls-2" />
      <path
         id="path252"
         transform="translate(-9.985 -18.547)"
         d="M684.8,57.406h3.418a2.286,2.286,0,1,1,0,4.558h-1.7V64.4H684.8Zm3.107,3.188c.7,0,1.04-.379,1.04-.889s-.34-.88-1.029-.88h-1.4v1.769Z"
         class="cls-2" />
      <path
         id="path254"
         transform="translate(-9.985 -18.547)"
         d="M691.519,61.834a2.689,2.689,0,1,1,2.689,2.669A2.624,2.624,0,0,1,691.519,61.834Zm3.8,0a1.126,1.126,0,1,0-1.109,1.319A1.181,1.181,0,0,0,695.317,61.834Z"
         class="cls-2" />
      <path
         id="path256"
         transform="translate(-9.985 -18.547)"
         d="M697.7,61.814a2.486,2.486,0,0,1,2.4-2.6,1.8,1.8,0,0,1,1.379.619V57.286l1.62-.249V64.4h-1.6v-.669a1.944,1.944,0,0,1-1.519.7A2.457,2.457,0,0,1,697.7,61.814Zm3.778.869V60.944a1.31,1.31,0,0,0-.959-.4,1.275,1.275,0,0,0,0,2.548A1.254,1.254,0,0,0,701.477,62.683Z"
         class="cls-2" />
      <path
         id="path258"
         transform="translate(-9.985 -18.547)"
         d="M706.189,63.383l1.039-.959a1.986,1.986,0,0,0,1.7.739c.759,0,1.259-.34,1.259-.86,0-.45-.36-.729-.919-.729h-.9V60.3h.739c.571,0,.911-.29.911-.779s-.47-.859-1.1-.859a1.947,1.947,0,0,0-1.629.8l-1.05-.95a3.676,3.676,0,0,1,2.738-1.218c1.53,0,2.589.829,2.589,2.018a1.7,1.7,0,0,1-1.329,1.6c.92.18,1.509.75,1.509,1.519,0,1.209-1.169,2.079-2.8,2.079A3.656,3.656,0,0,1,706.189,63.383Z"
         class="cls-2" />
    </g>
    <g
       id="g274">
      <g
         id="g266">
        <rect
           id="rect262"
           height="27.347"
           width="69.866"
           y="57.226"
           x="655.714"
           class="cls-1" />
        <path
           id="path264"
           transform="translate(-9.985 -18.547)"
           d="M735.065,76.274V102.62H666.2V76.274h68.866m1-1H665.2V103.62h70.866V75.274Z"
           class="cls-5" />
      </g>
      <g
         id="g272">
        <path
           id="path268"
           transform="translate(-9.985 -18.547)"
           d="M692.761,85.218h1.289L696.2,91l2.17-5.778h1.238l-2.738,7h-1.389Z"
           class="cls-2" />
        <path
           id="path270"
           transform="translate(-9.985 -18.547)"
           d="M700.51,85.218h1.559l2.049,4.248,2.039-4.248h1.559v7h-1.129V86.738l-2.479,4.978-2.489-5.008v5.507H700.51Z"
           class="cls-2" />
      </g>
    </g>
    <g
       id="g296">
      <path
         id="path276"
         transform="translate(-9.985 -18.547)"
         d="M168.12,115.657l-1.116.477v-.873l1.476-.639h.621v6.3h-.981Z"
         class="cls-2" />
      <path
         id="path278"
         transform="translate(-9.985 -18.547)"
         d="M170.2,117.773c0-1.935,1.053-3.25,2.583-3.25s2.575,1.315,2.575,3.25-1.044,3.24-2.575,3.24S170.2,119.7,170.2,117.773Zm4.177,0c0-1.45-.621-2.377-1.594-2.377s-1.6.927-1.6,2.377.629,2.367,1.6,2.367S174.376,119.214,174.376,117.773Z"
         class="cls-2" />
      <path
         id="path280"
         transform="translate(-9.985 -18.547)"
         d="M176.31,120.356a.631.631,0,1,1,1.26,0,.63.63,0,1,1-1.26,0Z"
         class="cls-2" />
      <path
         id="path282"
         transform="translate(-9.985 -18.547)"
         d="M179.514,115.657l-1.117.477v-.873l1.477-.639h.621v6.3h-.981Z"
         class="cls-2" />
      <path
         id="path284"
         transform="translate(-9.985 -18.547)"
         d="M181.6,120.213l2.584-2.7a1.668,1.668,0,0,0,.613-1.206,1.024,1.024,0,0,0-1.144-.918,2.259,2.259,0,0,0-1.638.765l-.559-.675a3.207,3.207,0,0,1,2.215-.954c1.233,0,2.08.7,2.08,1.729a2.391,2.391,0,0,1-.892,1.764l-2.008,2.071,3.017-.009v.846H181.6Z"
         class="cls-2" />
      <path
         id="path286"
         transform="translate(-9.985 -18.547)"
         d="M186.749,119.186a1.669,1.669,0,0,1,1.351-1.539,1.526,1.526,0,0,1-1.134-1.4,2.17,2.17,0,0,1,4.249,0,1.526,1.526,0,0,1-1.135,1.4,1.668,1.668,0,0,1,1.351,1.539c0,1.072-.973,1.837-2.341,1.837S186.749,120.258,186.749,119.186Zm3.691-.062c0-.622-.567-1.081-1.35-1.081s-1.351.459-1.351,1.081a1.382,1.382,0,0,0,2.7,0Zm-.189-2.819a1.177,1.177,0,1,0-1.161.982A1.056,1.056,0,0,0,190.251,116.305Z"
         class="cls-2" />
      <path
         id="path288"
         transform="translate(-9.985 -18.547)"
         d="M192.393,120.356a.63.63,0,1,1,1.259,0,.63.63,0,1,1-1.259,0Z"
         class="cls-2" />
      <path
         id="path290"
         transform="translate(-9.985 -18.547)"
         d="M196.668,117.656l-2.277-3.034h1.287l1.647,2.251,1.63-2.251h1.251l-2.277,3.061,2.421,3.241h-1.3l-1.774-2.467-1.792,2.467h-1.242Z"
         class="cls-2" />
      <path
         id="path292"
         transform="translate(-9.985 -18.547)"
         d="M200.942,120.356a.631.631,0,1,1,1.261,0,.631.631,0,1,1-1.261,0Z"
         class="cls-2" />
      <path
         id="path294"
         transform="translate(-9.985 -18.547)"
         d="M205.219,117.656l-2.279-3.034h1.287l1.648,2.251,1.63-2.251h1.251l-2.278,3.061,2.422,3.241h-1.3l-1.773-2.467-1.791,2.467H202.8Z"
         class="cls-2" />
    </g>
    <g
       id="g318">
      <path
         id="path298"
         transform="translate(-9.985 -18.547)"
         d="M310.39,115.657l-1.117.477v-.873l1.477-.639h.621v6.3h-.981Z"
         class="cls-2" />
      <path
         id="path300"
         transform="translate(-9.985 -18.547)"
         d="M312.469,117.773c0-1.935,1.052-3.25,2.583-3.25s2.575,1.315,2.575,3.25-1.044,3.24-2.575,3.24S312.469,119.7,312.469,117.773Zm4.176,0c0-1.45-.621-2.377-1.593-2.377s-1.6.927-1.6,2.377.63,2.367,1.6,2.367S316.645,119.214,316.645,117.773Z"
         class="cls-2" />
      <path
         id="path302"
         transform="translate(-9.985 -18.547)"
         d="M318.579,120.356a.631.631,0,1,1,.631.649A.637.637,0,0,1,318.579,120.356Z"
         class="cls-2" />
      <path
         id="path304"
         transform="translate(-9.985 -18.547)"
         d="M321.783,115.657l-1.116.477v-.873l1.476-.639h.622v6.3h-.982Z"
         class="cls-2" />
      <path
         id="path306"
         transform="translate(-9.985 -18.547)"
         d="M323.871,120.213l2.584-2.7a1.666,1.666,0,0,0,.612-1.206,1.023,1.023,0,0,0-1.143-.918,2.263,2.263,0,0,0-1.639.765l-.559-.675a3.209,3.209,0,0,1,2.215-.954c1.234,0,2.08.7,2.08,1.729a2.389,2.389,0,0,1-.891,1.764l-2.008,2.071,3.017-.009v.846h-4.268Z"
         class="cls-2" />
      <path
         id="path308"
         transform="translate(-9.985 -18.547)"
         d="M333.772,117.6c0,2.052-1.171,3.411-2.934,3.411a2.819,2.819,0,0,1-1.675-.54l.54-.728a2,2,0,0,0,1.216.387c1.17,0,1.854-.937,1.872-2.521a2.155,2.155,0,0,1-1.737.927,1.959,1.959,0,0,1-2.117-1.936,2.1,2.1,0,0,1,2.224-2.079C332.71,114.523,333.772,115.774,333.772,117.6Zm-1.026-.594c-.162-.991-.747-1.639-1.549-1.639a1.218,1.218,0,0,0-1.287,1.216,1.193,1.193,0,0,0,1.3,1.178A2.029,2.029,0,0,0,332.746,117.008Z"
         class="cls-2" />
      <path
         id="path310"
         transform="translate(-9.985 -18.547)"
         d="M334.734,120.356a.631.631,0,1,1,1.26,0,.63.63,0,1,1-1.26,0Z"
         class="cls-2" />
      <path
         id="path312"
         transform="translate(-9.985 -18.547)"
         d="M339.01,117.656l-2.278-3.034h1.287l1.648,2.251,1.63-2.251h1.251l-2.278,3.061,2.421,3.241h-1.3l-1.773-2.467-1.792,2.467h-1.242Z"
         class="cls-2" />
      <path
         id="path314"
         transform="translate(-9.985 -18.547)"
         d="M343.284,120.356a.631.631,0,1,1,1.26,0,.63.63,0,1,1-1.26,0Z"
         class="cls-2" />
      <path
         id="path316"
         transform="translate(-9.985 -18.547)"
         d="M347.56,117.656l-2.278-3.034h1.287l1.648,2.251,1.63-2.251H351.1l-2.278,3.061,2.421,3.241h-1.3l-1.773-2.467-1.792,2.467h-1.242Z"
         class="cls-2" />
    </g>
    <g
       id="g340">
      <path
         id="path320"
         transform="translate(-9.985 -18.547)"
         d="M425.477,115.657l-1.116.477v-.873l1.477-.639h.621v6.3h-.982Z"
         class="cls-2" />
      <path
         id="path322"
         transform="translate(-9.985 -18.547)"
         d="M427.557,117.773c0-1.935,1.052-3.25,2.583-3.25s2.575,1.315,2.575,3.25-1.044,3.24-2.575,3.24S427.557,119.7,427.557,117.773Zm4.176,0c0-1.45-.621-2.377-1.593-2.377s-1.6.927-1.6,2.377.63,2.367,1.6,2.367S431.733,119.214,431.733,117.773Z"
         class="cls-2" />
      <path
         id="path324"
         transform="translate(-9.985 -18.547)"
         d="M433.667,120.356a.631.631,0,1,1,.631.649A.637.637,0,0,1,433.667,120.356Z"
         class="cls-2" />
      <path
         id="path326"
         transform="translate(-9.985 -18.547)"
         d="M436.871,115.657l-1.116.477v-.873l1.476-.639h.621v6.3h-.981Z"
         class="cls-2" />
      <path
         id="path328"
         transform="translate(-9.985 -18.547)"
         d="M438.959,120.213l2.584-2.7a1.666,1.666,0,0,0,.612-1.206,1.023,1.023,0,0,0-1.143-.918,2.261,2.261,0,0,0-1.639.765l-.559-.675a3.209,3.209,0,0,1,2.215-.954c1.234,0,2.08.7,2.08,1.729a2.392,2.392,0,0,1-.891,1.764l-2.008,2.071,3.016-.009v.846h-4.267Z"
         class="cls-2" />
      <path
         id="path330"
         transform="translate(-9.985 -18.547)"
         d="M448.86,117.6c0,2.052-1.171,3.411-2.934,3.411a2.819,2.819,0,0,1-1.675-.54l.54-.728a2,2,0,0,0,1.216.387c1.17,0,1.854-.937,1.872-2.521a2.155,2.155,0,0,1-1.737.927,1.959,1.959,0,0,1-2.117-1.936,2.1,2.1,0,0,1,2.224-2.079C447.8,114.523,448.86,115.774,448.86,117.6Zm-1.026-.594c-.162-.991-.747-1.639-1.549-1.639A1.218,1.218,0,0,0,445,116.585a1.193,1.193,0,0,0,1.3,1.178A2.03,2.03,0,0,0,447.834,117.008Z"
         class="cls-2" />
      <path
         id="path332"
         transform="translate(-9.985 -18.547)"
         d="M449.822,120.356a.631.631,0,1,1,1.26,0,.63.63,0,1,1-1.26,0Z"
         class="cls-2" />
      <path
         id="path334"
         transform="translate(-9.985 -18.547)"
         d="M454.1,117.656l-2.278-3.034h1.287l1.648,2.251,1.63-2.251h1.251l-2.278,3.061,2.421,3.241h-1.3l-1.773-2.467-1.792,2.467h-1.242Z"
         class="cls-2" />
      <path
         id="path336"
         transform="translate(-9.985 -18.547)"
         d="M458.372,120.356a.631.631,0,1,1,1.26,0,.63.63,0,1,1-1.26,0Z"
         class="cls-2" />
      <path
         id="path338"
         transform="translate(-9.985 -18.547)"
         d="M462.647,117.656l-2.277-3.034h1.287l1.648,2.251,1.63-2.251h1.25l-2.277,3.061,2.421,3.241h-1.3l-1.773-2.467-1.792,2.467h-1.242Z"
         class="cls-2" />
    </g>
    <g
       id="g362">
      <path
         id="path342"
         transform="translate(-9.985 -18.547)"
         d="M566.3,115.657l-1.117.477v-.873l1.477-.639h.621v6.3H566.3Z"
         class="cls-2" />
      <path
         id="path344"
         transform="translate(-9.985 -18.547)"
         d="M568.382,117.773c0-1.935,1.053-3.25,2.583-3.25s2.575,1.315,2.575,3.25-1.044,3.24-2.575,3.24S568.382,119.7,568.382,117.773Zm4.177,0c0-1.45-.622-2.377-1.594-2.377s-1.6.927-1.6,2.377.63,2.367,1.6,2.367S572.559,119.214,572.559,117.773Z"
         class="cls-2" />
      <path
         id="path346"
         transform="translate(-9.985 -18.547)"
         d="M574.492,120.356a.631.631,0,1,1,1.261,0,.631.631,0,1,1-1.261,0Z"
         class="cls-2" />
      <path
         id="path348"
         transform="translate(-9.985 -18.547)"
         d="M577.7,115.657l-1.116.477v-.873l1.477-.639h.621v6.3H577.7Z"
         class="cls-2" />
      <path
         id="path350"
         transform="translate(-9.985 -18.547)"
         d="M579.64,120.078l.657-.631a2.05,2.05,0,0,0,1.657.712c.819,0,1.377-.424,1.377-1.045a1,1,0,0,0-1.125-.954h-.774v-.828h.693a.914.914,0,0,0,1.008-.937,1.093,1.093,0,0,0-1.2-1,1.938,1.938,0,0,0-1.566.747l-.666-.621a3.035,3.035,0,0,1,2.26-1,1.916,1.916,0,0,1,2.151,1.774,1.527,1.527,0,0,1-1.188,1.431,1.564,1.564,0,0,1,1.395,1.449c0,1.072-.99,1.846-2.349,1.846A3.172,3.172,0,0,1,579.64,120.078Z"
         class="cls-2" />
      <path
         id="path352"
         transform="translate(-9.985 -18.547)"
         d="M585.238,117.773c0-1.935,1.054-3.25,2.584-3.25s2.575,1.315,2.575,3.25-1.045,3.24-2.575,3.24S585.238,119.7,585.238,117.773Zm4.178,0c0-1.45-.621-2.377-1.594-2.377s-1.6.927-1.6,2.377.63,2.367,1.6,2.367S589.416,119.214,589.416,117.773Z"
         class="cls-2" />
      <path
         id="path354"
         transform="translate(-9.985 -18.547)"
         d="M591.35,120.356a.63.63,0,1,1,1.259,0,.63.63,0,1,1-1.259,0Z"
         class="cls-2" />
      <path
         id="path356"
         transform="translate(-9.985 -18.547)"
         d="M595.625,117.656l-2.277-3.034h1.287l1.647,2.251,1.63-2.251h1.251l-2.277,3.061,2.421,3.241h-1.3l-1.774-2.467-1.792,2.467H593.2Z"
         class="cls-2" />
      <path
         id="path358"
         transform="translate(-9.985 -18.547)"
         d="M599.9,120.356a.631.631,0,1,1,1.26,0,.63.63,0,1,1-1.26,0Z"
         class="cls-2" />
      <path
         id="path360"
         transform="translate(-9.985 -18.547)"
         d="M604.175,117.656l-2.278-3.034h1.288l1.647,2.251,1.63-2.251h1.251l-2.278,3.061,2.421,3.241h-1.3l-1.773-2.467L603,120.924h-1.242Z"
         class="cls-2" />
    </g>
    <g
       id="g384">
      <path
         id="path364"
         transform="translate(-9.985 -18.547)"
         d="M680.255,115.657l-1.116.477v-.873l1.476-.639h.621v6.3h-.981Z"
         class="cls-2" />
      <path
         id="path366"
         transform="translate(-9.985 -18.547)"
         d="M682.334,117.773c0-1.935,1.053-3.25,2.583-3.25s2.575,1.315,2.575,3.25-1.044,3.24-2.575,3.24S682.334,119.7,682.334,117.773Zm4.177,0c0-1.45-.621-2.377-1.594-2.377s-1.6.927-1.6,2.377.63,2.367,1.6,2.367S686.511,119.214,686.511,117.773Z"
         class="cls-2" />
      <path
         id="path368"
         transform="translate(-9.985 -18.547)"
         d="M688.444,120.356a.631.631,0,1,1,1.261,0,.631.631,0,1,1-1.261,0Z"
         class="cls-2" />
      <path
         id="path370"
         transform="translate(-9.985 -18.547)"
         d="M691.648,115.657l-1.116.477v-.873l1.477-.639h.621v6.3h-.982Z"
         class="cls-2" />
      <path
         id="path372"
         transform="translate(-9.985 -18.547)"
         d="M693.592,120.078l.657-.631a2.05,2.05,0,0,0,1.657.712c.82,0,1.377-.424,1.377-1.045a1,1,0,0,0-1.125-.954h-.774v-.828h.693a.914.914,0,0,0,1.008-.937,1.093,1.093,0,0,0-1.2-1,1.938,1.938,0,0,0-1.567.747l-.666-.621a3.035,3.035,0,0,1,2.26-1,1.916,1.916,0,0,1,2.151,1.774,1.527,1.527,0,0,1-1.188,1.431,1.564,1.564,0,0,1,1.395,1.449c0,1.072-.99,1.846-2.349,1.846A3.172,3.172,0,0,1,693.592,120.078Z"
         class="cls-2" />
      <path
         id="path374"
         transform="translate(-9.985 -18.547)"
         d="M699.19,117.773c0-1.935,1.054-3.25,2.584-3.25s2.576,1.315,2.576,3.25-1.045,3.24-2.576,3.24S699.19,119.7,699.19,117.773Zm4.178,0c0-1.45-.621-2.377-1.594-2.377s-1.6.927-1.6,2.377.63,2.367,1.6,2.367S703.368,119.214,703.368,117.773Z"
         class="cls-2" />
      <path
         id="path376"
         transform="translate(-9.985 -18.547)"
         d="M705.3,120.356a.63.63,0,1,1,1.259,0,.63.63,0,1,1-1.259,0Z"
         class="cls-2" />
      <path
         id="path378"
         transform="translate(-9.985 -18.547)"
         d="M709.577,117.656l-2.277-3.034h1.287l1.647,2.251,1.63-2.251h1.251l-2.277,3.061,2.421,3.241h-1.3l-1.774-2.467-1.792,2.467h-1.242Z"
         class="cls-2" />
      <path
         id="path380"
         transform="translate(-9.985 -18.547)"
         d="M713.851,120.356a.631.631,0,1,1,1.26,0,.63.63,0,1,1-1.26,0Z"
         class="cls-2" />
      <path
         id="path382"
         transform="translate(-9.985 -18.547)"
         d="M718.127,117.656l-2.277-3.034h1.287l1.647,2.251,1.63-2.251h1.251l-2.277,3.061,2.421,3.241h-1.3l-1.774-2.467-1.792,2.467h-1.242Z"
         class="cls-2" />
    </g>
  </g>
  <g
     data-name="Layer 6"
     id="Layer_6">
    <g
       id="g445">
      <path
         id="path387"
         transform="translate(-9.985 -18.547)"
         d="M728.341,176.634h1.08v2.872l2.737-2.872h1.323l-3.006,3.034,3.115,3.268h-1.432l-2.737-2.944v2.944h-1.08Z"
         class="cls-6" />
      <path
         id="path389"
         transform="translate(-9.985 -18.547)"
         d="M734.191,181.4v-2.971h1.027V181.1a.974.974,0,0,0,.99,1.09,1.126,1.126,0,0,0,.981-.541v-3.223h1.017v4.511h-1.017v-.729a1.629,1.629,0,0,1-1.431.8A1.525,1.525,0,0,1,734.191,181.4Z"
         class="cls-6" />
      <path
         id="path391"
         transform="translate(-9.985 -18.547)"
         d="M739.465,176.508l1.017-.171v2.692a1.757,1.757,0,0,1,1.386-.64,2.309,2.309,0,0,1-.062,4.592,1.715,1.715,0,0,1-1.342-.621v.576h-1Zm3.439,4.177a1.364,1.364,0,0,0-1.342-1.44,1.334,1.334,0,0,0-1.08.5v1.882a1.391,1.391,0,0,0,1.08.5A1.361,1.361,0,0,0,742.9,180.685Z"
         class="cls-6" />
      <path
         id="path393"
         transform="translate(-9.985 -18.547)"
         d="M744.757,180.685a2.227,2.227,0,0,1,2.2-2.332,2.169,2.169,0,0,1,2.134,2.332v.243h-3.331a1.38,1.38,0,0,0,1.35,1.261,1.5,1.5,0,0,0,1.072-.424l.666.6a2.609,2.609,0,0,1-1.783.657A2.29,2.29,0,0,1,744.757,180.685Zm3.367-.386a1.227,1.227,0,0,0-1.18-1.117,1.21,1.21,0,0,0-1.178,1.117Z"
         class="cls-6" />
      <path
         id="path395"
         transform="translate(-9.985 -18.547)"
         d="M750.121,178.425h1.017v.973a1.355,1.355,0,0,1,1.242-1.054,1.222,1.222,0,0,1,.441.09v.892a1.6,1.6,0,0,0-.557-.109,1.229,1.229,0,0,0-1.126.749v2.97h-1.017Z"
         class="cls-6" />
      <path
         id="path397"
         transform="translate(-9.985 -18.547)"
         d="M753.658,178.425h1.017v.739a1.647,1.647,0,0,1,1.423-.811,1.523,1.523,0,0,1,1.575,1.613v2.97h-1.027v-2.682a.971.971,0,0,0-.99-1.081,1.123,1.123,0,0,0-.981.549v3.214h-1.017Z"
         class="cls-6" />
      <path
         id="path399"
         transform="translate(-9.985 -18.547)"
         d="M758.688,180.685a2.228,2.228,0,0,1,2.2-2.332,2.168,2.168,0,0,1,2.133,2.332v.243h-3.331a1.382,1.382,0,0,0,1.351,1.261,1.5,1.5,0,0,0,1.071-.424l.666.6a2.606,2.606,0,0,1-1.782.657A2.29,2.29,0,0,1,758.688,180.685Zm3.368-.386a1.228,1.228,0,0,0-1.18-1.117A1.211,1.211,0,0,0,759.7,180.3Z"
         class="cls-6" />
      <path
         id="path401"
         transform="translate(-9.985 -18.547)"
         d="M764.61,181.765v-2.529h-.9v-.811h.9v-1.242l1.018-.216v1.458h1.251v.811h-1.251v2.305c0,.441.171.612.63.612a1.907,1.907,0,0,0,.612-.108v.855a3.2,3.2,0,0,1-.873.126C765.088,183.026,764.61,182.593,764.61,181.765Z"
         class="cls-6" />
      <path
         id="path403"
         transform="translate(-9.985 -18.547)"
         d="M767.571,180.685a2.227,2.227,0,0,1,2.2-2.332,2.168,2.168,0,0,1,2.133,2.332v.243H768.57a1.382,1.382,0,0,0,1.351,1.261,1.5,1.5,0,0,0,1.071-.424l.666.6a2.608,2.608,0,0,1-1.782.657A2.29,2.29,0,0,1,767.571,180.685Zm3.367-.386a1.227,1.227,0,0,0-1.179-1.117,1.21,1.21,0,0,0-1.179,1.117Z"
         class="cls-6" />
      <path
         id="path405"
         transform="translate(-9.985 -18.547)"
         d="M772.53,182.414l.477-.675a2.621,2.621,0,0,0,1.45.513c.54,0,.909-.252.909-.613,0-.279-.189-.423-.631-.512l-.792-.136c-.882-.161-1.3-.567-1.3-1.242,0-.846.693-1.4,1.747-1.4a3.247,3.247,0,0,1,1.773.541l-.477.675a2.447,2.447,0,0,0-1.36-.433c-.468,0-.774.2-.774.523,0,.288.162.414.631.5l.8.153c.9.162,1.333.576,1.333,1.251a1.657,1.657,0,0,1-1.845,1.468A3.017,3.017,0,0,1,772.53,182.414Z"
         class="cls-6" />
      <path
         id="path407"
         transform="translate(-9.985 -18.547)"
         d="M779.4,176.634h2.818a1.955,1.955,0,1,1,0,3.9h-1.738v2.4H779.4Zm2.647,3.016a1.06,1.06,0,1,0,.009-2.106h-1.576v2.106Z"
         class="cls-6" />
      <path
         id="path409"
         transform="translate(-9.985 -18.547)"
         d="M785.175,180.685a2.265,2.265,0,1,1,2.268,2.332A2.247,2.247,0,0,1,785.175,180.685Zm3.529,0a1.279,1.279,0,1,0-1.261,1.468A1.339,1.339,0,0,0,788.7,180.685Z"
         class="cls-6" />
      <path
         id="path411"
         transform="translate(-9.985 -18.547)"
         d="M790.548,180.685a2.186,2.186,0,0,1,2.106-2.3,1.727,1.727,0,0,1,1.315.585v-2.493l1.017-.18v6.635h-1.009v-.595a1.755,1.755,0,0,1-1.395.64A2.157,2.157,0,0,1,790.548,180.685Zm3.421.946v-1.9a1.4,1.4,0,0,0-1.072-.486,1.444,1.444,0,0,0,0,2.881A1.325,1.325,0,0,0,793.969,181.631Z"
         class="cls-6" />
      <path
         id="path413"
         transform="translate(-9.985 -18.547)"
         d="M797.855,182.017l.585-.792a3.159,3.159,0,0,0,2.125.918c.828,0,1.4-.423,1.4-1.008,0-.512-.306-.755-1.144-.9l-1.161-.2c-1.089-.2-1.62-.738-1.62-1.6,0-1.142.909-1.9,2.322-1.9a4.2,4.2,0,0,1,2.53.81l-.549.811a3.3,3.3,0,0,0-2.017-.73c-.756,0-1.26.387-1.26.9,0,.459.288.693.972.8l1.126.189c1.268.225,1.863.783,1.863,1.737,0,1.162-1.026,1.981-2.53,1.981A3.967,3.967,0,0,1,797.855,182.017Z"
         class="cls-6" />
      <path
         id="path415"
         transform="translate(-9.985 -18.547)"
         d="M804.129,176.634h2.3a3.151,3.151,0,1,1,0,6.3h-2.3ZM806.46,182a2.224,2.224,0,0,0,0-4.43h-1.251V182Z"
         class="cls-6" />
      <path
         id="path417"
         transform="translate(-9.985 -18.547)"
         d="M810.807,176.634h1.053l3.286,4.582-.018-4.582h1.017v6.3h-.963l-3.376-4.709.018,4.709h-1.017Z"
         class="cls-6" />
      <path
         id="path419"
         transform="translate(-9.985 -18.547)"
         d="M729.034,188.469l-1.116.477v-.873l1.476-.639h.622v6.3h-.982Z"
         class="cls-6" />
      <path
         id="path421"
         transform="translate(-9.985 -18.547)"
         d="M731.113,190.585c0-1.936,1.053-3.25,2.583-3.25s2.575,1.314,2.575,3.25-1.044,3.241-2.575,3.241S731.113,192.511,731.113,190.585Zm4.177,0c0-1.45-.621-2.377-1.594-2.377s-1.6.927-1.6,2.377.63,2.368,1.6,2.368S735.29,192.025,735.29,190.585Z"
         class="cls-6" />
      <path
         id="path423"
         transform="translate(-9.985 -18.547)"
         d="M737.224,193.169a.631.631,0,1,1,1.26,0,.63.63,0,1,1-1.26,0Z"
         class="cls-6" />
      <path
         id="path425"
         transform="translate(-9.985 -18.547)"
         d="M740.428,188.469l-1.117.477v-.873l1.477-.639h.621v6.3h-.981Z"
         class="cls-6" />
      <path
         id="path427"
         transform="translate(-9.985 -18.547)"
         d="M742.516,193.024l2.584-2.7a1.671,1.671,0,0,0,.612-1.206,1.024,1.024,0,0,0-1.144-.919,2.257,2.257,0,0,0-1.638.766l-.559-.676a3.207,3.207,0,0,1,2.215-.954c1.233,0,2.08.7,2.08,1.728a2.391,2.391,0,0,1-.892,1.765l-2.007,2.07,3.016-.009v.847h-4.267Z"
         class="cls-6" />
      <path
         id="path429"
         transform="translate(-9.985 -18.547)"
         d="M747.663,192a1.67,1.67,0,0,1,1.351-1.54,1.526,1.526,0,0,1-1.134-1.4,2.17,2.17,0,0,1,4.249,0,1.526,1.526,0,0,1-1.135,1.4,1.668,1.668,0,0,1,1.351,1.54c0,1.071-.973,1.836-2.341,1.836S747.663,193.07,747.663,192Zm3.691-.064c0-.621-.567-1.08-1.35-1.08s-1.351.459-1.351,1.08a1.382,1.382,0,0,0,2.7,0Zm-.189-2.817a1.178,1.178,0,1,0-1.161.98A1.056,1.056,0,0,0,751.165,189.118Z"
         class="cls-6" />
      <path
         id="path431"
         transform="translate(-9.985 -18.547)"
         d="M753.307,193.169a.63.63,0,1,1,1.259,0,.63.63,0,1,1-1.259,0Z"
         class="cls-6" />
      <path
         id="path433"
         transform="translate(-9.985 -18.547)"
         d="M755.512,190.585c0-1.936,1.052-3.25,2.583-3.25s2.575,1.314,2.575,3.25-1.044,3.241-2.575,3.241S755.512,192.511,755.512,190.585Zm4.176,0c0-1.45-.621-2.377-1.593-2.377s-1.6.927-1.6,2.377.63,2.368,1.6,2.368S759.688,192.025,759.688,190.585Z"
         class="cls-6" />
      <path
         id="path435"
         transform="translate(-9.985 -18.547)"
         d="M761.623,193.169a.631.631,0,1,1,1.26,0,.63.63,0,1,1-1.26,0Z"
         class="cls-6" />
      <path
         id="path437"
         transform="translate(-9.985 -18.547)"
         d="M763.828,190.585c0-1.936,1.053-3.25,2.583-3.25s2.575,1.314,2.575,3.25-1.044,3.241-2.575,3.241S763.828,192.511,763.828,190.585Zm4.177,0c0-1.45-.621-2.377-1.594-2.377s-1.6.927-1.6,2.377.629,2.368,1.6,2.368S768.005,192.025,768.005,190.585Z"
         class="cls-6" />
      <path
         id="path439"
         transform="translate(-9.985 -18.547)"
         d="M772.6,187.434h.99l-3.61,8.183h-.982Z"
         class="cls-6" />
      <path
         id="path441"
         transform="translate(-9.985 -18.547)"
         d="M775.365,188.469l-1.116.477v-.873l1.477-.639h.621v6.3h-.982Z"
         class="cls-6" />
      <path
         id="path443"
         transform="translate(-9.985 -18.547)"
         d="M780.748,192.178h-3.394v-.8l3.278-3.943H781.7v3.9h.837v.846H781.7v1.558h-.955Zm0-.846v-2.818l-2.322,2.818Z"
         class="cls-6" />
    </g>
    <g
       id="g513">
      <path
         id="path447"
         transform="translate(-9.985 -18.547)"
         d="M728.342,314.4h1.08v2.871l2.736-2.871h1.324l-3.007,3.033,3.115,3.269h-1.432l-2.736-2.944V320.7h-1.08Z"
         class="cls-7" />
      <path
         id="path449"
         transform="translate(-9.985 -18.547)"
         d="M734.191,319.161V316.19h1.027v2.674a.975.975,0,0,0,.99,1.09,1.124,1.124,0,0,0,.981-.541V316.19h1.018V320.7h-1.018v-.73a1.625,1.625,0,0,1-1.431.8A1.525,1.525,0,0,1,734.191,319.161Z"
         class="cls-7" />
      <path
         id="path451"
         transform="translate(-9.985 -18.547)"
         d="M739.466,314.273l1.016-.171v2.692a1.756,1.756,0,0,1,1.387-.639,2.309,2.309,0,0,1-.063,4.591,1.713,1.713,0,0,1-1.341-.621v.576h-1Zm3.438,4.177a1.364,1.364,0,0,0-1.341-1.44,1.34,1.34,0,0,0-1.081.5V319.4a1.391,1.391,0,0,0,1.081.5A1.361,1.361,0,0,0,742.9,318.45Z"
         class="cls-7" />
      <path
         id="path453"
         transform="translate(-9.985 -18.547)"
         d="M744.758,318.45a2.227,2.227,0,0,1,2.2-2.332,2.169,2.169,0,0,1,2.134,2.332v.243h-3.331a1.38,1.38,0,0,0,1.35,1.261,1.5,1.5,0,0,0,1.072-.424l.666.6a2.613,2.613,0,0,1-1.783.658A2.289,2.289,0,0,1,744.758,318.45Zm3.366-.387a1.226,1.226,0,0,0-1.179-1.116,1.211,1.211,0,0,0-1.179,1.116Z"
         class="cls-7" />
      <path
         id="path455"
         transform="translate(-9.985 -18.547)"
         d="M750.121,316.19h1.018v.973a1.353,1.353,0,0,1,1.242-1.053,1.166,1.166,0,0,1,.441.09v.891a1.619,1.619,0,0,0-.558-.108,1.226,1.226,0,0,0-1.125.747V320.7h-1.018Z"
         class="cls-7" />
      <path
         id="path457"
         transform="translate(-9.985 -18.547)"
         d="M753.658,316.19h1.018v.738a1.643,1.643,0,0,1,1.422-.81,1.523,1.523,0,0,1,1.576,1.612V320.7h-1.027v-2.683a.971.971,0,0,0-.99-1.08,1.122,1.122,0,0,0-.981.549V320.7h-1.018Z"
         class="cls-7" />
      <path
         id="path459"
         transform="translate(-9.985 -18.547)"
         d="M758.689,318.45a2.227,2.227,0,0,1,2.2-2.332,2.168,2.168,0,0,1,2.133,2.332v.243h-3.331a1.381,1.381,0,0,0,1.351,1.261,1.5,1.5,0,0,0,1.071-.424l.666.6a2.611,2.611,0,0,1-1.782.658A2.289,2.289,0,0,1,758.689,318.45Zm3.367-.387a1.227,1.227,0,0,0-1.179-1.116,1.212,1.212,0,0,0-1.18,1.116Z"
         class="cls-7" />
      <path
         id="path461"
         transform="translate(-9.985 -18.547)"
         d="M764.611,319.53V317h-.9v-.811h.9v-1.242l1.017-.216v1.458h1.252V317h-1.252v2.3c0,.442.171.613.631.613a1.889,1.889,0,0,0,.612-.109v.856a3.206,3.206,0,0,1-.874.126C765.088,320.791,764.611,320.358,764.611,319.53Z"
         class="cls-7" />
      <path
         id="path463"
         transform="translate(-9.985 -18.547)"
         d="M767.572,318.45a2.227,2.227,0,0,1,2.2-2.332,2.168,2.168,0,0,1,2.134,2.332v.243h-3.331a1.381,1.381,0,0,0,1.351,1.261,1.5,1.5,0,0,0,1.071-.424l.666.6a2.612,2.612,0,0,1-1.782.658A2.289,2.289,0,0,1,767.572,318.45Zm3.366-.387a1.226,1.226,0,0,0-1.178-1.116,1.211,1.211,0,0,0-1.18,1.116Z"
         class="cls-7" />
      <path
         id="path465"
         transform="translate(-9.985 -18.547)"
         d="M772.53,320.178l.478-.674a2.616,2.616,0,0,0,1.449.512c.54,0,.909-.252.909-.611,0-.279-.188-.424-.63-.514l-.792-.134c-.883-.163-1.3-.568-1.3-1.243,0-.846.693-1.4,1.746-1.4a3.245,3.245,0,0,1,1.773.541l-.476.675a2.447,2.447,0,0,0-1.36-.433c-.469,0-.774.2-.774.523,0,.288.162.415.63.5l.8.153c.9.162,1.332.576,1.332,1.251a1.656,1.656,0,0,1-1.845,1.468A3.014,3.014,0,0,1,772.53,320.178Z"
         class="cls-7" />
      <path
         id="path467"
         transform="translate(-9.985 -18.547)"
         d="M778.857,319.782l.585-.791a3.159,3.159,0,0,0,2.125.918c.828,0,1.4-.424,1.4-1.008,0-.514-.306-.757-1.144-.9l-1.161-.2c-1.09-.2-1.62-.738-1.62-1.6,0-1.144.909-1.9,2.322-1.9a4.2,4.2,0,0,1,2.529.811l-.548.811a3.308,3.308,0,0,0-2.017-.73c-.756,0-1.26.388-1.26.9,0,.459.288.694.972.8l1.125.189c1.269.225,1.864.783,1.864,1.737,0,1.162-1.026,1.98-2.53,1.98A3.965,3.965,0,0,1,778.857,319.782Z"
         class="cls-7" />
      <path
         id="path469"
         transform="translate(-9.985 -18.547)"
         d="M784.8,318.45a2.227,2.227,0,0,1,2.2-2.332,2.169,2.169,0,0,1,2.134,2.332v.243H785.8a1.38,1.38,0,0,0,1.35,1.261,1.5,1.5,0,0,0,1.072-.424l.666.6a2.613,2.613,0,0,1-1.783.658A2.289,2.289,0,0,1,784.8,318.45Zm3.366-.387a1.226,1.226,0,0,0-1.179-1.116,1.211,1.211,0,0,0-1.179,1.116Z"
         class="cls-7" />
      <path
         id="path471"
         transform="translate(-9.985 -18.547)"
         d="M790.162,316.19h1.017v.973a1.354,1.354,0,0,1,1.242-1.053,1.162,1.162,0,0,1,.441.09v.891a1.618,1.618,0,0,0-.557-.108,1.229,1.229,0,0,0-1.126.747V320.7h-1.017Z"
         class="cls-7" />
      <path
         id="path473"
         transform="translate(-9.985 -18.547)"
         d="M793.167,316.19h1.107l1.261,3.277,1.251-3.277h1.063l-1.855,4.511H795Z"
         class="cls-7" />
      <path
         id="path475"
         transform="translate(-9.985 -18.547)"
         d="M798.45,314.651a.631.631,0,1,1,.63.621A.624.624,0,0,1,798.45,314.651Zm.117,1.539h1.018V320.7h-1.018Z"
         class="cls-7" />
      <path
         id="path477"
         transform="translate(-9.985 -18.547)"
         d="M800.638,318.45a2.276,2.276,0,0,1,2.277-2.332,2.44,2.44,0,0,1,1.8.765l-.631.658a1.49,1.49,0,0,0-1.134-.531,1.448,1.448,0,0,0,0,2.881,1.509,1.509,0,0,0,1.134-.523l.631.648a2.437,2.437,0,0,1-1.8.766A2.27,2.27,0,0,1,800.638,318.45Z"
         class="cls-7" />
      <path
         id="path479"
         transform="translate(-9.985 -18.547)"
         d="M805.345,318.45a2.227,2.227,0,0,1,2.2-2.332,2.169,2.169,0,0,1,2.134,2.332v.243h-3.331a1.38,1.38,0,0,0,1.35,1.261,1.5,1.5,0,0,0,1.072-.424l.666.6a2.613,2.613,0,0,1-1.783.658A2.288,2.288,0,0,1,805.345,318.45Zm3.366-.387a1.227,1.227,0,0,0-1.179-1.116,1.213,1.213,0,0,0-1.18,1.116Z"
         class="cls-7" />
      <path
         id="path481"
         transform="translate(-9.985 -18.547)"
         d="M812.318,319.782l.586-.791a3.157,3.157,0,0,0,2.124.918c.828,0,1.4-.424,1.4-1.008,0-.514-.306-.757-1.143-.9l-1.162-.2c-1.089-.2-1.62-.738-1.62-1.6,0-1.144.909-1.9,2.323-1.9a4.2,4.2,0,0,1,2.529.811l-.549.811a3.305,3.305,0,0,0-2.016-.73c-.757,0-1.261.388-1.261.9,0,.459.288.694.973.8l1.125.189c1.269.225,1.863.783,1.863,1.737,0,1.162-1.026,1.98-2.529,1.98A3.97,3.97,0,0,1,812.318,319.782Z"
         class="cls-7" />
      <path
         id="path483"
         transform="translate(-9.985 -18.547)"
         d="M818.593,314.4h2.3a3.151,3.151,0,1,1,0,6.3h-2.3Zm2.331,5.365a2.223,2.223,0,0,0,0-4.429h-1.251v4.429Z"
         class="cls-7" />
      <path
         id="path485"
         transform="translate(-9.985 -18.547)"
         d="M825.27,314.4h1.053l3.286,4.582-.017-4.582h1.016v6.3h-.963l-3.376-4.708.018,4.708H825.27Z"
         class="cls-7" />
      <path
         id="path487"
         transform="translate(-9.985 -18.547)"
         d="M729.034,326.234l-1.116.478v-.873l1.476-.64h.622v6.3h-.982Z"
         class="cls-7" />
      <path
         id="path489"
         transform="translate(-9.985 -18.547)"
         d="M734.589,326.063H730.97V325.2h4.68v.747l-2.844,5.555h-1.162Z"
         class="cls-7" />
      <path
         id="path491"
         transform="translate(-9.985 -18.547)"
         d="M736.387,330.79l2.584-2.7a1.671,1.671,0,0,0,.612-1.206,1.024,1.024,0,0,0-1.144-.919,2.259,2.259,0,0,0-1.638.765l-.558-.676a3.208,3.208,0,0,1,2.215-.953c1.233,0,2.079.7,2.079,1.729a2.389,2.389,0,0,1-.891,1.763l-2.007,2.071,3.015-.008v.846h-4.267Z"
         class="cls-7" />
      <path
         id="path493"
         transform="translate(-9.985 -18.547)"
         d="M741.553,330.933a.631.631,0,1,1,1.26,0,.63.63,0,1,1-1.26,0Z"
         class="cls-7" />
      <path
         id="path495"
         transform="translate(-9.985 -18.547)"
         d="M743.623,330.655l.657-.631a2.042,2.042,0,0,0,1.656.711c.82,0,1.378-.423,1.378-1.044a1,1,0,0,0-1.126-.954h-.774v-.828h.693a.914.914,0,0,0,1.009-.937,1.093,1.093,0,0,0-1.2-1,1.936,1.936,0,0,0-1.567.747l-.667-.622a3.039,3.039,0,0,1,2.26-1,1.918,1.918,0,0,1,2.153,1.774,1.529,1.529,0,0,1-1.189,1.431,1.567,1.567,0,0,1,1.4,1.45c0,1.07-.991,1.845-2.35,1.845A3.166,3.166,0,0,1,743.623,330.655Z"
         class="cls-7" />
      <path
         id="path497"
         transform="translate(-9.985 -18.547)"
         d="M749.221,328.35c0-1.935,1.053-3.25,2.584-3.25s2.575,1.315,2.575,3.25-1.045,3.241-2.575,3.241S749.221,330.276,749.221,328.35Zm4.177,0c0-1.45-.621-2.377-1.593-2.377s-1.6.927-1.6,2.377.63,2.367,1.6,2.367S753.4,329.79,753.4,328.35Z"
         class="cls-7" />
      <path
         id="path499"
         transform="translate(-9.985 -18.547)"
         d="M755.332,330.933a.631.631,0,1,1,1.261,0,.631.631,0,1,1-1.261,0Z"
         class="cls-7" />
      <path
         id="path501"
         transform="translate(-9.985 -18.547)"
         d="M757.537,328.35c0-1.935,1.054-3.25,2.584-3.25s2.575,1.315,2.575,3.25-1.045,3.241-2.575,3.241S757.537,330.276,757.537,328.35Zm4.178,0c0-1.45-.621-2.377-1.594-2.377s-1.6.927-1.6,2.377.63,2.367,1.6,2.367S761.715,329.79,761.715,328.35Z"
         class="cls-7" />
      <path
         id="path503"
         transform="translate(-9.985 -18.547)"
         d="M763.648,330.933a.631.631,0,1,1,1.26,0,.63.63,0,1,1-1.26,0Z"
         class="cls-7" />
      <path
         id="path505"
         transform="translate(-9.985 -18.547)"
         d="M765.853,328.35c0-1.935,1.053-3.25,2.583-3.25s2.576,1.315,2.576,3.25-1.044,3.241-2.576,3.241S765.853,330.276,765.853,328.35Zm4.177,0c0-1.45-.621-2.377-1.594-2.377s-1.6.927-1.6,2.377.63,2.367,1.6,2.367S770.03,329.79,770.03,328.35Z"
         class="cls-7" />
      <path
         id="path507"
         transform="translate(-9.985 -18.547)"
         d="M774.62,325.2h.99L772,333.382h-.982Z"
         class="cls-7" />
      <path
         id="path509"
         transform="translate(-9.985 -18.547)"
         d="M777.391,326.234l-1.117.478v-.873l1.477-.64h.621v6.3h-.981Z"
         class="cls-7" />
      <path
         id="path511"
         transform="translate(-9.985 -18.547)"
         d="M779.47,328.512c0-2.052,1.171-3.412,2.934-3.412a2.825,2.825,0,0,1,1.675.539l-.54.731a1.991,1.991,0,0,0-1.215-.388c-1.171,0-1.855.937-1.873,2.521a2.157,2.157,0,0,1,1.737-.928,1.959,1.959,0,0,1,2.117,1.935,2.1,2.1,0,0,1-2.224,2.081C780.532,331.591,779.47,330.34,779.47,328.512Zm1.026.594c.162.99.747,1.639,1.549,1.639a1.218,1.218,0,0,0,1.287-1.216,1.192,1.192,0,0,0-1.3-1.179A2.025,2.025,0,0,0,780.5,329.106Z"
         class="cls-7" />
    </g>
    <g
       id="g521">
      <line
         id="line515"
         y2="161.71"
         x2="63.992"
         y1="116.832"
         x1="63.992"
         class="cls-8" />
      <path
         id="path517"
         transform="translate(-9.985 -18.547)"
         d="M71.157,135.52a2.82,2.82,0,1,1,2.82,2.819A2.82,2.82,0,0,1,71.157,135.52Z"
         class="cls-6" />
      <circle
         id="circle519"
         r="2.82"
         cy="161.569"
         cx="63.992"
         class="cls-6" />
    </g>
    <g
       id="g529">
      <line
         id="line523"
         y2="161.71"
         x2="177.888"
         y1="116.832"
         x1="177.888"
         class="cls-8" />
      <path
         id="path525"
         transform="translate(-9.985 -18.547)"
         d="M185.053,135.52a2.82,2.82,0,1,1,2.82,2.819A2.82,2.82,0,0,1,185.053,135.52Z"
         class="cls-6" />
      <circle
         id="circle527"
         r="2.82"
         cy="161.569"
         cx="177.888"
         class="cls-6" />
    </g>
    <g
       id="g537">
      <line
         id="line531"
         y2="161.71"
         x2="320.256"
         y1="116.832"
         x1="320.256"
         class="cls-8" />
      <path
         id="path533"
         transform="translate(-9.985 -18.547)"
         d="M327.422,135.52a2.82,2.82,0,1,1,2.819,2.819A2.819,2.819,0,0,1,327.422,135.52Z"
         class="cls-6" />
      <circle
         id="circle535"
         r="2.82"
         cy="161.569"
         cx="320.256"
         class="cls-6" />
    </g>
    <g
       id="g545">
      <line
         id="line539"
         y2="161.71"
         x2="434.764"
         y1="116.832"
         x1="434.764"
         class="cls-8" />
      <path
         id="path541"
         transform="translate(-9.985 -18.547)"
         d="M441.929,135.52a2.82,2.82,0,1,1,2.82,2.819A2.82,2.82,0,0,1,441.929,135.52Z"
         class="cls-6" />
      <path
         id="path543"
         transform="translate(-9.985 -18.547)"
         d="M441.929,180.116a2.82,2.82,0,1,0,2.82-2.82A2.821,2.821,0,0,0,441.929,180.116Z"
         class="cls-6" />
    </g>
    <g
       id="g553">
      <line
         id="line547"
         y2="206.76"
         x2="377.787"
         y1="161.882"
         x1="377.787"
         class="cls-8" />
      <path
         id="path549"
         transform="translate(-9.985 -18.547)"
         d="M384.952,180.57a2.82,2.82,0,1,1,2.82,2.82A2.821,2.821,0,0,1,384.952,180.57Z"
         class="cls-6" />
      <path
         id="path551"
         transform="translate(-9.985 -18.547)"
         d="M384.952,225.166a2.82,2.82,0,1,0,2.82-2.819A2.82,2.82,0,0,0,384.952,225.166Z"
         class="cls-6" />
    </g>
    <g
       id="g561">
      <line
         id="line555"
         y2="299.475"
         x2="377.787"
         y1="254.597"
         x1="377.787"
         class="cls-9" />
      <circle
         id="circle557"
         r="2.82"
         cy="254.738"
         cx="377.787"
         class="cls-7" />
      <circle
         id="circle559"
         r="2.82"
         cy="299.334"
         cx="377.787"
         class="cls-7" />
    </g>
    <g
       id="g569">
      <line
         id="line563"
         y2="347.294"
         x2="505.526"
         y1="302.416"
         x1="505.526"
         class="cls-9" />
      <circle
         id="circle565"
         r="2.82"
         cy="302.556"
         cx="505.526"
         class="cls-7" />
      <circle
         id="circle567"
         r="2.82"
         cy="347.153"
         cx="505.526"
         class="cls-7" />
    </g>
    <g
       id="g577">
      <line
         id="line571"
         y2="347.294"
         x2="249.101"
         y1="302.416"
         x1="249.101"
         class="cls-9" />
      <circle
         id="circle573"
         r="2.82"
         cy="302.556"
         cx="249.101"
         class="cls-7" />
      <circle
         id="circle575"
         r="2.82"
         cy="347.153"
         cx="249.101"
         class="cls-7" />
    </g>
    <g
       id="g585">
      <line
         id="line579"
         y2="161.71"
         x2="576.289"
         y1="116.832"
         x1="576.289"
         class="cls-8" />
      <path
         id="path581"
         transform="translate(-9.985 -18.547)"
         d="M583.454,135.52a2.82,2.82,0,1,1,2.82,2.819A2.82,2.82,0,0,1,583.454,135.52Z"
         class="cls-6" />
      <circle
         id="circle583"
         r="2.82"
         cy="161.569"
         cx="576.289"
         class="cls-6" />
    </g>
    <g
       id="g593">
      <line
         id="line587"
         y2="161.71"
         x2="690.404"
         y1="116.832"
         x1="690.404"
         class="cls-8" />
      <path
         id="path589"
         transform="translate(-9.985 -18.547)"
         d="M697.57,135.52a2.82,2.82,0,1,1,2.819,2.819A2.819,2.819,0,0,1,697.57,135.52Z"
         class="cls-6" />
      <circle
         id="circle591"
         r="2.82"
         cy="161.569"
         cx="690.404"
         class="cls-6" />
    </g>
    <line
       id="line595"
       y2="161.838"
       x2="711.907"
       y1="161.838"
       x1="63.992"
       class="cls-8" />
    <line
       id="line597"
       y2="299.803"
       x2="712.757"
       y1="299.803"
       x1="64.842"
       class="cls-9" />
  </g>
  <g
     data-name="Layer 2"
     id="Layer_2">
    <path
       id="path600"
       transform="translate(-9.985 -18.547)"
       d="M281.727,227.966h212.6v42.52h-212.6Z"
       class="cls-5" />
    <g
       id="g614">
      <path
         id="path602"
         transform="translate(-9.985 -18.547)"
         d="M372.6,245h3.108a2.126,2.126,0,0,1,2.339,2.119,1.985,1.985,0,0,1-1.389,1.919L378.136,252h-1.329l-1.35-2.8H373.8V252h-1.2Zm3,3.238a1.121,1.121,0,1,0,0-2.229h-1.8v2.229Z"
         class="cls-3" />
      <path
         id="path604"
         transform="translate(-9.985 -18.547)"
         d="M378.949,249.5a2.515,2.515,0,1,1,2.519,2.588A2.494,2.494,0,0,1,378.949,249.5Zm3.918,0a1.42,1.42,0,1,0-1.4,1.629A1.486,1.486,0,0,0,382.867,249.5Z"
         class="cls-3" />
      <path
         id="path606"
         transform="translate(-9.985 -18.547)"
         d="M385.108,250.287v-3.3h1.14v2.968a1.083,1.083,0,0,0,1.1,1.21,1.248,1.248,0,0,0,1.088-.6v-3.578h1.13V252h-1.13v-.81a1.8,1.8,0,0,1-1.588.89A1.694,1.694,0,0,1,385.108,250.287Z"
         class="cls-3" />
      <path
         id="path608"
         transform="translate(-9.985 -18.547)"
         d="M391.589,250.7v-2.809h-1v-.9h1v-1.38l1.129-.239v1.619h1.388v.9h-1.388v2.559c0,.489.189.68.7.68a2.142,2.142,0,0,0,.68-.12v.949a3.547,3.547,0,0,1-.969.14C392.118,252.1,391.589,251.616,391.589,250.7Z"
         class="cls-3" />
      <path
         id="path610"
         transform="translate(-9.985 -18.547)"
         d="M394.878,249.5a2.473,2.473,0,0,1,2.439-2.589,2.407,2.407,0,0,1,2.368,2.589v.269h-3.7a1.535,1.535,0,0,0,1.5,1.4,1.672,1.672,0,0,0,1.19-.47l.739.669a2.9,2.9,0,0,1-1.98.73A2.542,2.542,0,0,1,394.878,249.5Zm3.738-.43a1.361,1.361,0,0,0-1.308-1.239,1.345,1.345,0,0,0-1.31,1.239Z"
         class="cls-3" />
      <path
         id="path612"
         transform="translate(-9.985 -18.547)"
         d="M400.839,246.989h1.129v1.079a1.5,1.5,0,0,1,1.379-1.169,1.323,1.323,0,0,1,.49.1v.989a1.823,1.823,0,0,0-.62-.12,1.363,1.363,0,0,0-1.249.83V252h-1.129Z"
         class="cls-3" />
    </g>
    <path
       id="path616"
       transform="translate(-9.985 -18.547)"
       d="M152.787,368.432h212.6v42.519h-212.6Z"
       class="cls-10" />
    <g
       id="g654">
      <path
         id="path618"
         transform="translate(-9.985 -18.547)"
         d="M238.913,385.25l.649-.88a3.5,3.5,0,0,0,2.359,1.019c.92,0,1.559-.469,1.559-1.119,0-.569-.339-.84-1.269-1l-1.289-.22c-1.209-.219-1.8-.819-1.8-1.778,0-1.269,1.009-2.109,2.578-2.109a4.663,4.663,0,0,1,2.809.9l-.61.9a3.668,3.668,0,0,0-2.239-.81c-.839,0-1.4.43-1.4,1,0,.51.319.77,1.079.89l1.249.21c1.409.249,2.069.869,2.069,1.928,0,1.289-1.14,2.2-2.809,2.2A4.41,4.41,0,0,1,238.913,385.25Z"
         class="cls-3" />
      <path
         id="path620"
         transform="translate(-9.985 -18.547)"
         d="M245.513,383.77a2.472,2.472,0,0,1,2.438-2.589,2.407,2.407,0,0,1,2.369,2.589v.27h-3.7a1.533,1.533,0,0,0,1.5,1.4,1.664,1.664,0,0,0,1.189-.47l.741.67a2.9,2.9,0,0,1-1.98.73A2.541,2.541,0,0,1,245.513,383.77Zm3.738-.429a1.363,1.363,0,0,0-1.31-1.24,1.345,1.345,0,0,0-1.308,1.24Z"
         class="cls-3" />
      <path
         id="path622"
         transform="translate(-9.985 -18.547)"
         d="M251.473,381.261H252.6v1.08a1.5,1.5,0,0,1,1.379-1.169,1.319,1.319,0,0,1,.49.1v.989a1.8,1.8,0,0,0-.62-.12,1.364,1.364,0,0,0-1.249.829v3.3h-1.129Z"
         class="cls-3" />
      <path
         id="path624"
         transform="translate(-9.985 -18.547)"
         d="M254.812,381.261h1.23l1.4,3.639,1.39-3.639h1.179l-2.059,5.008h-1.1Z"
         class="cls-3" />
      <path
         id="path626"
         transform="translate(-9.985 -18.547)"
         d="M260.683,379.552a.7.7,0,0,1,.7-.7.708.708,0,0,1,.7.7.7.7,0,0,1-.7.69A.693.693,0,0,1,260.683,379.552Zm.129,1.709h1.129v5.008h-1.129Z"
         class="cls-3" />
      <path
         id="path628"
         transform="translate(-9.985 -18.547)"
         d="M263.112,383.77a2.527,2.527,0,0,1,2.53-2.589,2.708,2.708,0,0,1,2,.85l-.7.729a1.653,1.653,0,0,0-1.259-.588,1.608,1.608,0,0,0,0,3.2,1.676,1.676,0,0,0,1.259-.58l.7.719a2.7,2.7,0,0,1-2,.85A2.521,2.521,0,0,1,263.112,383.77Z"
         class="cls-3" />
      <path
         id="path630"
         transform="translate(-9.985 -18.547)"
         d="M268.343,383.77a2.472,2.472,0,0,1,2.438-2.589,2.407,2.407,0,0,1,2.368,2.589v.27h-3.7a1.533,1.533,0,0,0,1.5,1.4,1.67,1.67,0,0,0,1.19-.47l.739.67a2.9,2.9,0,0,1-1.979.73A2.541,2.541,0,0,1,268.343,383.77Zm3.737-.429a1.362,1.362,0,0,0-1.309-1.24,1.346,1.346,0,0,0-1.309,1.24Z"
         class="cls-3" />
      <path
         id="path632"
         transform="translate(-9.985 -18.547)"
         d="M277.462,380.423l-1.239.529v-.97l1.638-.709h.691v7h-1.09Z"
         class="cls-3" />
      <path
         id="path634"
         transform="translate(-9.985 -18.547)"
         d="M238.246,393.8l-1.116.477v-.873l1.476-.639h.621v6.3h-.981Z"
         class="cls-3" />
      <path
         id="path636"
         transform="translate(-9.985 -18.547)"
         d="M243.8,393.632h-3.619v-.865h4.68v.747l-2.844,5.555h-1.162Z"
         class="cls-3" />
      <path
         id="path638"
         transform="translate(-9.985 -18.547)"
         d="M245.6,398.357l2.584-2.7a1.671,1.671,0,0,0,.612-1.206,1.024,1.024,0,0,0-1.144-.919,2.257,2.257,0,0,0-1.638.766l-.558-.676a3.205,3.205,0,0,1,2.215-.954c1.233,0,2.079.7,2.079,1.728a2.393,2.393,0,0,1-.891,1.765l-2.007,2.07,3.015-.009v.847H245.6Z"
         class="cls-3" />
      <path
         id="path640"
         transform="translate(-9.985 -18.547)"
         d="M250.765,398.5a.631.631,0,1,1,1.26,0,.63.63,0,1,1-1.26,0Z"
         class="cls-3" />
      <path
         id="path642"
         transform="translate(-9.985 -18.547)"
         d="M252.835,398.222l.657-.63a2.042,2.042,0,0,0,1.656.711c.82,0,1.378-.422,1.378-1.044a1,1,0,0,0-1.126-.954h-.774v-.829h.693a.914.914,0,0,0,1.009-.935,1.093,1.093,0,0,0-1.2-1,1.934,1.934,0,0,0-1.567.748l-.667-.622a3.037,3.037,0,0,1,2.26-1,1.917,1.917,0,0,1,2.153,1.773,1.53,1.53,0,0,1-1.189,1.432,1.565,1.565,0,0,1,1.4,1.449c0,1.071-.991,1.846-2.35,1.846A3.163,3.163,0,0,1,252.835,398.222Z"
         class="cls-3" />
      <path
         id="path644"
         transform="translate(-9.985 -18.547)"
         d="M258.433,395.918c0-1.936,1.053-3.25,2.584-3.25s2.575,1.314,2.575,3.25-1.045,3.241-2.575,3.241S258.433,397.844,258.433,395.918Zm4.177,0c0-1.45-.621-2.377-1.593-2.377s-1.6.927-1.6,2.377.63,2.368,1.6,2.368S262.61,397.358,262.61,395.918Z"
         class="cls-3" />
      <path
         id="path646"
         transform="translate(-9.985 -18.547)"
         d="M264.544,398.5a.631.631,0,1,1,1.261,0,.631.631,0,1,1-1.261,0Z"
         class="cls-3" />
      <path
         id="path648"
         transform="translate(-9.985 -18.547)"
         d="M268.819,395.8l-2.277-3.033h1.287l1.647,2.25,1.63-2.25h1.251l-2.277,3.061,2.422,3.241h-1.3l-1.773-2.467-1.791,2.467H266.4Z"
         class="cls-3" />
      <path
         id="path650"
         transform="translate(-9.985 -18.547)"
         d="M273.094,398.5a.631.631,0,1,1,1.26,0,.63.63,0,1,1-1.26,0Z"
         class="cls-3" />
      <path
         id="path652"
         transform="translate(-9.985 -18.547)"
         d="M277.369,395.8l-2.277-3.033h1.287l1.647,2.25,1.63-2.25h1.251l-2.277,3.061,2.422,3.241h-1.3l-1.774-2.467-1.791,2.467h-1.242Z"
         class="cls-3" />
    </g>
    <path
       id="path656"
       transform="translate(-9.985 -18.547)"
       d="M409.323,368.432h212.6v42.519h-212.6Z"
       class="cls-11" />
    <g
       id="g694">
      <path
         id="path658"
         transform="translate(-9.985 -18.547)"
         d="M494.31,385.25l.649-.88a3.5,3.5,0,0,0,2.358,1.019c.92,0,1.56-.469,1.56-1.119,0-.569-.34-.84-1.27-1l-1.289-.22c-1.209-.219-1.8-.819-1.8-1.778,0-1.269,1.009-2.109,2.579-2.109a4.662,4.662,0,0,1,2.808.9l-.609.9a3.668,3.668,0,0,0-2.239-.81c-.839,0-1.4.43-1.4,1,0,.51.319.77,1.079.89l1.249.21c1.409.249,2.07.869,2.07,1.928,0,1.289-1.14,2.2-2.809,2.2A4.406,4.406,0,0,1,494.31,385.25Z"
         class="cls-3" />
      <path
         id="path660"
         transform="translate(-9.985 -18.547)"
         d="M500.909,383.77a2.473,2.473,0,0,1,2.439-2.589,2.407,2.407,0,0,1,2.369,2.589v.27h-3.7a1.534,1.534,0,0,0,1.5,1.4,1.666,1.666,0,0,0,1.189-.47l.74.67a2.9,2.9,0,0,1-1.979.73A2.542,2.542,0,0,1,500.909,383.77Zm3.738-.429a1.362,1.362,0,0,0-1.309-1.24,1.345,1.345,0,0,0-1.309,1.24Z"
         class="cls-3" />
      <path
         id="path662"
         transform="translate(-9.985 -18.547)"
         d="M506.869,381.261H508v1.08a1.5,1.5,0,0,1,1.379-1.169,1.318,1.318,0,0,1,.489.1v.989a1.794,1.794,0,0,0-.619-.12,1.364,1.364,0,0,0-1.249.829v3.3h-1.13Z"
         class="cls-3" />
      <path
         id="path664"
         transform="translate(-9.985 -18.547)"
         d="M510.209,381.261h1.229l1.4,3.639,1.389-3.639h1.179l-2.058,5.008h-1.1Z"
         class="cls-3" />
      <path
         id="path666"
         transform="translate(-9.985 -18.547)"
         d="M516.079,379.552a.7.7,0,1,1,.7.69A.693.693,0,0,1,516.079,379.552Zm.13,1.709h1.129v5.008h-1.129Z"
         class="cls-3" />
      <path
         id="path668"
         transform="translate(-9.985 -18.547)"
         d="M518.509,383.77a2.527,2.527,0,0,1,2.529-2.589,2.708,2.708,0,0,1,2,.85l-.7.729a1.655,1.655,0,0,0-1.259-.588,1.608,1.608,0,0,0,0,3.2,1.677,1.677,0,0,0,1.259-.58l.7.719a2.7,2.7,0,0,1-2,.85A2.521,2.521,0,0,1,518.509,383.77Z"
         class="cls-3" />
      <path
         id="path670"
         transform="translate(-9.985 -18.547)"
         d="M523.739,383.77a2.473,2.473,0,0,1,2.439-2.589,2.407,2.407,0,0,1,2.369,2.589v.27h-3.7a1.532,1.532,0,0,0,1.5,1.4,1.668,1.668,0,0,0,1.189-.47l.739.67a2.891,2.891,0,0,1-1.978.73A2.541,2.541,0,0,1,523.739,383.77Zm3.737-.429a1.361,1.361,0,0,0-1.308-1.24,1.346,1.346,0,0,0-1.31,1.24Z"
         class="cls-3" />
      <path
         id="path672"
         transform="translate(-9.985 -18.547)"
         d="M531.759,385.479l2.868-3a1.855,1.855,0,0,0,.68-1.339,1.135,1.135,0,0,0-1.269-1.019,2.507,2.507,0,0,0-1.819.849l-.62-.75a3.557,3.557,0,0,1,2.459-1.059c1.369,0,2.308.779,2.308,1.919a2.653,2.653,0,0,1-.989,1.959l-2.229,2.3,3.348-.01v.939h-4.737Z"
         class="cls-3" />
      <path
         id="path674"
         transform="translate(-9.985 -18.547)"
         d="M494.783,393.8l-1.116.477v-.873l1.476-.639h.622v6.3h-.982Z"
         class="cls-3" />
      <path
         id="path676"
         transform="translate(-9.985 -18.547)"
         d="M500.337,393.632h-3.619v-.865H501.4v.747l-2.844,5.555h-1.162Z"
         class="cls-3" />
      <path
         id="path678"
         transform="translate(-9.985 -18.547)"
         d="M502.136,398.357l2.584-2.7a1.671,1.671,0,0,0,.612-1.206,1.024,1.024,0,0,0-1.144-.919,2.257,2.257,0,0,0-1.638.766l-.559-.676a3.209,3.209,0,0,1,2.215-.954c1.233,0,2.08.7,2.08,1.728a2.391,2.391,0,0,1-.892,1.765l-2.007,2.07,3.016-.009v.847h-4.267Z"
         class="cls-3" />
      <path
         id="path680"
         transform="translate(-9.985 -18.547)"
         d="M507.3,398.5a.63.63,0,1,1,1.259,0,.63.63,0,1,1-1.259,0Z"
         class="cls-3" />
      <path
         id="path682"
         transform="translate(-9.985 -18.547)"
         d="M509.371,398.222l.657-.63a2.046,2.046,0,0,0,1.657.711c.82,0,1.377-.422,1.377-1.044a1,1,0,0,0-1.125-.954h-.774v-.829h.693a.913.913,0,0,0,1.008-.935,1.092,1.092,0,0,0-1.2-1,1.934,1.934,0,0,0-1.566.748l-.666-.622a3.033,3.033,0,0,1,2.259-1,1.917,1.917,0,0,1,2.152,1.773,1.529,1.529,0,0,1-1.189,1.432,1.564,1.564,0,0,1,1.4,1.449c0,1.071-.991,1.846-2.35,1.846A3.165,3.165,0,0,1,509.371,398.222Z"
         class="cls-3" />
      <path
         id="path684"
         transform="translate(-9.985 -18.547)"
         d="M514.97,395.918c0-1.936,1.052-3.25,2.583-3.25s2.575,1.314,2.575,3.25-1.044,3.241-2.575,3.241S514.97,397.844,514.97,395.918Zm4.176,0c0-1.45-.621-2.377-1.593-2.377s-1.6.927-1.6,2.377.63,2.368,1.6,2.368S519.146,397.358,519.146,395.918Z"
         class="cls-3" />
      <path
         id="path686"
         transform="translate(-9.985 -18.547)"
         d="M521.081,398.5a.631.631,0,1,1,1.26,0,.63.63,0,1,1-1.26,0Z"
         class="cls-3" />
      <path
         id="path688"
         transform="translate(-9.985 -18.547)"
         d="M525.356,395.8l-2.277-3.033h1.287l1.648,2.25,1.629-2.25h1.251l-2.277,3.061,2.421,3.241h-1.3l-1.773-2.467-1.792,2.467h-1.242Z"
         class="cls-3" />
      <path
         id="path690"
         transform="translate(-9.985 -18.547)"
         d="M529.631,398.5a.631.631,0,1,1,1.26,0,.63.63,0,1,1-1.26,0Z"
         class="cls-3" />
      <path
         id="path692"
         transform="translate(-9.985 -18.547)"
         d="M533.906,395.8l-2.277-3.033h1.287l1.647,2.25,1.63-2.25h1.251l-2.277,3.061,2.421,3.241h-1.3l-1.774-2.467-1.792,2.467h-1.242Z"
         class="cls-3" />
    </g>
    <polyline
       id="polyline696"
       points="191.864 114.153 191.864 187.156 420.788 187.156 420.788 114.153"
       class="cls-12" />
    <line
       id="line698"
       y2="114.12"
       x2="306.28"
       y1="347.359"
       x1="306.28"
       class="cls-12" />
    <g
       id="g710">
      <line
         id="line700"
         y2="121.035"
         x2="306.28"
         y1="119.535"
         x1="306.28"
         class="cls-13" />
      <line
         id="line702"
         y2="134.29"
         x2="306.28"
         y1="123.98"
         x1="306.28"
         class="cls-14" />
      <line
         id="line704"
         y2="346.37"
         x2="306.28"
         y1="135.763"
         x1="306.28"
         class="cls-15" />
      <line
         id="line706"
         y2="349.343"
         x2="306.28"
         y1="347.843"
         x1="306.28"
         class="cls-13" />
      <polygon
         id="polygon708"
         points="302.54 120.629 306.28 114.153 310.02 120.629 302.54 120.629"
         class="cls-10" />
    </g>
    <g
       id="g736">
      <line
         id="line712"
         y2="121.035"
         x2="191.864"
         y1="119.535"
         x1="191.864"
         class="cls-13" />
      <line
         id="line714"
         y2="133.767"
         x2="191.864"
         y1="123.864"
         x1="191.864"
         class="cls-16" />
      <line
         id="line716"
         y2="184.694"
         x2="191.864"
         y1="135.181"
         x1="191.864"
         class="cls-17" />
      <polyline
         id="polyline718"
         points="191.864 186.109 191.864 187.609 193.364 187.609"
         class="cls-13" />
      <line
         id="line720"
         y2="187.609"
         x2="206.567"
         y1="187.609"
         x1="196.298"
         class="cls-18" />
      <line
         id="line722"
         y2="187.609"
         x2="417.821"
         y1="187.609"
         x1="208.034"
         class="cls-19" />
      <polyline
         id="polyline724"
         points="419.288 187.609 420.788 187.609 420.788 186.109"
         class="cls-13" />
      <line
         id="line726"
         y2="173.377"
         x2="420.788"
         y1="183.279"
         x1="420.788"
         class="cls-16" />
      <line
         id="line728"
         y2="122.45"
         x2="420.788"
         y1="171.962"
         x1="420.788"
         class="cls-17" />
      <line
         id="line730"
         y2="119.535"
         x2="420.788"
         y1="121.035"
         x1="420.788"
         class="cls-13" />
      <polygon
         id="polygon732"
         points="188.124 120.629 191.864 114.153 195.604 120.629 188.124 120.629"
         class="cls-10" />
      <polygon
         id="polygon734"
         points="424.528 120.629 420.788 114.153 417.048 120.629 424.528 120.629"
         class="cls-10" />
    </g>
    <polyline
       id="polyline738"
       points="454.988 349.122 454.988 230.51 562.313 230.51 562.313 114.153"
       class="cls-12" />
    <g
       id="g762">
      <line
         id="line740"
         y2="121.035"
         x2="562.313"
         y1="119.535"
         x1="562.313"
         class="cls-20" />
      <line
         id="line742"
         y2="134.868"
         x2="562.313"
         y1="124.109"
         x1="562.313"
         class="cls-21" />
      <line
         id="line744"
         y2="227.091"
         x2="562.313"
         y1="136.405"
         x1="562.313"
         class="cls-22" />
      <polyline
         id="polyline746"
         points="562.313 228.628 562.313 230.128 560.813 230.128"
         class="cls-20" />
      <line
         id="line748"
         y2="230.128"
         x2="547.39"
         y1="230.128"
         x1="557.83"
         class="cls-23" />
      <line
         id="line750"
         y2="230.128"
         x2="457.904"
         y1="230.128"
         x1="545.898"
         class="cls-24" />
      <polyline
         id="polyline752"
         points="456.413 230.128 454.913 230.128 454.913 231.628"
         class="cls-20" />
      <line
         id="line754"
         y2="244.443"
         x2="454.913"
         y1="234.476"
         x1="454.913"
         class="cls-25" />
      <line
         id="line756"
         y2="346.961"
         x2="454.913"
         y1="245.867"
         x1="454.913"
         class="cls-26" />
      <line
         id="line758"
         y2="349.885"
         x2="454.913"
         y1="348.385"
         x1="454.913"
         class="cls-20" />
      <polygon
         id="polygon760"
         points="558.573 120.629 562.313 114.153 566.052 120.629 558.573 120.629"
         class="cls-11" />
    </g>
    <g
       id="g798">
      <path
         id="path764"
         transform="translate(-9.985 -18.547)"
         d="M343.14,339.859h1.169l3.648,5.087-.021-5.087h1.13v7H348l-3.748-5.227.019,5.227H343.14Z"
         class="cls-2" />
      <path
         id="path766"
         transform="translate(-9.985 -18.547)"
         d="M350.38,344.356a2.471,2.471,0,0,1,2.438-2.588,2.406,2.406,0,0,1,2.368,2.588v.271h-3.7a1.533,1.533,0,0,0,1.5,1.4,1.674,1.674,0,0,0,1.19-.47l.739.669a2.894,2.894,0,0,1-1.979.73A2.541,2.541,0,0,1,350.38,344.356Zm3.737-.43a1.362,1.362,0,0,0-1.308-1.239,1.346,1.346,0,0,0-1.31,1.239Z"
         class="cls-2" />
      <path
         id="path768"
         transform="translate(-9.985 -18.547)"
         d="M356.959,345.556v-2.808h-1v-.9h1v-1.38l1.13-.239v1.619h1.388v.9h-1.388v2.558c0,.49.189.68.7.68a2.119,2.119,0,0,0,.68-.12v.949a3.554,3.554,0,0,1-.97.14C357.489,346.955,356.959,346.475,356.959,345.556Z"
         class="cls-2" />
      <path
         id="path770"
         transform="translate(-9.985 -18.547)"
         d="M360.01,341.848h1.079l.88,3.528,1.039-3.528h.949l1.029,3.528.88-3.528h1.05l-1.35,5.007h-1.079l-1.019-3.528-1.01,3.528h-1.1Z"
         class="cls-2" />
      <path
         id="path772"
         transform="translate(-9.985 -18.547)"
         d="M367.609,344.356a2.515,2.515,0,1,1,2.519,2.589A2.495,2.495,0,0,1,367.609,344.356Zm3.918,0a1.42,1.42,0,1,0-1.4,1.63A1.486,1.486,0,0,0,371.527,344.356Z"
         class="cls-2" />
      <path
         id="path774"
         transform="translate(-9.985 -18.547)"
         d="M373.81,341.848h1.128v1.079a1.505,1.505,0,0,1,1.379-1.169,1.34,1.34,0,0,1,.491.1v.989a1.805,1.805,0,0,0-.621-.12,1.365,1.365,0,0,0-1.249.83v3.3H373.81Z"
         class="cls-2" />
      <path
         id="path776"
         transform="translate(-9.985 -18.547)"
         d="M377.739,339.669l1.129-.19v4.5l2.079-2.128h1.3l-2.309,2.319,2.429,2.688h-1.439l-2.059-2.308v2.308h-1.129Z"
         class="cls-2" />
      <path
         id="path778"
         transform="translate(-9.985 -18.547)"
         d="M385.4,341.848h1.11v.709a1.936,1.936,0,0,1,1.559-.749,2.563,2.563,0,0,1-.07,5.1,1.883,1.883,0,0,1-1.469-.64v2.679H385.4Zm3.819,2.508a1.514,1.514,0,0,0-1.49-1.6,1.484,1.484,0,0,0-1.2.559v2.089a1.543,1.543,0,0,0,1.2.56A1.512,1.512,0,0,0,389.217,344.356Z"
         class="cls-2" />
      <path
         id="path780"
         transform="translate(-9.985 -18.547)"
         d="M391.249,345.416c0-.9.739-1.469,1.919-1.469a2.959,2.959,0,0,1,1.35.319v-.559c0-.659-.38-1-1.15-1a3.47,3.47,0,0,0-1.459.389l-.4-.819a4.953,4.953,0,0,1,2.079-.51c1.309,0,2.049.659,2.049,1.819v3.268h-1.119v-.519a2.023,2.023,0,0,1-1.49.609A1.6,1.6,0,0,1,391.249,345.416Zm2.089.729a1.749,1.749,0,0,0,1.18-.419v-.809a2.582,2.582,0,0,0-1.15-.241c-.649,0-1.059.27-1.059.72S392.708,346.145,393.338,346.145Z"
         class="cls-2" />
      <path
         id="path782"
         transform="translate(-9.985 -18.547)"
         d="M396.778,344.356a2.527,2.527,0,0,1,2.53-2.588,2.7,2.7,0,0,1,2,.85l-.7.729a1.655,1.655,0,0,0-1.259-.589,1.608,1.608,0,0,0,0,3.2,1.676,1.676,0,0,0,1.259-.58l.7.719a2.7,2.7,0,0,1-2,.85A2.521,2.521,0,0,1,396.778,344.356Z"
         class="cls-2" />
      <path
         id="path784"
         transform="translate(-9.985 -18.547)"
         d="M402.238,339.669l1.13-.19v4.5l2.078-2.128h1.3l-2.309,2.319,2.429,2.688h-1.439l-2.059-2.308v2.308h-1.13Z"
         class="cls-2" />
      <path
         id="path786"
         transform="translate(-9.985 -18.547)"
         d="M407.419,344.356a2.471,2.471,0,0,1,2.438-2.588,2.406,2.406,0,0,1,2.369,2.588v.271h-3.7a1.533,1.533,0,0,0,1.5,1.4,1.674,1.674,0,0,0,1.19-.47l.739.669a2.894,2.894,0,0,1-1.979.73A2.541,2.541,0,0,1,407.419,344.356Zm3.737-.43a1.361,1.361,0,0,0-1.308-1.239,1.346,1.346,0,0,0-1.31,1.239Z"
         class="cls-2" />
      <path
         id="path788"
         transform="translate(-9.985 -18.547)"
         d="M414,345.556v-2.808h-1v-.9h1v-1.38l1.13-.239v1.619h1.389v.9h-1.389v2.558c0,.49.189.68.7.68a2.119,2.119,0,0,0,.68-.12v.949a3.554,3.554,0,0,1-.97.14C414.528,346.955,414,346.475,414,345.556Z"
         class="cls-2" />
      <path
         id="path790"
         transform="translate(-9.985 -18.547)"
         d="M420.448,342.748h-1.08v-.9h1.08v-.86a1.533,1.533,0,0,1,1.729-1.679,2.744,2.744,0,0,1,.75.09v.96a2.713,2.713,0,0,0-.6-.07c-.52,0-.75.229-.75.719v.84h1.35v.9h-1.35v4.107h-1.129Z"
         class="cls-2" />
      <path
         id="path792"
         transform="translate(-9.985 -18.547)"
         d="M423.878,339.689l1.13-.2v7.366h-1.13Z"
         class="cls-2" />
      <path
         id="path794"
         transform="translate(-9.985 -18.547)"
         d="M426.168,344.356a2.515,2.515,0,1,1,2.518,2.589A2.495,2.495,0,0,1,426.168,344.356Zm3.918,0a1.42,1.42,0,1,0-1.4,1.63A1.486,1.486,0,0,0,430.086,344.356Z"
         class="cls-2" />
      <path
         id="path796"
         transform="translate(-9.985 -18.547)"
         d="M431.9,341.848h1.079l.88,3.528,1.039-3.528h.95l1.029,3.528.88-3.528h1.05l-1.35,5.007h-1.079l-1.02-3.528-1.009,3.528h-1.1Z"
         class="cls-2" />
    </g>
    <g
       id="g804">
      <line
         id="line800"
         y2="324.855"
         x2="330.482"
         y1="324.855"
         x1="315.897"
         class="cls-27" />
      <polygon
         id="polygon802"
         points="316.991 328.594 310.515 324.855 316.991 321.115 316.991 328.594"
         class="cls-2" />
    </g>
    <g
       id="g810">
      <line
         id="line806"
         y2="324.855"
         x2="445.807"
         y1="324.855"
         x1="431.222"
         class="cls-27" />
      <polygon
         id="polygon808"
         points="444.713 328.594 451.189 324.855 444.713 321.115 444.713 328.594"
         class="cls-2" />
    </g>
  </g>
</svg>
