<?xml version="1.0" encoding="UTF-8" standalone="no"?>
<svg
   xmlns:dc="http://purl.org/dc/elements/1.1/"
   xmlns:cc="http://creativecommons.org/ns#"
   xmlns:rdf="http://www.w3.org/1999/02/22-rdf-syntax-ns#"
   xmlns:svg="http://www.w3.org/2000/svg"
   xmlns="http://www.w3.org/2000/svg"
   xmlns:sodipodi="http://sodipodi.sourceforge.net/DTD/sodipodi-0.dtd"
   xmlns:inkscape="http://www.inkscape.org/namespaces/inkscape"
   inkscape:version="1.0 (4035a4f, 2020-05-01)"
   sodipodi:docname="pod-sdn.svg"
   id="svg498"
   version="1.1"
   viewBox="0 0 806.159 177.07"
   height="62.466mm"
   width="284.395mm">
  <metadata
     id="metadata502">
    <rdf:RDF>
      <cc:Work
         rdf:about="">
        <dc:format>image/svg+xml</dc:format>
        <dc:type
           rdf:resource="http://purl.org/dc/dcmitype/StillImage" />
        <dc:title></dc:title>
        <dc:subject>
          <rdf:Bag>
            <rdf:li>sdn</rdf:li>
            <rdf:li>service</rdf:li>
            <rdf:li>router</rdf:li>
            <rdf:li>pod</rdf:li>
          </rdf:Bag>
        </dc:subject>
      </cc:Work>
    </rdf:RDF>
  </metadata>
  <sodipodi:namedview
     inkscape:current-layer="svg498"
     inkscape:window-maximized="0"
     inkscape:window-y="25"
     inkscape:window-x="0"
     inkscape:cy="118.04598"
     inkscape:cx="537.43935"
     inkscape:zoom="1.0205803"
     showgrid="false"
     id="namedview500"
     inkscape:window-height="480"
     inkscape:window-width="705"
     inkscape:pageshadow="2"
     inkscape:pageopacity="0"
     guidetolerance="10"
     gridtolerance="10"
     objecttolerance="10"
     borderopacity="1"
     bordercolor="#666666"
     pagecolor="#ffffff" />
  <defs
     id="defs12">
    <style
       id="style10">
      .cls-1 {
        fill: #d9e8f7;
      }

      .cls-2 {
        fill: #161616;
      }

      .cls-3 {
        fill: #fff;
      }

      .cls-4 {
        fill: #e8e8e8;
        stroke: #a2a2a2;
      }

      .cls-4, .cls-7 {
        stroke-miterlimit: 10;
      }

      .cls-5 {
        fill: #06c;
      }

      .cls-6 {
        fill: #5e40be;
      }

      .cls-7 {
        fill: none;
        stroke: #5e40be;
      }
    </style>
  </defs>
  <g
     data-name="Layer 1"
     id="Layer_1">
    <rect
       id="rect14"
       height="128.316"
       width="242.007"
       y="0.01"
       x="256.224"
       class="cls-1" />
    <g
       id="g26">
      <path
         id="path16"
         transform="translate(-21.324 -18.547)"
         d="M292.511,29.084h1.619l3.108,4.237-.03-4.237h1.619v7h-1.518L294.1,31.7l.03,4.378h-1.619Z"
         class="cls-2" />
      <path
         id="path18"
         transform="translate(-21.324 -18.547)"
         d="M300.011,33.511a2.689,2.689,0,1,1,2.688,2.668A2.623,2.623,0,0,1,300.011,33.511Zm3.8,0a1.126,1.126,0,1,0-1.11,1.319A1.18,1.18,0,0,0,303.809,33.511Z"
         class="cls-2" />
      <path
         id="path20"
         transform="translate(-21.324 -18.547)"
         d="M306.191,33.491a2.487,2.487,0,0,1,2.4-2.6,1.8,1.8,0,0,1,1.379.62V28.964l1.619-.25V36.08h-1.6v-.67a1.945,1.945,0,0,1-1.519.7A2.457,2.457,0,0,1,306.191,33.491Zm3.778.869V32.622a1.314,1.314,0,0,0-.959-.4,1.275,1.275,0,0,0,0,2.549A1.25,1.25,0,0,0,309.969,34.36Z"
         class="cls-2" />
      <path
         id="path22"
         transform="translate(-21.324 -18.547)"
         d="M312.621,33.511a2.585,2.585,0,0,1,2.6-2.669,2.532,2.532,0,0,1,2.538,2.729v.35H314.21a1.235,1.235,0,0,0,1.209.969,1.276,1.276,0,0,0,1.019-.429l1.07.889a3.006,3.006,0,0,1-2.169.829A2.666,2.666,0,0,1,312.621,33.511ZM316.259,33a1.083,1.083,0,0,0-1.05-.9,1.014,1.014,0,0,0-1,.9Z"
         class="cls-2" />
      <path
         id="path24"
         transform="translate(-21.324 -18.547)"
         d="M320.8,34.98l2.958-2.929a1.288,1.288,0,0,0,.469-.949c0-.45-.439-.789-1.029-.789a2.4,2.4,0,0,0-1.769.86l-.86-1.05a3.84,3.84,0,0,1,2.679-1.15c1.489,0,2.478.81,2.478,2.03a2.468,2.468,0,0,1-.909,1.829L322.8,34.78l3.028-.01v1.31H320.8Z"
         class="cls-2" />
    </g>
    <path
       id="path28"
       transform="translate(-21.324 -18.547)"
       d="M291.731,46.894h99.7V132.7h-99.7Z"
       class="cls-3" />
    <g
       id="g38">
      <path
         id="path30"
         transform="translate(-21.324 -18.547)"
         d="M307.17,57.406h3.418a2.286,2.286,0,1,1,0,4.558h-1.7V64.4H307.17Zm3.107,3.188c.7,0,1.04-.379,1.04-.889s-.34-.88-1.029-.88h-1.4v1.769Z"
         class="cls-2" />
      <path
         id="path32"
         transform="translate(-21.324 -18.547)"
         d="M313.89,61.834a2.689,2.689,0,1,1,2.688,2.669A2.623,2.623,0,0,1,313.89,61.834Zm3.8,0a1.126,1.126,0,1,0-1.109,1.319A1.181,1.181,0,0,0,317.687,61.834Z"
         class="cls-2" />
      <path
         id="path34"
         transform="translate(-21.324 -18.547)"
         d="M320.069,61.814a2.486,2.486,0,0,1,2.4-2.6,1.805,1.805,0,0,1,1.38.619V57.286l1.619-.249V64.4h-1.6v-.669a1.943,1.943,0,0,1-1.518.7A2.457,2.457,0,0,1,320.069,61.814Zm3.779.869V60.944a1.313,1.313,0,0,0-.96-.4,1.275,1.275,0,0,0,0,2.548A1.256,1.256,0,0,0,323.848,62.683Z"
         class="cls-2" />
      <path
         id="path36"
         transform="translate(-21.324 -18.547)"
         d="M328.76,63.3l2.958-2.927a1.293,1.293,0,0,0,.469-.95c0-.45-.439-.79-1.029-.79a2.413,2.413,0,0,0-1.769.86l-.86-1.049a3.839,3.839,0,0,1,2.679-1.149c1.489,0,2.478.809,2.478,2.028a2.463,2.463,0,0,1-.909,1.829L330.759,63.1l3.028-.01V64.4H328.76Z"
         class="cls-2" />
    </g>
    <g
       id="g62">
      <path
         id="path40"
         transform="translate(-21.324 -18.547)"
         d="M306.39,75.274h70.866V103.62H306.39Z"
         class="cls-4" />
      <g
         id="g60">
        <path
           id="path42"
           transform="translate(-21.324 -18.547)"
           d="M319.961,89.716a2.526,2.526,0,0,1,2.529-2.588,2.7,2.7,0,0,1,2,.849l-.7.73a1.654,1.654,0,0,0-1.259-.59,1.608,1.608,0,0,0,0,3.2,1.68,1.68,0,0,0,1.259-.579l.7.719a2.7,2.7,0,0,1-2,.849A2.52,2.52,0,0,1,319.961,89.716Z"
           class="cls-2" />
        <path
           id="path44"
           transform="translate(-21.324 -18.547)"
           d="M325.191,89.716A2.515,2.515,0,1,1,327.71,92.3,2.494,2.494,0,0,1,325.191,89.716Zm3.918,0a1.42,1.42,0,1,0-1.4,1.629A1.486,1.486,0,0,0,329.109,89.716Z"
           class="cls-2" />
        <path
           id="path46"
           transform="translate(-21.324 -18.547)"
           d="M331.391,87.208h1.129v.819a1.823,1.823,0,0,1,1.58-.9,1.69,1.69,0,0,1,1.749,1.789v3.3h-1.14V89.236a1.079,1.079,0,0,0-1.1-1.2,1.246,1.246,0,0,0-1.089.61v3.568h-1.129Z"
           class="cls-2" />
        <path
           id="path48"
           transform="translate(-21.324 -18.547)"
           d="M337.83,90.916V88.107h-1v-.9h1v-1.38l1.13-.239v1.619h1.389v.9H338.96v2.559c0,.489.189.679.7.679a2.119,2.119,0,0,0,.68-.12v.949a3.556,3.556,0,0,1-.97.141C338.36,92.315,337.83,91.835,337.83,90.916Z"
           class="cls-2" />
        <path
           id="path50"
           transform="translate(-21.324 -18.547)"
           d="M341.091,90.776c0-.9.739-1.47,1.919-1.47a2.932,2.932,0,0,1,1.349.321v-.561c0-.659-.38-1-1.149-1a3.459,3.459,0,0,0-1.459.39l-.4-.82a4.966,4.966,0,0,1,2.079-.509c1.309,0,2.048.659,2.048,1.819v3.268h-1.119V91.7a2.02,2.02,0,0,1-1.489.609A1.594,1.594,0,0,1,341.091,90.776Zm2.089.73a1.742,1.742,0,0,0,1.179-.42v-.81a2.574,2.574,0,0,0-1.149-.24c-.65,0-1.06.269-1.06.72S342.55,91.506,343.18,91.506Z"
           class="cls-2" />
        <path
           id="path52"
           transform="translate(-21.324 -18.547)"
           d="M346.71,85.5a.7.7,0,1,1,.7.689A.693.693,0,0,1,346.71,85.5Zm.13,1.709h1.13v5.007h-1.13Z"
           class="cls-2" />
        <path
           id="path54"
           transform="translate(-21.324 -18.547)"
           d="M349.37,87.208h1.13v.819a1.823,1.823,0,0,1,1.579-.9,1.69,1.69,0,0,1,1.749,1.789v3.3h-1.14V89.236a1.078,1.078,0,0,0-1.1-1.2,1.246,1.246,0,0,0-1.089.61v3.568h-1.13Z"
           class="cls-2" />
        <path
           id="path56"
           transform="translate(-21.324 -18.547)"
           d="M354.96,89.716a2.471,2.471,0,0,1,2.438-2.588,2.407,2.407,0,0,1,2.37,2.588v.27h-3.7a1.533,1.533,0,0,0,1.5,1.4,1.668,1.668,0,0,0,1.19-.469l.74.669a2.9,2.9,0,0,1-1.98.73A2.542,2.542,0,0,1,354.96,89.716Zm3.738-.429a1.36,1.36,0,0,0-1.309-1.239,1.344,1.344,0,0,0-1.309,1.239Z"
           class="cls-2" />
        <path
           id="path58"
           transform="translate(-21.324 -18.547)"
           d="M360.92,87.208h1.13v1.079a1.5,1.5,0,0,1,1.379-1.169,1.338,1.338,0,0,1,.489.1v.99a1.794,1.794,0,0,0-.619-.12,1.363,1.363,0,0,0-1.249.83v3.3h-1.13Z"
           class="cls-2" />
      </g>
    </g>
    <path
       id="path64"
       transform="translate(-21.324 -18.547)"
       d="M405.684,46.894h99.7V132.7h-99.7Z"
       class="cls-3" />
    <g
       id="g74">
      <path
         id="path66"
         transform="translate(-21.324 -18.547)"
         d="M421.123,57.406h3.418a2.286,2.286,0,1,1,0,4.558h-1.7V64.4h-1.719Zm3.107,3.188c.7,0,1.04-.379,1.04-.889s-.339-.88-1.029-.88h-1.4v1.769Z"
         class="cls-2" />
      <path
         id="path68"
         transform="translate(-21.324 -18.547)"
         d="M427.843,61.834a2.689,2.689,0,1,1,2.688,2.669A2.623,2.623,0,0,1,427.843,61.834Zm3.8,0a1.126,1.126,0,1,0-1.11,1.319A1.181,1.181,0,0,0,431.641,61.834Z"
         class="cls-2" />
      <path
         id="path70"
         transform="translate(-21.324 -18.547)"
         d="M434.022,61.814a2.486,2.486,0,0,1,2.4-2.6,1.805,1.805,0,0,1,1.38.619V57.286l1.619-.249V64.4h-1.6v-.669a1.943,1.943,0,0,1-1.518.7A2.457,2.457,0,0,1,434.022,61.814Zm3.779.869V60.944a1.313,1.313,0,0,0-.96-.4,1.275,1.275,0,0,0,0,2.548A1.256,1.256,0,0,0,437.8,62.683Z"
         class="cls-2" />
      <path
         id="path72"
         transform="translate(-21.324 -18.547)"
         d="M442.513,63.383l1.039-.959a1.983,1.983,0,0,0,1.7.739c.76,0,1.26-.34,1.26-.86,0-.45-.361-.729-.92-.729h-.9V60.3h.74c.57,0,.91-.29.91-.779s-.47-.859-1.1-.859a1.947,1.947,0,0,0-1.629.8l-1.05-.95A3.678,3.678,0,0,1,445.3,57.3c1.529,0,2.589.829,2.589,2.018a1.7,1.7,0,0,1-1.33,1.6c.919.18,1.509.75,1.509,1.519,0,1.209-1.169,2.079-2.8,2.079A3.652,3.652,0,0,1,442.513,63.383Z"
         class="cls-2" />
    </g>
    <g
       id="g98">
      <path
         id="path76"
         transform="translate(-21.324 -18.547)"
         d="M420.342,75.274h70.866V103.62H420.342Z"
         class="cls-4" />
      <g
         id="g96">
        <path
           id="path78"
           transform="translate(-21.324 -18.547)"
           d="M433.914,89.716a2.526,2.526,0,0,1,2.529-2.588,2.7,2.7,0,0,1,2,.849l-.7.73a1.652,1.652,0,0,0-1.259-.59,1.608,1.608,0,0,0,0,3.2,1.678,1.678,0,0,0,1.259-.579l.7.719a2.7,2.7,0,0,1-2,.849A2.52,2.52,0,0,1,433.914,89.716Z"
           class="cls-2" />
        <path
           id="path80"
           transform="translate(-21.324 -18.547)"
           d="M439.144,89.716a2.515,2.515,0,1,1,2.519,2.588A2.494,2.494,0,0,1,439.144,89.716Zm3.918,0a1.42,1.42,0,1,0-1.4,1.629A1.485,1.485,0,0,0,443.062,89.716Z"
           class="cls-2" />
        <path
           id="path82"
           transform="translate(-21.324 -18.547)"
           d="M445.344,87.208h1.13v.819a1.821,1.821,0,0,1,1.579-.9,1.69,1.69,0,0,1,1.749,1.789v3.3h-1.14V89.236a1.079,1.079,0,0,0-1.1-1.2,1.243,1.243,0,0,0-1.088.61v3.568h-1.13Z"
           class="cls-2" />
        <path
           id="path84"
           transform="translate(-21.324 -18.547)"
           d="M451.783,90.916V88.107h-1v-.9h1v-1.38l1.13-.239v1.619H454.3v.9h-1.389v2.559c0,.489.189.679.7.679a2.119,2.119,0,0,0,.68-.12v.949a3.556,3.556,0,0,1-.97.141C452.313,92.315,451.783,91.835,451.783,90.916Z"
           class="cls-2" />
        <path
           id="path86"
           transform="translate(-21.324 -18.547)"
           d="M455.044,90.776c0-.9.739-1.47,1.919-1.47a2.929,2.929,0,0,1,1.349.321v-.561c0-.659-.379-1-1.149-1a3.459,3.459,0,0,0-1.459.39l-.4-.82a4.966,4.966,0,0,1,2.079-.509c1.309,0,2.049.659,2.049,1.819v3.268h-1.12V91.7a2.02,2.02,0,0,1-1.489.609A1.594,1.594,0,0,1,455.044,90.776Zm2.089.73a1.74,1.74,0,0,0,1.179-.42v-.81a2.574,2.574,0,0,0-1.149-.24c-.649,0-1.06.269-1.06.72S456.5,91.506,457.133,91.506Z"
           class="cls-2" />
        <path
           id="path88"
           transform="translate(-21.324 -18.547)"
           d="M460.663,85.5a.7.7,0,1,1,.7.689A.693.693,0,0,1,460.663,85.5Zm.13,1.709h1.13v5.007h-1.13Z"
           class="cls-2" />
        <path
           id="path90"
           transform="translate(-21.324 -18.547)"
           d="M463.323,87.208h1.13v.819a1.823,1.823,0,0,1,1.579-.9,1.69,1.69,0,0,1,1.749,1.789v3.3h-1.139V89.236a1.079,1.079,0,0,0-1.1-1.2,1.246,1.246,0,0,0-1.089.61v3.568h-1.13Z"
           class="cls-2" />
        <path
           id="path92"
           transform="translate(-21.324 -18.547)"
           d="M468.913,89.716a2.472,2.472,0,0,1,2.438-2.588,2.406,2.406,0,0,1,2.37,2.588v.27h-3.7a1.533,1.533,0,0,0,1.5,1.4,1.666,1.666,0,0,0,1.19-.469l.74.669a2.9,2.9,0,0,1-1.979.73A2.542,2.542,0,0,1,468.913,89.716Zm3.738-.429a1.36,1.36,0,0,0-1.309-1.239,1.344,1.344,0,0,0-1.309,1.239Z"
           class="cls-2" />
        <path
           id="path94"
           transform="translate(-21.324 -18.547)"
           d="M474.873,87.208H476v1.079a1.5,1.5,0,0,1,1.379-1.169,1.338,1.338,0,0,1,.489.1v.99a1.794,1.794,0,0,0-.619-.12,1.363,1.363,0,0,0-1.249.83v3.3h-1.13Z"
           class="cls-2" />
      </g>
    </g>
    <rect
       id="rect100"
       height="128.326"
       width="242.007"
       class="cls-1" />
    <g
       id="g112">
      <path
         id="path102"
         transform="translate(-21.324 -18.547)"
         d="M36.286,29.084h1.619l3.109,4.237-.031-4.237H42.6v7H41.084L37.875,31.7l.03,4.378H36.286Z"
         class="cls-2" />
      <path
         id="path104"
         transform="translate(-21.324 -18.547)"
         d="M43.786,33.511a2.689,2.689,0,1,1,2.689,2.668A2.624,2.624,0,0,1,43.786,33.511Zm3.8,0a1.126,1.126,0,1,0-1.109,1.319A1.18,1.18,0,0,0,47.584,33.511Z"
         class="cls-2" />
      <path
         id="path106"
         transform="translate(-21.324 -18.547)"
         d="M49.967,33.491a2.486,2.486,0,0,1,2.4-2.6,1.8,1.8,0,0,1,1.379.62V28.964l1.619-.25V36.08h-1.6v-.67a1.948,1.948,0,0,1-1.52.7A2.457,2.457,0,0,1,49.967,33.491Zm3.777.869V32.622a1.314,1.314,0,0,0-.959-.4,1.275,1.275,0,0,0,0,2.549A1.249,1.249,0,0,0,53.744,34.36Z"
         class="cls-2" />
      <path
         id="path108"
         transform="translate(-21.324 -18.547)"
         d="M56.4,33.511A2.586,2.586,0,0,1,59,30.842a2.532,2.532,0,0,1,2.538,2.729v.35H57.985a1.236,1.236,0,0,0,1.209.969,1.279,1.279,0,0,0,1.02-.429l1.069.889a3.006,3.006,0,0,1-2.169.829A2.667,2.667,0,0,1,56.4,33.511ZM60.034,33a1.083,1.083,0,0,0-1.05-.9,1.015,1.015,0,0,0-1,.9Z"
         class="cls-2" />
      <path
         id="path110"
         transform="translate(-21.324 -18.547)"
         d="M65.766,30.682l-1.38.571v-1.36l1.949-.809h.97v7H65.766Z"
         class="cls-2" />
    </g>
    <path
       id="path114"
       transform="translate(-21.324 -18.547)"
       d="M35.508,46.894h99.7V132.7h-99.7Z"
       class="cls-3" />
    <g
       id="g128">
      <path
         id="path116"
         transform="translate(-21.324 -18.547)"
         d="M50.185,57.406h1.859l1.849,5.207,1.879-5.207h1.789l-2.728,7H52.874Z"
         class="cls-2" />
      <path
         id="path118"
         transform="translate(-21.324 -18.547)"
         d="M58.365,57.406h2.158l1.69,3.358,1.679-3.358h2.159v7H64.432V59.655L62.192,63.9l-2.248-4.288V64.4H58.365Z"
         class="cls-2" />
      <path
         id="path120"
         transform="translate(-21.324 -18.547)"
         d="M69.765,57.406h3.418a2.286,2.286,0,1,1,0,4.558h-1.7V64.4H69.765Zm3.108,3.188c.7,0,1.039-.379,1.039-.889s-.34-.88-1.029-.88h-1.4v1.769Z"
         class="cls-2" />
      <path
         id="path122"
         transform="translate(-21.324 -18.547)"
         d="M76.484,61.834A2.689,2.689,0,1,1,79.173,64.5,2.623,2.623,0,0,1,76.484,61.834Zm3.8,0a1.126,1.126,0,1,0-1.109,1.319A1.181,1.181,0,0,0,80.282,61.834Z"
         class="cls-2" />
      <path
         id="path124"
         transform="translate(-21.324 -18.547)"
         d="M82.665,61.814a2.486,2.486,0,0,1,2.4-2.6,1.8,1.8,0,0,1,1.379.619V57.286l1.619-.249V64.4h-1.6v-.669a1.946,1.946,0,0,1-1.52.7A2.457,2.457,0,0,1,82.665,61.814Zm3.777.869V60.944a1.312,1.312,0,0,0-.959-.4,1.275,1.275,0,0,0,0,2.548A1.252,1.252,0,0,0,86.442,62.683Z"
         class="cls-2" />
      <path
         id="path126"
         transform="translate(-21.324 -18.547)"
         d="M92.544,59.006l-1.379.569V58.216l1.948-.81h.97v7H92.544Z"
         class="cls-2" />
    </g>
    <g
       id="g150">
      <path
         id="path130"
         transform="translate(-21.324 -18.547)"
         d="M65.221,115.658l-1.117.476v-.873l1.477-.638H66.2v6.3h-.981Z"
         class="cls-2" />
      <path
         id="path132"
         transform="translate(-21.324 -18.547)"
         d="M67.3,117.773c0-1.935,1.053-3.25,2.584-3.25s2.575,1.315,2.575,3.25-1.045,3.241-2.575,3.241S67.3,119.7,67.3,117.773Zm4.177,0c0-1.449-.621-2.377-1.593-2.377s-1.6.928-1.6,2.377.63,2.368,1.6,2.368S71.477,119.214,71.477,117.773Z"
         class="cls-2" />
      <path
         id="path134"
         transform="translate(-21.324 -18.547)"
         d="M73.411,120.357a.631.631,0,1,1,1.26,0,.63.63,0,1,1-1.26,0Z"
         class="cls-2" />
      <path
         id="path136"
         transform="translate(-21.324 -18.547)"
         d="M76.615,115.658l-1.116.476v-.873l1.477-.638H77.6v6.3h-.982Z"
         class="cls-2" />
      <path
         id="path138"
         transform="translate(-21.324 -18.547)"
         d="M78.7,120.213l2.584-2.7a1.67,1.67,0,0,0,.612-1.206,1.024,1.024,0,0,0-1.143-.919,2.26,2.26,0,0,0-1.639.766l-.557-.676a3.207,3.207,0,0,1,2.214-.954c1.234,0,2.079.7,2.079,1.729a2.389,2.389,0,0,1-.89,1.764l-2.008,2.071,3.016-.009v.846H78.7Z"
         class="cls-2" />
      <path
         id="path140"
         transform="translate(-21.324 -18.547)"
         d="M83.851,119.187a1.667,1.667,0,0,1,1.35-1.54,1.524,1.524,0,0,1-1.135-1.4,2.17,2.17,0,0,1,4.249,0,1.525,1.525,0,0,1-1.133,1.4,1.668,1.668,0,0,1,1.35,1.54c0,1.071-.972,1.836-2.341,1.836S83.851,120.258,83.851,119.187Zm3.691-.063c0-.621-.567-1.08-1.351-1.08s-1.35.459-1.35,1.08a1.382,1.382,0,0,0,2.7,0Zm-.19-2.818a1.178,1.178,0,1,0-1.161.981A1.055,1.055,0,0,0,87.352,116.306Z"
         class="cls-2" />
      <path
         id="path142"
         transform="translate(-21.324 -18.547)"
         d="M89.493,120.357a.631.631,0,1,1,1.261,0,.631.631,0,1,1-1.261,0Z"
         class="cls-2" />
      <path
         id="path144"
         transform="translate(-21.324 -18.547)"
         d="M93.768,117.656l-2.277-3.033h1.287l1.648,2.25,1.63-2.25h1.251l-2.278,3.06,2.422,3.241h-1.3l-1.773-2.466-1.791,2.466H91.348Z"
         class="cls-2" />
      <path
         id="path146"
         transform="translate(-21.324 -18.547)"
         d="M98.044,120.357a.631.631,0,1,1,1.26,0,.63.63,0,1,1-1.26,0Z"
         class="cls-2" />
      <path
         id="path148"
         transform="translate(-21.324 -18.547)"
         d="M102.319,117.656l-2.277-3.033h1.287l1.647,2.25,1.63-2.25h1.251l-2.277,3.06L106,120.924h-1.3l-1.773-2.466-1.792,2.466H99.9Z"
         class="cls-2" />
    </g>
    <g
       id="g164">
      <g
         id="g156">
        <rect
           id="rect152"
           height="27.347"
           width="69.866"
           y="57.226"
           x="29.342"
           class="cls-1" />
        <path
           id="path154"
           transform="translate(-21.324 -18.547)"
           d="M120.032,76.274V102.62H51.166V76.274h68.866m1-1H50.166V103.62h70.866V75.274Z"
           class="cls-5" />
      </g>
      <g
         id="g162">
        <path
           id="path158"
           transform="translate(-21.324 -18.547)"
           d="M77.726,85.218h1.29L81.165,91l2.169-5.778h1.239l-2.739,7H80.445Z"
           class="cls-2" />
        <path
           id="path160"
           transform="translate(-21.324 -18.547)"
           d="M85.476,85.218h1.559l2.049,4.248,2.039-4.248h1.559v7H91.553V86.738l-2.479,4.978-2.489-5.008v5.507H85.476Z"
           class="cls-2" />
      </g>
    </g>
    <path
       id="path166"
       transform="translate(-21.324 -18.547)"
       d="M149.46,46.894h99.7V132.7h-99.7Z"
       class="cls-3" />
    <g
       id="g176">
      <path
         id="path168"
         transform="translate(-21.324 -18.547)"
         d="M164.9,57.406h3.418a2.286,2.286,0,1,1,0,4.558h-1.7V64.4H164.9Zm3.109,3.188c.7,0,1.039-.379,1.039-.889s-.34-.88-1.029-.88h-1.4v1.769Z"
         class="cls-2" />
      <path
         id="path170"
         transform="translate(-21.324 -18.547)"
         d="M171.619,61.834a2.689,2.689,0,1,1,2.689,2.669A2.623,2.623,0,0,1,171.619,61.834Zm3.8,0a1.126,1.126,0,1,0-1.109,1.319A1.181,1.181,0,0,0,175.417,61.834Z"
         class="cls-2" />
      <path
         id="path172"
         transform="translate(-21.324 -18.547)"
         d="M177.8,61.814a2.485,2.485,0,0,1,2.4-2.6,1.8,1.8,0,0,1,1.379.619V57.286l1.619-.249V64.4h-1.6v-.669a1.948,1.948,0,0,1-1.52.7A2.457,2.457,0,0,1,177.8,61.814Zm3.777.869V60.944a1.312,1.312,0,0,0-.959-.4,1.275,1.275,0,0,0,0,2.548A1.252,1.252,0,0,0,181.576,62.683Z"
         class="cls-2" />
      <path
         id="path174"
         transform="translate(-21.324 -18.547)"
         d="M187.678,59.006l-1.379.569V58.216l1.948-.81h.97v7h-1.539Z"
         class="cls-2" />
    </g>
    <g
       id="g200">
      <path
         id="path178"
         transform="translate(-21.324 -18.547)"
         d="M164.119,75.274h70.866V103.62H164.119Z"
         class="cls-4" />
      <g
         id="g198">
        <path
           id="path180"
           transform="translate(-21.324 -18.547)"
           d="M177.69,89.716a2.526,2.526,0,0,1,2.529-2.588,2.707,2.707,0,0,1,2,.849l-.7.73a1.655,1.655,0,0,0-1.259-.59,1.608,1.608,0,0,0,0,3.2,1.681,1.681,0,0,0,1.259-.579l.7.719a2.707,2.707,0,0,1-2,.849A2.52,2.52,0,0,1,177.69,89.716Z"
           class="cls-2" />
        <path
           id="path182"
           transform="translate(-21.324 -18.547)"
           d="M182.92,89.716a2.515,2.515,0,1,1,2.518,2.588A2.494,2.494,0,0,1,182.92,89.716Zm3.918,0a1.42,1.42,0,1,0-1.4,1.629A1.486,1.486,0,0,0,186.838,89.716Z"
           class="cls-2" />
        <path
           id="path184"
           transform="translate(-21.324 -18.547)"
           d="M189.12,87.208h1.129v.819a1.824,1.824,0,0,1,1.579-.9,1.69,1.69,0,0,1,1.749,1.789v3.3h-1.14V89.236a1.078,1.078,0,0,0-1.1-1.2,1.248,1.248,0,0,0-1.09.61v3.568H189.12Z"
           class="cls-2" />
        <path
           id="path186"
           transform="translate(-21.324 -18.547)"
           d="M195.56,90.916V88.107h-1v-.9h1v-1.38l1.128-.239v1.619h1.39v.9h-1.39v2.559c0,.489.191.679.7.679a2.118,2.118,0,0,0,.679-.12v.949a3.554,3.554,0,0,1-.969.141C196.089,92.315,195.56,91.835,195.56,90.916Z"
           class="cls-2" />
        <path
           id="path188"
           transform="translate(-21.324 -18.547)"
           d="M198.82,90.776c0-.9.74-1.47,1.919-1.47a2.929,2.929,0,0,1,1.349.321v-.561c0-.659-.38-1-1.15-1a3.466,3.466,0,0,0-1.459.39l-.4-.82a4.961,4.961,0,0,1,2.078-.509c1.31,0,2.049.659,2.049,1.819v3.268h-1.119V91.7a2.02,2.02,0,0,1-1.489.609A1.594,1.594,0,0,1,198.82,90.776Zm2.089.73a1.744,1.744,0,0,0,1.179-.42v-.81a2.578,2.578,0,0,0-1.15-.24c-.649,0-1.059.269-1.059.72S200.279,91.506,200.909,91.506Z"
           class="cls-2" />
        <path
           id="path190"
           transform="translate(-21.324 -18.547)"
           d="M204.439,85.5a.7.7,0,0,1,.7-.7.709.709,0,0,1,.7.7.7.7,0,0,1-.7.689A.693.693,0,0,1,204.439,85.5Zm.13,1.709H205.7v5.007h-1.129Z"
           class="cls-2" />
        <path
           id="path192"
           transform="translate(-21.324 -18.547)"
           d="M207.1,87.208h1.128v.819a1.825,1.825,0,0,1,1.58-.9,1.69,1.69,0,0,1,1.749,1.789v3.3h-1.14V89.236a1.078,1.078,0,0,0-1.1-1.2,1.248,1.248,0,0,0-1.09.61v3.568H207.1Z"
           class="cls-2" />
        <path
           id="path194"
           transform="translate(-21.324 -18.547)"
           d="M212.689,89.716a2.472,2.472,0,0,1,2.439-2.588,2.406,2.406,0,0,1,2.368,2.588v.27h-3.7a1.531,1.531,0,0,0,1.5,1.4,1.665,1.665,0,0,0,1.189-.469l.739.669a2.9,2.9,0,0,1-1.978.73A2.542,2.542,0,0,1,212.689,89.716Zm3.738-.429a1.36,1.36,0,0,0-1.309-1.239,1.344,1.344,0,0,0-1.309,1.239Z"
           class="cls-2" />
        <path
           id="path196"
           transform="translate(-21.324 -18.547)"
           d="M218.649,87.208h1.129v1.079a1.5,1.5,0,0,1,1.379-1.169,1.334,1.334,0,0,1,.49.1v.99a1.8,1.8,0,0,0-.62-.12,1.364,1.364,0,0,0-1.249.83v3.3h-1.129Z"
           class="cls-2" />
      </g>
    </g>
    <rect
       id="rect202"
       height="128.316"
       width="242.007"
       y="0.01"
       x="512.419"
       class="cls-1" />
    <g
       id="g214">
      <path
         id="path204"
         transform="translate(-21.324 -18.547)"
         d="M548.707,29.084h1.618l3.109,4.237-.03-4.237h1.619v7H553.5L550.3,31.7l.029,4.378h-1.618Z"
         class="cls-2" />
      <path
         id="path206"
         transform="translate(-21.324 -18.547)"
         d="M556.207,33.511a2.689,2.689,0,1,1,2.688,2.668A2.623,2.623,0,0,1,556.207,33.511Zm3.8,0a1.126,1.126,0,1,0-1.11,1.319A1.18,1.18,0,0,0,560.005,33.511Z"
         class="cls-2" />
      <path
         id="path208"
         transform="translate(-21.324 -18.547)"
         d="M562.387,33.491a2.487,2.487,0,0,1,2.4-2.6,1.806,1.806,0,0,1,1.38.62V28.964l1.619-.25V36.08h-1.6v-.67a1.945,1.945,0,0,1-1.519.7A2.457,2.457,0,0,1,562.387,33.491Zm3.778.869V32.622a1.314,1.314,0,0,0-.96-.4,1.275,1.275,0,0,0,0,2.549A1.251,1.251,0,0,0,566.165,34.36Z"
         class="cls-2" />
      <path
         id="path210"
         transform="translate(-21.324 -18.547)"
         d="M568.816,33.511a2.585,2.585,0,0,1,2.6-2.669,2.532,2.532,0,0,1,2.539,2.729v.35h-3.549a1.238,1.238,0,0,0,1.21.969,1.281,1.281,0,0,0,1.02-.429l1.069.889a3.009,3.009,0,0,1-2.169.829A2.667,2.667,0,0,1,568.816,33.511ZM572.454,33a1.082,1.082,0,0,0-1.049-.9,1.015,1.015,0,0,0-1,.9Z"
         class="cls-2" />
      <path
         id="path212"
         transform="translate(-21.324 -18.547)"
         d="M579.275,32.441l-2.529-3.357h2.049L580.3,31.2l1.5-2.118h1.968L581.254,32.5l2.679,3.578h-2.049l-1.659-2.36-1.669,2.36h-1.969Z"
         class="cls-2" />
    </g>
    <path
       id="path216"
       transform="translate(-21.324 -18.547)"
       d="M547.926,46.894h99.7V132.7h-99.7Z"
       class="cls-3" />
    <g
       id="g230">
      <path
         id="path218"
         transform="translate(-21.324 -18.547)"
         d="M562.605,57.406h1.86l1.848,5.207,1.879-5.207h1.789l-2.728,7h-1.959Z"
         class="cls-2" />
      <path
         id="path220"
         transform="translate(-21.324 -18.547)"
         d="M570.785,57.406h2.159l1.689,3.358,1.679-3.358h2.159v7h-1.62V59.655L574.613,63.9l-2.249-4.288V64.4h-1.579Z"
         class="cls-2" />
      <path
         id="path222"
         transform="translate(-21.324 -18.547)"
         d="M582.185,57.406H585.6a2.286,2.286,0,1,1,0,4.558h-1.7V64.4h-1.719Zm3.108,3.188c.7,0,1.04-.379,1.04-.889s-.34-.88-1.029-.88h-1.4v1.769Z"
         class="cls-2" />
      <path
         id="path224"
         transform="translate(-21.324 -18.547)"
         d="M588.905,61.834a2.689,2.689,0,1,1,2.689,2.669A2.623,2.623,0,0,1,588.905,61.834Zm3.8,0a1.126,1.126,0,1,0-1.109,1.319A1.181,1.181,0,0,0,592.7,61.834Z"
         class="cls-2" />
      <path
         id="path226"
         transform="translate(-21.324 -18.547)"
         d="M595.085,61.814a2.486,2.486,0,0,1,2.4-2.6,1.8,1.8,0,0,1,1.38.619V57.286l1.619-.249V64.4h-1.6v-.669a1.944,1.944,0,0,1-1.519.7A2.457,2.457,0,0,1,595.085,61.814Zm3.778.869V60.944a1.313,1.313,0,0,0-.96-.4,1.275,1.275,0,0,0,0,2.548A1.254,1.254,0,0,0,598.863,62.683Z"
         class="cls-2" />
      <path
         id="path228"
         transform="translate(-21.324 -18.547)"
         d="M603.775,63.3l2.958-2.927a1.294,1.294,0,0,0,.47-.95c0-.45-.439-.79-1.029-.79a2.416,2.416,0,0,0-1.77.86l-.859-1.049a3.839,3.839,0,0,1,2.679-1.149c1.489,0,2.478.809,2.478,2.028a2.463,2.463,0,0,1-.909,1.829L605.774,63.1l3.029-.01V64.4h-5.028Z"
         class="cls-2" />
    </g>
    <g
       id="g244">
      <g
         id="g236">
        <rect
           id="rect232"
           height="27.347"
           width="69.866"
           y="57.226"
           x="541.761"
           class="cls-1" />
        <path
           id="path234"
           transform="translate(-21.324 -18.547)"
           d="M632.451,76.274V102.62H563.585V76.274h68.866m1-1H562.585V103.62h70.866V75.274Z"
           class="cls-5" />
      </g>
      <g
         id="g242">
        <path
           id="path238"
           transform="translate(-21.324 -18.547)"
           d="M590.147,85.218h1.289L593.585,91l2.169-5.778h1.239l-2.738,7h-1.39Z"
           class="cls-2" />
        <path
           id="path240"
           transform="translate(-21.324 -18.547)"
           d="M597.9,85.218h1.559l2.05,4.248,2.038-4.248H605.1v7h-1.129V86.738l-2.479,4.978-2.488-5.008v5.507H597.9Z"
           class="cls-2" />
      </g>
    </g>
    <path
       id="path246"
       transform="translate(-21.324 -18.547)"
       d="M661.879,46.894h99.7V132.7h-99.7Z"
       class="cls-3" />
    <g
       id="g260">
      <path
         id="path248"
         transform="translate(-21.324 -18.547)"
         d="M676.559,57.406h1.858l1.85,5.207,1.878-5.207h1.79l-2.729,7h-1.959Z"
         class="cls-2" />
      <path
         id="path250"
         transform="translate(-21.324 -18.547)"
         d="M684.738,57.406H686.9l1.69,3.358,1.679-3.358h2.159v7h-1.619V59.655l-2.24,4.248-2.248-4.288V64.4h-1.579Z"
         class="cls-2" />
      <path
         id="path252"
         transform="translate(-21.324 -18.547)"
         d="M696.138,57.406h3.418a2.286,2.286,0,1,1,0,4.558h-1.7V64.4h-1.718Zm3.108,3.188c.7,0,1.039-.379,1.039-.889s-.34-.88-1.029-.88h-1.4v1.769Z"
         class="cls-2" />
      <path
         id="path254"
         transform="translate(-21.324 -18.547)"
         d="M702.857,61.834a2.689,2.689,0,1,1,2.689,2.669A2.624,2.624,0,0,1,702.857,61.834Zm3.8,0a1.126,1.126,0,1,0-1.109,1.319A1.181,1.181,0,0,0,706.655,61.834Z"
         class="cls-2" />
      <path
         id="path256"
         transform="translate(-21.324 -18.547)"
         d="M709.038,61.814a2.486,2.486,0,0,1,2.4-2.6,1.8,1.8,0,0,1,1.379.619V57.286l1.62-.249V64.4h-1.6v-.669a1.946,1.946,0,0,1-1.52.7A2.457,2.457,0,0,1,709.038,61.814Zm3.777.869V60.944a1.31,1.31,0,0,0-.959-.4,1.275,1.275,0,0,0,0,2.548A1.252,1.252,0,0,0,712.815,62.683Z"
         class="cls-2" />
      <path
         id="path258"
         transform="translate(-21.324 -18.547)"
         d="M717.528,63.383l1.039-.959a1.985,1.985,0,0,0,1.7.739c.759,0,1.258-.34,1.258-.86,0-.45-.359-.729-.919-.729h-.9V60.3h.739c.57,0,.909-.29.909-.779s-.469-.859-1.1-.859a1.948,1.948,0,0,0-1.629.8l-1.049-.95a3.673,3.673,0,0,1,2.738-1.218c1.53,0,2.589.829,2.589,2.018a1.7,1.7,0,0,1-1.33,1.6c.92.18,1.51.75,1.51,1.519,0,1.209-1.17,2.079-2.8,2.079A3.652,3.652,0,0,1,717.528,63.383Z"
         class="cls-2" />
    </g>
    <g
       id="g274">
      <g
         id="g266">
        <rect
           id="rect262"
           height="27.347"
           width="69.866"
           y="57.226"
           x="655.714"
           class="cls-1" />
        <path
           id="path264"
           transform="translate(-21.324 -18.547)"
           d="M746.4,76.274V102.62H677.538V76.274H746.4m1-1H676.538V103.62H747.4V75.274Z"
           class="cls-5" />
      </g>
      <g
         id="g272">
        <path
           id="path268"
           transform="translate(-21.324 -18.547)"
           d="M704.1,85.218h1.289L707.537,91l2.169-5.778h1.239l-2.739,7h-1.389Z"
           class="cls-2" />
        <path
           id="path270"
           transform="translate(-21.324 -18.547)"
           d="M711.849,85.218h1.558l2.049,4.248,2.039-4.248h1.559v7h-1.129V86.738l-2.479,4.978-2.488-5.008v5.507h-1.109Z"
           class="cls-2" />
      </g>
    </g>
    <g
       id="g296">
      <path
         id="path276"
         transform="translate(-21.324 -18.547)"
         d="M179.458,115.657l-1.116.477v-.873l1.476-.639h.621v6.3h-.981Z"
         class="cls-2" />
      <path
         id="path278"
         transform="translate(-21.324 -18.547)"
         d="M181.537,117.773c0-1.935,1.054-3.25,2.584-3.25s2.575,1.315,2.575,3.25-1.045,3.24-2.575,3.24S181.537,119.7,181.537,117.773Zm4.178,0c0-1.45-.621-2.377-1.594-2.377s-1.6.927-1.6,2.377.63,2.367,1.6,2.367S185.715,119.214,185.715,117.773Z"
         class="cls-2" />
      <path
         id="path280"
         transform="translate(-21.324 -18.547)"
         d="M187.648,120.356a.631.631,0,1,1,1.26,0,.63.63,0,1,1-1.26,0Z"
         class="cls-2" />
      <path
         id="path282"
         transform="translate(-21.324 -18.547)"
         d="M190.852,115.657l-1.116.477v-.873l1.477-.639h.621v6.3h-.982Z"
         class="cls-2" />
      <path
         id="path284"
         transform="translate(-21.324 -18.547)"
         d="M192.939,120.213l2.584-2.7a1.668,1.668,0,0,0,.613-1.206,1.024,1.024,0,0,0-1.144-.918,2.263,2.263,0,0,0-1.639.765l-.557-.675a3.205,3.205,0,0,1,2.215-.954c1.233,0,2.079.7,2.079,1.729a2.392,2.392,0,0,1-.891,1.764l-2.008,2.071,3.016-.009v.846h-4.268Z"
         class="cls-2" />
      <path
         id="path286"
         transform="translate(-21.324 -18.547)"
         d="M198.088,119.186a1.667,1.667,0,0,1,1.35-1.539,1.526,1.526,0,0,1-1.134-1.4,2.17,2.17,0,0,1,4.249,0,1.526,1.526,0,0,1-1.134,1.4,1.668,1.668,0,0,1,1.35,1.539c0,1.072-.972,1.837-2.34,1.837S198.088,120.258,198.088,119.186Zm3.691-.062c0-.622-.567-1.081-1.35-1.081s-1.351.459-1.351,1.081a1.382,1.382,0,0,0,2.7,0Zm-.189-2.819a1.178,1.178,0,1,0-1.161.982A1.056,1.056,0,0,0,201.59,116.305Z"
         class="cls-2" />
      <path
         id="path288"
         transform="translate(-21.324 -18.547)"
         d="M203.73,120.356a.631.631,0,1,1,1.261,0,.631.631,0,1,1-1.261,0Z"
         class="cls-2" />
      <path
         id="path290"
         transform="translate(-21.324 -18.547)"
         d="M208.006,117.656l-2.278-3.034h1.288l1.647,2.251,1.63-2.251h1.251l-2.277,3.061,2.421,3.241h-1.3l-1.774-2.467-1.791,2.467h-1.242Z"
         class="cls-2" />
      <path
         id="path292"
         transform="translate(-21.324 -18.547)"
         d="M212.281,120.356a.631.631,0,1,1,1.26,0,.63.63,0,1,1-1.26,0Z"
         class="cls-2" />
      <path
         id="path294"
         transform="translate(-21.324 -18.547)"
         d="M216.557,117.656l-2.278-3.034h1.287l1.648,2.251,1.63-2.251H220.1l-2.278,3.061,2.421,3.241h-1.3l-1.773-2.467-1.792,2.467h-1.242Z"
         class="cls-2" />
    </g>
    <g
       id="g318">
      <path
         id="path298"
         transform="translate(-21.324 -18.547)"
         d="M321.727,115.657l-1.115.477v-.873l1.477-.639h.621v6.3h-.983Z"
         class="cls-2" />
      <path
         id="path300"
         transform="translate(-21.324 -18.547)"
         d="M323.808,117.773c0-1.935,1.052-3.25,2.583-3.25s2.575,1.315,2.575,3.25-1.045,3.24-2.575,3.24S323.808,119.7,323.808,117.773Zm4.176,0c0-1.45-.621-2.377-1.593-2.377s-1.6.927-1.6,2.377.631,2.367,1.6,2.367S327.984,119.214,327.984,117.773Z"
         class="cls-2" />
      <path
         id="path302"
         transform="translate(-21.324 -18.547)"
         d="M329.918,120.356a.631.631,0,1,1,.63.649A.637.637,0,0,1,329.918,120.356Z"
         class="cls-2" />
      <path
         id="path304"
         transform="translate(-21.324 -18.547)"
         d="M333.122,115.657l-1.116.477v-.873l1.476-.639h.621v6.3h-.981Z"
         class="cls-2" />
      <path
         id="path306"
         transform="translate(-21.324 -18.547)"
         d="M335.21,120.213l2.584-2.7a1.665,1.665,0,0,0,.611-1.206,1.023,1.023,0,0,0-1.142-.918,2.259,2.259,0,0,0-1.639.765l-.559-.675a3.207,3.207,0,0,1,2.215-.954c1.234,0,2.08.7,2.08,1.729a2.4,2.4,0,0,1-.891,1.764l-2.008,2.071,3.016-.009v.846H335.21Z"
         class="cls-2" />
      <path
         id="path308"
         transform="translate(-21.324 -18.547)"
         d="M345.11,117.6c0,2.052-1.17,3.411-2.933,3.411a2.822,2.822,0,0,1-1.676-.54l.541-.728a2,2,0,0,0,1.215.387c1.17,0,1.855-.937,1.873-2.521a2.157,2.157,0,0,1-1.738.927,1.959,1.959,0,0,1-2.116-1.936,2.1,2.1,0,0,1,2.224-2.079C344.049,114.523,345.11,115.774,345.11,117.6Zm-1.025-.594c-.162-.991-.748-1.639-1.549-1.639a1.218,1.218,0,0,0-1.287,1.216,1.193,1.193,0,0,0,1.3,1.178A2.03,2.03,0,0,0,344.085,117.008Z"
         class="cls-2" />
      <path
         id="path310"
         transform="translate(-21.324 -18.547)"
         d="M346.073,120.356a.631.631,0,1,1,1.26,0,.63.63,0,1,1-1.26,0Z"
         class="cls-2" />
      <path
         id="path312"
         transform="translate(-21.324 -18.547)"
         d="M350.349,117.656l-2.278-3.034h1.287l1.647,2.251,1.631-2.251h1.25l-2.278,3.061,2.422,3.241h-1.3l-1.773-2.467-1.791,2.467h-1.242Z"
         class="cls-2" />
      <path
         id="path314"
         transform="translate(-21.324 -18.547)"
         d="M354.622,120.356a.631.631,0,1,1,1.261,0,.631.631,0,1,1-1.261,0Z"
         class="cls-2" />
      <path
         id="path316"
         transform="translate(-21.324 -18.547)"
         d="M358.9,117.656l-2.277-3.034h1.287l1.649,2.251,1.629-2.251h1.251l-2.277,3.061,2.421,3.241h-1.3l-1.773-2.467-1.792,2.467h-1.243Z"
         class="cls-2" />
    </g>
    <g
       id="g340">
      <path
         id="path320"
         transform="translate(-21.324 -18.547)"
         d="M436.815,115.657l-1.116.477v-.873l1.477-.639h.621v6.3h-.982Z"
         class="cls-2" />
      <path
         id="path322"
         transform="translate(-21.324 -18.547)"
         d="M438.894,117.773c0-1.935,1.054-3.25,2.584-3.25s2.576,1.315,2.576,3.25-1.045,3.24-2.576,3.24S438.894,119.7,438.894,117.773Zm4.178,0c0-1.45-.621-2.377-1.594-2.377s-1.6.927-1.6,2.377.63,2.367,1.6,2.367S443.072,119.214,443.072,117.773Z"
         class="cls-2" />
      <path
         id="path324"
         transform="translate(-21.324 -18.547)"
         d="M445.006,120.356a.631.631,0,1,1,1.26,0,.63.63,0,1,1-1.26,0Z"
         class="cls-2" />
      <path
         id="path326"
         transform="translate(-21.324 -18.547)"
         d="M448.21,115.657l-1.116.477v-.873l1.476-.639h.621v6.3h-.981Z"
         class="cls-2" />
      <path
         id="path328"
         transform="translate(-21.324 -18.547)"
         d="M450.3,120.213l2.584-2.7a1.666,1.666,0,0,0,.612-1.206,1.023,1.023,0,0,0-1.143-.918,2.261,2.261,0,0,0-1.639.765l-.558-.675a3.207,3.207,0,0,1,2.215-.954c1.233,0,2.079.7,2.079,1.729a2.394,2.394,0,0,1-.89,1.764l-2.008,2.071,3.015-.009v.846H450.3Z"
         class="cls-2" />
      <path
         id="path330"
         transform="translate(-21.324 -18.547)"
         d="M460.2,117.6c0,2.052-1.17,3.411-2.934,3.411a2.819,2.819,0,0,1-1.675-.54l.54-.728a2,2,0,0,0,1.216.387c1.17,0,1.854-.937,1.872-2.521a2.157,2.157,0,0,1-1.738.927,1.958,1.958,0,0,1-2.115-1.936,2.1,2.1,0,0,1,2.224-2.079C459.137,114.523,460.2,115.774,460.2,117.6Zm-1.026-.594c-.162-.991-.747-1.639-1.548-1.639a1.219,1.219,0,0,0-1.288,1.216,1.193,1.193,0,0,0,1.3,1.178A2.03,2.03,0,0,0,459.172,117.008Z"
         class="cls-2" />
      <path
         id="path332"
         transform="translate(-21.324 -18.547)"
         d="M461.16,120.356a.631.631,0,1,1,1.261,0,.631.631,0,1,1-1.261,0Z"
         class="cls-2" />
      <path
         id="path334"
         transform="translate(-21.324 -18.547)"
         d="M465.435,117.656l-2.277-3.034h1.287l1.648,2.251,1.63-2.251h1.251l-2.278,3.061,2.422,3.241h-1.3l-1.773-2.467-1.791,2.467h-1.242Z"
         class="cls-2" />
      <path
         id="path336"
         transform="translate(-21.324 -18.547)"
         d="M469.71,120.356a.631.631,0,1,1,.631.649A.637.637,0,0,1,469.71,120.356Z"
         class="cls-2" />
      <path
         id="path338"
         transform="translate(-21.324 -18.547)"
         d="M473.985,117.656l-2.277-3.034H473l1.648,2.251,1.629-2.251h1.251l-2.277,3.061,2.422,3.241h-1.3l-1.773-2.467-1.791,2.467h-1.243Z"
         class="cls-2" />
    </g>
    <g
       id="g362">
      <path
         id="path342"
         transform="translate(-21.324 -18.547)"
         d="M577.642,115.657l-1.117.477v-.873l1.477-.639h.621v6.3h-.981Z"
         class="cls-2" />
      <path
         id="path344"
         transform="translate(-21.324 -18.547)"
         d="M579.721,117.773c0-1.935,1.052-3.25,2.583-3.25s2.575,1.315,2.575,3.25-1.044,3.24-2.575,3.24S579.721,119.7,579.721,117.773Zm4.176,0c0-1.45-.621-2.377-1.593-2.377s-1.6.927-1.6,2.377.63,2.367,1.6,2.367S583.9,119.214,583.9,117.773Z"
         class="cls-2" />
      <path
         id="path346"
         transform="translate(-21.324 -18.547)"
         d="M585.831,120.356a.631.631,0,1,1,.631.649A.637.637,0,0,1,585.831,120.356Z"
         class="cls-2" />
      <path
         id="path348"
         transform="translate(-21.324 -18.547)"
         d="M589.035,115.657l-1.116.477v-.873l1.476-.639h.622v6.3h-.982Z"
         class="cls-2" />
      <path
         id="path350"
         transform="translate(-21.324 -18.547)"
         d="M590.978,120.078l.658-.631a2.05,2.05,0,0,0,1.657.712c.819,0,1.377-.424,1.377-1.045a1,1,0,0,0-1.125-.954h-.775v-.828h.694a.914.914,0,0,0,1.008-.937,1.093,1.093,0,0,0-1.2-1,1.937,1.937,0,0,0-1.566.747l-.666-.621a3.034,3.034,0,0,1,2.26-1,1.916,1.916,0,0,1,2.151,1.774,1.528,1.528,0,0,1-1.188,1.431,1.565,1.565,0,0,1,1.395,1.449c0,1.072-.99,1.846-2.35,1.846A3.175,3.175,0,0,1,590.978,120.078Z"
         class="cls-2" />
      <path
         id="path352"
         transform="translate(-21.324 -18.547)"
         d="M596.577,117.773c0-1.935,1.054-3.25,2.584-3.25s2.575,1.315,2.575,3.25-1.045,3.24-2.575,3.24S596.577,119.7,596.577,117.773Zm4.178,0c0-1.45-.621-2.377-1.594-2.377s-1.6.927-1.6,2.377.629,2.367,1.6,2.367S600.755,119.214,600.755,117.773Z"
         class="cls-2" />
      <path
         id="path354"
         transform="translate(-21.324 -18.547)"
         d="M602.688,120.356a.631.631,0,1,1,1.26,0,.63.63,0,1,1-1.26,0Z"
         class="cls-2" />
      <path
         id="path356"
         transform="translate(-21.324 -18.547)"
         d="M606.964,117.656l-2.278-3.034h1.288l1.647,2.251,1.63-2.251H610.5l-2.277,3.061,2.42,3.241H609.35l-1.774-2.467-1.792,2.467h-1.242Z"
         class="cls-2" />
      <path
         id="path358"
         transform="translate(-21.324 -18.547)"
         d="M611.238,120.356a.631.631,0,1,1,1.26,0,.63.63,0,1,1-1.26,0Z"
         class="cls-2" />
      <path
         id="path360"
         transform="translate(-21.324 -18.547)"
         d="M615.514,117.656l-2.278-3.034h1.287l1.648,2.251,1.63-2.251h1.251l-2.278,3.061,2.421,3.241h-1.3l-1.773-2.467-1.792,2.467h-1.242Z"
         class="cls-2" />
    </g>
    <g
       id="g384">
      <path
         id="path364"
         transform="translate(-21.324 -18.547)"
         d="M691.593,115.657l-1.117.477v-.873l1.477-.639h.621v6.3h-.981Z"
         class="cls-2" />
      <path
         id="path366"
         transform="translate(-21.324 -18.547)"
         d="M693.672,117.773c0-1.935,1.054-3.25,2.584-3.25s2.575,1.315,2.575,3.25-1.045,3.24-2.575,3.24S693.672,119.7,693.672,117.773Zm4.178,0c0-1.45-.622-2.377-1.594-2.377s-1.6.927-1.6,2.377.63,2.367,1.6,2.367S697.85,119.214,697.85,117.773Z"
         class="cls-2" />
      <path
         id="path368"
         transform="translate(-21.324 -18.547)"
         d="M699.783,120.356a.631.631,0,1,1,1.26,0,.63.63,0,1,1-1.26,0Z"
         class="cls-2" />
      <path
         id="path370"
         transform="translate(-21.324 -18.547)"
         d="M702.987,115.657l-1.116.477v-.873l1.477-.639h.621v6.3h-.982Z"
         class="cls-2" />
      <path
         id="path372"
         transform="translate(-21.324 -18.547)"
         d="M704.931,120.078l.657-.631a2.046,2.046,0,0,0,1.656.712c.819,0,1.378-.424,1.378-1.045a1,1,0,0,0-1.126-.954h-.774v-.828h.693a.915.915,0,0,0,1.009-.937,1.094,1.094,0,0,0-1.2-1,1.935,1.935,0,0,0-1.566.747l-.667-.621a3.035,3.035,0,0,1,2.26-1,1.916,1.916,0,0,1,2.152,1.774,1.528,1.528,0,0,1-1.188,1.431,1.565,1.565,0,0,1,1.395,1.449c0,1.072-.99,1.846-2.349,1.846A3.17,3.17,0,0,1,704.931,120.078Z"
         class="cls-2" />
      <path
         id="path374"
         transform="translate(-21.324 -18.547)"
         d="M710.529,117.773c0-1.935,1.053-3.25,2.583-3.25s2.575,1.315,2.575,3.25-1.044,3.24-2.575,3.24S710.529,119.7,710.529,117.773Zm4.177,0c0-1.45-.621-2.377-1.594-2.377s-1.6.927-1.6,2.377.63,2.367,1.6,2.367S714.706,119.214,714.706,117.773Z"
         class="cls-2" />
      <path
         id="path376"
         transform="translate(-21.324 -18.547)"
         d="M716.64,120.356a.631.631,0,1,1,1.26,0,.63.63,0,1,1-1.26,0Z"
         class="cls-2" />
      <path
         id="path378"
         transform="translate(-21.324 -18.547)"
         d="M720.915,117.656l-2.277-3.034h1.287l1.647,2.251,1.63-2.251h1.251l-2.277,3.061,2.422,3.241h-1.3l-1.774-2.467-1.791,2.467h-1.242Z"
         class="cls-2" />
      <path
         id="path380"
         transform="translate(-21.324 -18.547)"
         d="M725.189,120.356a.631.631,0,1,1,1.261,0,.631.631,0,1,1-1.261,0Z"
         class="cls-2" />
      <path
         id="path382"
         transform="translate(-21.324 -18.547)"
         d="M729.465,117.656l-2.278-3.034h1.288l1.647,2.251,1.63-2.251H733l-2.277,3.061,2.421,3.241h-1.3l-1.774-2.467-1.791,2.467h-1.242Z"
         class="cls-2" />
    </g>
  </g>
  <g
     data-name="Layer 6"
     id="Layer_6">
    <g
       id="g445">
      <path
         id="path387"
         transform="translate(-21.324 -18.547)"
         d="M739.68,176.634h1.08v2.872l2.736-2.872h1.324l-3.008,3.034,3.116,3.268H743.5l-2.736-2.944v2.944h-1.08Z"
         class="cls-6" />
      <path
         id="path389"
         transform="translate(-21.324 -18.547)"
         d="M745.529,181.4v-2.971h1.027V181.1a.975.975,0,0,0,.99,1.09,1.126,1.126,0,0,0,.981-.541v-3.223h1.018v4.511h-1.018v-.729a1.628,1.628,0,0,1-1.431.8A1.526,1.526,0,0,1,745.529,181.4Z"
         class="cls-6" />
      <path
         id="path391"
         transform="translate(-21.324 -18.547)"
         d="M750.8,176.508l1.016-.171v2.692a1.759,1.759,0,0,1,1.387-.64,2.309,2.309,0,0,1-.064,4.592,1.711,1.711,0,0,1-1.34-.621v.576h-1Zm3.438,4.177a1.363,1.363,0,0,0-1.341-1.44,1.338,1.338,0,0,0-1.081.5v1.882a1.393,1.393,0,0,0,1.081.5A1.361,1.361,0,0,0,754.242,180.685Z"
         class="cls-6" />
      <path
         id="path393"
         transform="translate(-21.324 -18.547)"
         d="M756.1,180.685a2.227,2.227,0,0,1,2.2-2.332,2.169,2.169,0,0,1,2.134,2.332v.243H757.1a1.38,1.38,0,0,0,1.35,1.261,1.5,1.5,0,0,0,1.072-.424l.666.6a2.612,2.612,0,0,1-1.783.657A2.289,2.289,0,0,1,756.1,180.685Zm3.366-.386a1.227,1.227,0,0,0-1.179-1.117,1.213,1.213,0,0,0-1.18,1.117Z"
         class="cls-6" />
      <path
         id="path395"
         transform="translate(-21.324 -18.547)"
         d="M761.459,178.425h1.017v.973a1.355,1.355,0,0,1,1.243-1.054,1.226,1.226,0,0,1,.441.09v.892a1.6,1.6,0,0,0-.559-.109,1.228,1.228,0,0,0-1.125.749v2.97h-1.017Z"
         class="cls-6" />
      <path
         id="path397"
         transform="translate(-21.324 -18.547)"
         d="M765,178.425h1.018v.739a1.642,1.642,0,0,1,1.421-.811,1.523,1.523,0,0,1,1.577,1.613v2.97h-1.027v-2.682a.971.971,0,0,0-.99-1.081,1.122,1.122,0,0,0-.981.549v3.214H765Z"
         class="cls-6" />
      <path
         id="path399"
         transform="translate(-21.324 -18.547)"
         d="M770.027,180.685a2.227,2.227,0,0,1,2.2-2.332,2.168,2.168,0,0,1,2.133,2.332v.243h-3.331a1.381,1.381,0,0,0,1.351,1.261,1.5,1.5,0,0,0,1.071-.424l.666.6a2.61,2.61,0,0,1-1.782.657A2.289,2.289,0,0,1,770.027,180.685Zm3.366-.386a1.226,1.226,0,0,0-1.178-1.117,1.212,1.212,0,0,0-1.18,1.117Z"
         class="cls-6" />
      <path
         id="path401"
         transform="translate(-21.324 -18.547)"
         d="M775.949,181.765v-2.529h-.9v-.811h.9v-1.242l1.017-.216v1.458h1.252v.811h-1.252v2.305c0,.441.171.612.631.612a1.916,1.916,0,0,0,.612-.108v.855a3.212,3.212,0,0,1-.874.126C776.426,183.026,775.949,182.593,775.949,181.765Z"
         class="cls-6" />
      <path
         id="path403"
         transform="translate(-21.324 -18.547)"
         d="M778.91,180.685a2.227,2.227,0,0,1,2.2-2.332,2.168,2.168,0,0,1,2.134,2.332v.243h-3.331a1.381,1.381,0,0,0,1.351,1.261,1.5,1.5,0,0,0,1.071-.424l.666.6a2.611,2.611,0,0,1-1.782.657A2.289,2.289,0,0,1,778.91,180.685Zm3.366-.386a1.226,1.226,0,0,0-1.178-1.117,1.212,1.212,0,0,0-1.18,1.117Z"
         class="cls-6" />
      <path
         id="path405"
         transform="translate(-21.324 -18.547)"
         d="M783.868,182.414l.478-.675a2.618,2.618,0,0,0,1.449.513c.54,0,.909-.252.909-.613,0-.279-.188-.423-.63-.512l-.792-.136c-.883-.161-1.306-.567-1.306-1.242,0-.846.694-1.4,1.747-1.4a3.247,3.247,0,0,1,1.773.541l-.477.675a2.444,2.444,0,0,0-1.359-.433c-.469,0-.774.2-.774.523,0,.288.162.414.63.5l.8.153c.9.162,1.332.576,1.332,1.251a1.656,1.656,0,0,1-1.845,1.468A3.019,3.019,0,0,1,783.868,182.414Z"
         class="cls-6" />
      <path
         id="path407"
         transform="translate(-21.324 -18.547)"
         d="M790.735,176.634h2.819a1.955,1.955,0,1,1,0,3.9h-1.739v2.4h-1.08Zm2.647,3.016a1.06,1.06,0,1,0,.01-2.106h-1.577v2.106Z"
         class="cls-6" />
      <path
         id="path409"
         transform="translate(-21.324 -18.547)"
         d="M796.514,180.685a2.265,2.265,0,1,1,2.268,2.332A2.246,2.246,0,0,1,796.514,180.685Zm3.528,0a1.279,1.279,0,1,0-1.26,1.468A1.339,1.339,0,0,0,800.042,180.685Z"
         class="cls-6" />
      <path
         id="path411"
         transform="translate(-21.324 -18.547)"
         d="M801.887,180.685a2.184,2.184,0,0,1,2.106-2.3,1.728,1.728,0,0,1,1.315.585v-2.493l1.016-.18v6.635h-1.008v-.595a1.757,1.757,0,0,1-1.395.64A2.157,2.157,0,0,1,801.887,180.685Zm3.421.946v-1.9a1.4,1.4,0,0,0-1.072-.486,1.444,1.444,0,0,0,0,2.881A1.328,1.328,0,0,0,805.308,181.631Z"
         class="cls-6" />
      <path
         id="path413"
         transform="translate(-21.324 -18.547)"
         d="M809.193,182.017l.586-.792a3.157,3.157,0,0,0,2.124.918c.828,0,1.4-.423,1.4-1.008,0-.512-.306-.755-1.143-.9l-1.162-.2c-1.089-.2-1.62-.738-1.62-1.6,0-1.142.909-1.9,2.323-1.9a4.2,4.2,0,0,1,2.529.81l-.549.811a3.3,3.3,0,0,0-2.016-.73c-.757,0-1.261.387-1.261.9,0,.459.288.693.973.8l1.125.189c1.269.225,1.863.783,1.863,1.737,0,1.162-1.026,1.981-2.529,1.981A3.971,3.971,0,0,1,809.193,182.017Z"
         class="cls-6" />
      <path
         id="path415"
         transform="translate(-21.324 -18.547)"
         d="M815.467,176.634h2.3a3.151,3.151,0,1,1,0,6.3h-2.3ZM817.8,182a2.224,2.224,0,0,0,0-4.43h-1.252V182Z"
         class="cls-6" />
      <path
         id="path417"
         transform="translate(-21.324 -18.547)"
         d="M822.145,176.634H823.2l3.286,4.582-.017-4.582h1.016v6.3h-.963l-3.376-4.709.018,4.709h-1.017Z"
         class="cls-6" />
      <path
         id="path419"
         transform="translate(-21.324 -18.547)"
         d="M740.372,188.469l-1.116.477v-.873l1.476-.639h.621v6.3h-.981Z"
         class="cls-6" />
      <path
         id="path421"
         transform="translate(-21.324 -18.547)"
         d="M742.451,190.585c0-1.936,1.054-3.25,2.584-3.25s2.575,1.314,2.575,3.25-1.045,3.241-2.575,3.241S742.451,192.511,742.451,190.585Zm4.178,0c0-1.45-.621-2.377-1.594-2.377s-1.6.927-1.6,2.377.629,2.368,1.6,2.368S746.629,192.025,746.629,190.585Z"
         class="cls-6" />
      <path
         id="path423"
         transform="translate(-21.324 -18.547)"
         d="M748.562,193.169a.631.631,0,1,1,1.26,0,.63.63,0,1,1-1.26,0Z"
         class="cls-6" />
      <path
         id="path425"
         transform="translate(-21.324 -18.547)"
         d="M751.767,188.469l-1.117.477v-.873l1.477-.639h.621v6.3h-.981Z"
         class="cls-6" />
      <path
         id="path427"
         transform="translate(-21.324 -18.547)"
         d="M753.853,193.024l2.584-2.7a1.673,1.673,0,0,0,.613-1.206,1.024,1.024,0,0,0-1.144-.919,2.257,2.257,0,0,0-1.638.766l-.558-.676a3.205,3.205,0,0,1,2.215-.954c1.233,0,2.079.7,2.079,1.728a2.393,2.393,0,0,1-.891,1.765l-2.008,2.07,3.016-.009v.847h-4.268Z"
         class="cls-6" />
      <path
         id="path429"
         transform="translate(-21.324 -18.547)"
         d="M759,192a1.668,1.668,0,0,1,1.35-1.54,1.526,1.526,0,0,1-1.134-1.4,2.17,2.17,0,0,1,4.249,0,1.526,1.526,0,0,1-1.134,1.4,1.67,1.67,0,0,1,1.351,1.54c0,1.071-.973,1.836-2.341,1.836S759,193.07,759,192Zm3.691-.064c0-.621-.567-1.08-1.35-1.08s-1.351.459-1.351,1.08a1.382,1.382,0,0,0,2.7,0Zm-.189-2.817a1.178,1.178,0,1,0-1.161.98A1.056,1.056,0,0,0,762.5,189.118Z"
         class="cls-6" />
      <path
         id="path431"
         transform="translate(-21.324 -18.547)"
         d="M764.644,193.169a.631.631,0,1,1,1.261,0,.631.631,0,1,1-1.261,0Z"
         class="cls-6" />
      <path
         id="path433"
         transform="translate(-21.324 -18.547)"
         d="M766.85,190.585c0-1.936,1.053-3.25,2.584-3.25s2.575,1.314,2.575,3.25-1.045,3.241-2.575,3.241S766.85,192.511,766.85,190.585Zm4.177,0c0-1.45-.621-2.377-1.593-2.377s-1.6.927-1.6,2.377.63,2.368,1.6,2.368S771.027,192.025,771.027,190.585Z"
         class="cls-6" />
      <path
         id="path435"
         transform="translate(-21.324 -18.547)"
         d="M772.961,193.169a.631.631,0,1,1,1.261,0,.631.631,0,1,1-1.261,0Z"
         class="cls-6" />
      <path
         id="path437"
         transform="translate(-21.324 -18.547)"
         d="M775.166,190.585c0-1.936,1.054-3.25,2.584-3.25s2.575,1.314,2.575,3.25-1.045,3.241-2.575,3.241S775.166,192.511,775.166,190.585Zm4.178,0c0-1.45-.621-2.377-1.594-2.377s-1.6.927-1.6,2.377.63,2.368,1.6,2.368S779.344,192.025,779.344,190.585Z"
         class="cls-6" />
      <path
         id="path439"
         transform="translate(-21.324 -18.547)"
         d="M783.933,187.434h.99l-3.61,8.183h-.981Z"
         class="cls-6" />
      <path
         id="path441"
         transform="translate(-21.324 -18.547)"
         d="M786.7,188.469l-1.116.477v-.873l1.476-.639h.621v6.3H786.7Z"
         class="cls-6" />
      <path
         id="path443"
         transform="translate(-21.324 -18.547)"
         d="M792.087,192.178h-3.395v-.8l3.278-3.943h1.071v3.9h.837v.846h-.837v1.558h-.954Zm0-.846v-2.818l-2.322,2.818Z"
         class="cls-6" />
    </g>
    <g
       id="g453">
      <line
         id="line447"
         y2="161.71"
         x2="63.992"
         y1="116.832"
         x1="63.992"
         class="cls-7" />
      <path
         id="path449"
         transform="translate(-21.324 -18.547)"
         d="M82.5,135.52a2.82,2.82,0,1,1,2.819,2.819A2.819,2.819,0,0,1,82.5,135.52Z"
         class="cls-6" />
      <circle
         id="circle451"
         r="2.82"
         cy="161.569"
         cx="63.992"
         class="cls-6" />
    </g>
    <g
       id="g461">
      <line
         id="line455"
         y2="161.71"
         x2="177.888"
         y1="116.832"
         x1="177.888"
         class="cls-7" />
      <path
         id="path457"
         transform="translate(-21.324 -18.547)"
         d="M196.392,135.52a2.82,2.82,0,1,1,2.82,2.819A2.82,2.82,0,0,1,196.392,135.52Z"
         class="cls-6" />
      <circle
         id="circle459"
         r="2.82"
         cy="161.569"
         cx="177.888"
         class="cls-6" />
    </g>
    <g
       id="g469">
      <line
         id="line463"
         y2="161.71"
         x2="320.256"
         y1="116.832"
         x1="320.256"
         class="cls-7" />
      <path
         id="path465"
         transform="translate(-21.324 -18.547)"
         d="M338.76,135.52a2.82,2.82,0,1,1,2.82,2.819A2.82,2.82,0,0,1,338.76,135.52Z"
         class="cls-6" />
      <circle
         id="circle467"
         r="2.82"
         cy="161.569"
         cx="320.256"
         class="cls-6" />
    </g>
    <g
       id="g477">
      <line
         id="line471"
         y2="161.71"
         x2="434.764"
         y1="116.832"
         x1="434.764"
         class="cls-7" />
      <path
         id="path473"
         transform="translate(-21.324 -18.547)"
         d="M453.268,135.52a2.82,2.82,0,1,1,2.82,2.819A2.82,2.82,0,0,1,453.268,135.52Z"
         class="cls-6" />
      <path
         id="path475"
         transform="translate(-21.324 -18.547)"
         d="M453.268,180.116a2.82,2.82,0,1,0,2.82-2.82A2.821,2.821,0,0,0,453.268,180.116Z"
         class="cls-6" />
    </g>
    <g
       id="g485">
      <line
         id="line479"
         y2="161.71"
         x2="576.289"
         y1="116.832"
         x1="576.289"
         class="cls-7" />
      <path
         id="path481"
         transform="translate(-21.324 -18.547)"
         d="M594.793,135.52a2.82,2.82,0,1,1,2.819,2.819A2.819,2.819,0,0,1,594.793,135.52Z"
         class="cls-6" />
      <circle
         id="circle483"
         r="2.82"
         cy="161.569"
         cx="576.289"
         class="cls-6" />
    </g>
    <g
       id="g493">
      <line
         id="line487"
         y2="161.71"
         x2="690.404"
         y1="116.832"
         x1="690.404"
         class="cls-7" />
      <path
         id="path489"
         transform="translate(-21.324 -18.547)"
         d="M708.908,135.52a2.82,2.82,0,1,1,2.82,2.819A2.82,2.82,0,0,1,708.908,135.52Z"
         class="cls-6" />
      <circle
         id="circle491"
         r="2.82"
         cy="161.569"
         cx="690.404"
         class="cls-6" />
    </g>
    <line
       id="line495"
       y2="161.838"
       x2="711.907"
       y1="161.838"
       x1="63.992"
       class="cls-7" />
  </g>
</svg>
